<?xml version="1.0" encoding="utf-8" standalone="no"?>
<!DOCTYPE svg PUBLIC "-//W3C//DTD SVG 1.1//EN"
  "http://www.w3.org/Graphics/SVG/1.1/DTD/svg11.dtd">
<svg xmlns:xlink="http://www.w3.org/1999/xlink" width="1152pt" height="648pt" viewBox="0 0 1152 648" xmlns="http://www.w3.org/2000/svg" version="1.1">
 <metadata>
  <rdf:RDF xmlns:dc="http://purl.org/dc/elements/1.1/" xmlns:cc="http://creativecommons.org/ns#" xmlns:rdf="http://www.w3.org/1999/02/22-rdf-syntax-ns#">
   <cc:Work>
    <dc:type rdf:resource="http://purl.org/dc/dcmitype/StillImage"/>
    <dc:date>2023-06-17T23:18:20.861939</dc:date>
    <dc:format>image/svg+xml</dc:format>
    <dc:creator>
     <cc:Agent>
      <dc:title>Matplotlib v3.5.3, https://matplotlib.org/</dc:title>
     </cc:Agent>
    </dc:creator>
   </cc:Work>
  </rdf:RDF>
 </metadata>
 <defs>
  <style type="text/css">*{stroke-linejoin: round; stroke-linecap: butt}</style>
 </defs>
 <g id="figure_1">
  <g id="patch_1">
   <path d="M 0 648 
L 1152 648 
L 1152 0 
L 0 0 
z
" style="fill: #ffffff"/>
  </g>
  <g id="axes_1">
   <g id="patch_2">
    <path d="M 144 576.72 
L 1036.8 576.72 
L 1036.8 77.76 
L 144 77.76 
z
" style="fill: #ffffff"/>
   </g>
   <g id="patch_3">
    <path d="M 150.696 649 
L 150.696 108.602588 
L 152.928 108.602588 
L 152.928 97.344937 
L 155.16 97.344937 
L 155.16 143.211908 
L 157.392 143.211908 
L 157.392 143.965549 
L 159.624 143.965549 
L 159.624 172.36383 
L 161.856 172.36383 
L 161.856 237.932224 
L 164.088 237.932224 
L 164.088 289.534739 
L 166.32 289.534739 
L 166.32 329.112057 
L 168.552 329.112057 
L 168.552 361.205628 
L 170.784 361.205628 
L 170.784 416.963868 
L 173.016 416.963868 
L 173.016 458.621385 
L 175.248 458.621385 
L 175.248 467.144082 
L 177.48 467.144082 
L 177.48 468.87131 
L 179.712 468.87131 
L 179.712 494.923486 
L 181.944 494.923486 
L 181.944 509.124557 
L 184.176 509.124557 
L 184.176 515.096492 
L 186.408 515.096492 
L 186.408 518.670159 
L 188.64 518.670159 
L 188.64 533.647016 
L 193.104 533.647016 
L 193.104 649 
L 193.104 649 
" clip-path="url(#p05db0f68ca)" style="fill: none; stroke: #1f77b4; stroke-linejoin: miter"/>
   </g>
   <g id="patch_4">
    <path d="M 150.696 649 
L 150.696 111.387066 
L 152.928 111.387066 
L 152.928 96.862167 
L 155.16 96.862167 
L 155.16 146.258023 
L 157.392 146.258023 
L 157.392 137.564351 
L 159.624 137.564351 
L 159.624 165.612807 
L 161.856 165.612807 
L 161.856 230.939152 
L 164.088 230.939152 
L 164.088 297.369299 
L 166.32 297.369299 
L 166.32 335.374368 
L 168.552 335.374368 
L 168.552 360.039129 
L 170.784 360.039129 
L 170.784 407.727864 
L 173.016 407.727864 
L 173.016 461.172147 
L 175.248 461.172147 
L 175.248 474.843245 
L 177.48 474.843245 
L 177.48 478.845126 
L 179.712 478.845126 
L 179.712 506.573794 
L 181.944 506.573794 
L 181.944 504.245131 
L 184.176 504.245131 
L 184.176 511.944294 
L 186.408 511.944294 
L 186.408 515.096492 
L 188.64 515.096492 
L 188.64 649 
M 190.872 649 
L 190.872 541.34618 
L 193.104 541.34618 
L 193.104 649 
L 193.104 649 
" clip-path="url(#p05db0f68ca)" style="fill: none; stroke: #ff7f0e; stroke-linejoin: miter"/>
   </g>
   <g id="patch_5">
    <path d="M 150.696 649 
L 150.696 119.375035 
L 152.928 119.375035 
L 152.928 97.988689 
L 155.16 97.988689 
L 155.16 142.221727 
L 157.392 142.221727 
L 157.392 139.287914 
L 159.624 139.287914 
L 159.624 157.213887 
L 161.856 157.213887 
L 161.856 175.010413 
L 164.088 175.010413 
L 164.088 187.433577 
L 166.32 187.433577 
L 166.32 187.975804 
L 168.552 187.975804 
L 168.552 194.5117 
L 170.784 194.5117 
L 170.784 221.568482 
L 173.016 221.568482 
L 173.016 271.60982 
L 175.248 271.60982 
L 175.248 321.620676 
L 177.48 321.620676 
L 177.48 366.085054 
L 179.712 366.085054 
L 179.712 406.543479 
L 181.944 406.543479 
L 181.944 439.868876 
L 184.176 439.868876 
L 184.176 465.001919 
L 186.408 465.001919 
L 186.408 472.023508 
L 188.64 472.023508 
L 188.64 511.944294 
L 190.872 511.944294 
L 190.872 515.096492 
L 193.104 515.096492 
L 193.104 527.675081 
L 195.336 527.675081 
L 195.336 533.647016 
L 197.568 533.647016 
L 197.568 570.748065 
L 199.8 570.748065 
L 199.8 649 
M 202.032 649 
L 202.032 570.748065 
L 204.264 570.748065 
L 204.264 649 
L 204.264 649 
" clip-path="url(#p05db0f68ca)" style="fill: none; stroke: #2ca02c; stroke-linejoin: miter"/>
   </g>
   <g id="patch_6">
    <path d="M 150.696 649 
L 150.696 111.025456 
L 152.928 111.025456 
L 152.928 95.756323 
L 155.16 95.756323 
L 155.16 142.941398 
L 157.392 142.941398 
L 157.392 145.012474 
L 159.624 145.012474 
L 159.624 171.992049 
L 161.856 171.992049 
L 161.856 238.228662 
L 164.088 238.228662 
L 164.088 297.013943 
L 166.32 297.013943 
L 166.32 333.845553 
L 168.552 333.845553 
L 168.552 366.046758 
L 170.784 366.046758 
L 170.784 420.525323 
L 173.016 420.525323 
L 173.016 459.029984 
L 175.248 459.029984 
L 175.248 478.845126 
L 177.48 478.845126 
L 177.48 476.372962 
L 179.712 476.372962 
L 179.712 489.268274 
L 181.944 489.268274 
L 181.944 496.545967 
L 184.176 496.545967 
L 184.176 515.096492 
L 186.408 515.096492 
L 186.408 518.670159 
L 188.64 518.670159 
L 188.64 533.647016 
L 190.872 533.647016 
L 190.872 527.675081 
L 193.104 527.675081 
L 193.104 649 
L 193.104 649 
" clip-path="url(#p05db0f68ca)" style="fill: none; stroke: #d62728; stroke-linejoin: miter"/>
   </g>
   <g id="patch_7">
    <path d="M 150.696 649 
L 150.696 113.768123 
L 152.928 113.768123 
L 152.928 95.321551 
L 155.16 95.321551 
L 155.16 141.90686 
L 157.392 141.90686 
L 157.392 142.021056 
L 159.624 142.021056 
L 159.624 166.954213 
L 161.856 166.954213 
L 161.856 232.64563 
L 164.088 232.64563 
L 164.088 296.178923 
L 166.32 296.178923 
L 166.32 334.824526 
L 168.552 334.824526 
L 168.552 366.484025 
L 170.784 366.484025 
L 170.784 407.010962 
L 173.016 407.010962 
L 173.016 463.500811 
L 175.248 463.500811 
L 175.248 472.701082 
L 177.48 472.701082 
L 177.48 477.171909 
L 179.712 477.171909 
L 179.712 493.39377 
L 181.944 493.39377 
L 181.944 504.245131 
L 184.176 504.245131 
L 184.176 509.124557 
L 186.408 509.124557 
L 186.408 522.795655 
L 188.64 522.795655 
L 188.64 570.748065 
L 190.872 570.748065 
L 190.872 552.197541 
L 195.336 552.197541 
L 195.336 649 
L 195.336 649 
" clip-path="url(#p05db0f68ca)" style="fill: none; stroke: #9467bd; stroke-linejoin: miter"/>
   </g>
   <g id="patch_8">
    <path d="M 148.464 649 
L 148.464 522.795655 
L 150.696 522.795655 
L 150.696 98.087214 
L 152.928 98.087214 
L 152.928 106.155578 
L 155.16 106.155578 
L 155.16 133.449234 
L 157.392 133.449234 
L 157.392 155.209237 
L 159.624 155.209237 
L 159.624 218.812808 
L 161.856 218.812808 
L 161.856 280.211804 
L 164.088 280.211804 
L 164.088 322.097874 
L 166.32 322.097874 
L 166.32 349.365005 
L 168.552 349.365005 
L 168.552 385.797373 
L 170.784 385.797373 
L 170.784 411.353481 
L 173.016 411.353481 
L 173.016 443.994372 
L 175.248 443.994372 
L 175.248 450.025062 
L 177.48 450.025062 
L 177.48 452.487741 
L 179.712 452.487741 
L 179.712 453.140523 
L 181.944 453.140523 
L 181.944 456.292721 
L 184.176 456.292721 
L 184.176 477.995443 
L 186.408 477.995443 
L 186.408 504.245131 
L 188.64 504.245131 
L 188.64 515.096492 
L 190.872 515.096492 
L 190.872 511.944294 
L 193.104 511.944294 
L 193.104 481.56911 
L 195.336 481.56911 
L 195.336 504.245131 
L 197.568 504.245131 
L 197.568 541.34618 
L 199.8 541.34618 
L 199.8 649 
M 204.264 649 
L 204.264 570.748065 
L 206.496 570.748065 
L 206.496 649 
L 206.496 649 
" clip-path="url(#p05db0f68ca)" style="fill: none; stroke: #8c564b; stroke-linejoin: miter"/>
   </g>
   <g id="patch_9">
    <path d="M 150.696 649 
L 150.696 115.277963 
L 152.928 115.277963 
L 152.928 95.355963 
L 155.16 95.355963 
L 155.16 141.455664 
L 157.392 141.455664 
L 157.392 137.651279 
L 159.624 137.651279 
L 159.624 168.314884 
L 161.856 168.314884 
L 161.856 240.821202 
L 164.088 240.821202 
L 164.088 302.957604 
L 166.32 302.957604 
L 166.32 342.33237 
L 168.552 342.33237 
L 168.552 383.06048 
L 170.784 383.06048 
L 170.784 429.355007 
L 173.016 429.355007 
L 173.016 457.822437 
L 175.248 457.822437 
L 175.248 465.5216 
L 177.48 465.5216 
L 177.48 469.472746 
L 179.712 469.472746 
L 179.712 471.362666 
L 181.944 471.362666 
L 181.944 475.597175 
L 184.176 475.597175 
L 184.176 489.268274 
L 186.408 489.268274 
L 186.408 515.096492 
L 188.64 515.096492 
L 188.64 504.245131 
L 190.872 504.245131 
L 190.872 527.675081 
L 193.104 527.675081 
L 193.104 533.647016 
L 195.336 533.647016 
L 195.336 541.34618 
L 197.568 541.34618 
L 197.568 570.748065 
L 202.032 570.748065 
L 202.032 649 
L 202.032 649 
" clip-path="url(#p05db0f68ca)" style="fill: none; stroke: #e377c2; stroke-linejoin: miter"/>
   </g>
   <g id="patch_10">
    <path d="M 148.464 649 
L 148.464 570.748065 
L 150.696 570.748065 
L 150.696 110.787417 
L 152.928 110.787417 
L 152.928 96.230999 
L 155.16 96.230999 
L 155.16 142.972898 
L 157.392 142.972898 
L 157.392 144.14739 
L 159.624 144.14739 
L 159.624 169.163955 
L 161.856 169.163955 
L 161.856 232.914775 
L 164.088 232.914775 
L 164.088 296.677566 
L 166.32 296.677566 
L 166.32 336.006233 
L 168.552 336.006233 
L 168.552 374.217788 
L 170.784 374.217788 
L 170.784 409.673962 
L 173.016 409.673962 
L 173.016 455.200212 
L 175.248 455.200212 
L 175.248 480.62997 
L 179.712 480.62997 
L 179.712 491.946782 
L 181.944 491.946782 
L 181.944 496.545967 
L 184.176 496.545967 
L 184.176 522.795655 
L 186.408 522.795655 
L 186.408 509.124557 
L 188.64 509.124557 
L 188.64 552.197541 
L 190.872 552.197541 
L 190.872 649 
M 193.104 649 
L 193.104 570.748065 
L 195.336 570.748065 
L 195.336 649 
L 195.336 649 
" clip-path="url(#p05db0f68ca)" style="fill: none; stroke: #7f7f7f; stroke-linejoin: miter"/>
   </g>
   <g id="matplotlib.axis_1">
    <g id="xtick_1">
     <g id="line2d_1">
      <defs>
       <path id="mf7c4d3f07d" d="M 0 0 
L 0 3.5 
" style="stroke: #000000; stroke-width: 0.8"/>
      </defs>
      <g>
       <use xlink:href="#mf7c4d3f07d" x="144" y="576.72" style="stroke: #000000; stroke-width: 0.8"/>
      </g>
     </g>
     <g id="text_1">
      <!-- 0 -->
      <g transform="translate(140.81875 591.318438)scale(0.1 -0.1)">
       <defs>
        <path id="DejaVuSans-30" d="M 2034 4250 
Q 1547 4250 1301 3770 
Q 1056 3291 1056 2328 
Q 1056 1369 1301 889 
Q 1547 409 2034 409 
Q 2525 409 2770 889 
Q 3016 1369 3016 2328 
Q 3016 3291 2770 3770 
Q 2525 4250 2034 4250 
z
M 2034 4750 
Q 2819 4750 3233 4129 
Q 3647 3509 3647 2328 
Q 3647 1150 3233 529 
Q 2819 -91 2034 -91 
Q 1250 -91 836 529 
Q 422 1150 422 2328 
Q 422 3509 836 4129 
Q 1250 4750 2034 4750 
z
" transform="scale(0.015625)"/>
       </defs>
       <use xlink:href="#DejaVuSans-30"/>
      </g>
     </g>
    </g>
    <g id="xtick_2">
     <g id="line2d_2">
      <g>
       <use xlink:href="#mf7c4d3f07d" x="255.6" y="576.72" style="stroke: #000000; stroke-width: 0.8"/>
      </g>
     </g>
     <g id="text_2">
      <!-- 50 -->
      <g transform="translate(249.2375 591.318438)scale(0.1 -0.1)">
       <defs>
        <path id="DejaVuSans-35" d="M 691 4666 
L 3169 4666 
L 3169 4134 
L 1269 4134 
L 1269 2991 
Q 1406 3038 1543 3061 
Q 1681 3084 1819 3084 
Q 2600 3084 3056 2656 
Q 3513 2228 3513 1497 
Q 3513 744 3044 326 
Q 2575 -91 1722 -91 
Q 1428 -91 1123 -41 
Q 819 9 494 109 
L 494 744 
Q 775 591 1075 516 
Q 1375 441 1709 441 
Q 2250 441 2565 725 
Q 2881 1009 2881 1497 
Q 2881 1984 2565 2268 
Q 2250 2553 1709 2553 
Q 1456 2553 1204 2497 
Q 953 2441 691 2322 
L 691 4666 
z
" transform="scale(0.015625)"/>
       </defs>
       <use xlink:href="#DejaVuSans-35"/>
       <use xlink:href="#DejaVuSans-30" x="63.623047"/>
      </g>
     </g>
    </g>
    <g id="xtick_3">
     <g id="line2d_3">
      <g>
       <use xlink:href="#mf7c4d3f07d" x="367.2" y="576.72" style="stroke: #000000; stroke-width: 0.8"/>
      </g>
     </g>
     <g id="text_3">
      <!-- 100 -->
      <g transform="translate(357.65625 591.318438)scale(0.1 -0.1)">
       <defs>
        <path id="DejaVuSans-31" d="M 794 531 
L 1825 531 
L 1825 4091 
L 703 3866 
L 703 4441 
L 1819 4666 
L 2450 4666 
L 2450 531 
L 3481 531 
L 3481 0 
L 794 0 
L 794 531 
z
" transform="scale(0.015625)"/>
       </defs>
       <use xlink:href="#DejaVuSans-31"/>
       <use xlink:href="#DejaVuSans-30" x="63.623047"/>
       <use xlink:href="#DejaVuSans-30" x="127.246094"/>
      </g>
     </g>
    </g>
    <g id="xtick_4">
     <g id="line2d_4">
      <g>
       <use xlink:href="#mf7c4d3f07d" x="478.8" y="576.72" style="stroke: #000000; stroke-width: 0.8"/>
      </g>
     </g>
     <g id="text_4">
      <!-- 150 -->
      <g transform="translate(469.25625 591.318438)scale(0.1 -0.1)">
       <use xlink:href="#DejaVuSans-31"/>
       <use xlink:href="#DejaVuSans-35" x="63.623047"/>
       <use xlink:href="#DejaVuSans-30" x="127.246094"/>
      </g>
     </g>
    </g>
    <g id="xtick_5">
     <g id="line2d_5">
      <g>
       <use xlink:href="#mf7c4d3f07d" x="590.4" y="576.72" style="stroke: #000000; stroke-width: 0.8"/>
      </g>
     </g>
     <g id="text_5">
      <!-- 200 -->
      <g transform="translate(580.85625 591.318438)scale(0.1 -0.1)">
       <defs>
        <path id="DejaVuSans-32" d="M 1228 531 
L 3431 531 
L 3431 0 
L 469 0 
L 469 531 
Q 828 903 1448 1529 
Q 2069 2156 2228 2338 
Q 2531 2678 2651 2914 
Q 2772 3150 2772 3378 
Q 2772 3750 2511 3984 
Q 2250 4219 1831 4219 
Q 1534 4219 1204 4116 
Q 875 4013 500 3803 
L 500 4441 
Q 881 4594 1212 4672 
Q 1544 4750 1819 4750 
Q 2544 4750 2975 4387 
Q 3406 4025 3406 3419 
Q 3406 3131 3298 2873 
Q 3191 2616 2906 2266 
Q 2828 2175 2409 1742 
Q 1991 1309 1228 531 
z
" transform="scale(0.015625)"/>
       </defs>
       <use xlink:href="#DejaVuSans-32"/>
       <use xlink:href="#DejaVuSans-30" x="63.623047"/>
       <use xlink:href="#DejaVuSans-30" x="127.246094"/>
      </g>
     </g>
    </g>
    <g id="xtick_6">
     <g id="line2d_6">
      <g>
       <use xlink:href="#mf7c4d3f07d" x="702" y="576.72" style="stroke: #000000; stroke-width: 0.8"/>
      </g>
     </g>
     <g id="text_6">
      <!-- 250 -->
      <g transform="translate(692.45625 591.318438)scale(0.1 -0.1)">
       <use xlink:href="#DejaVuSans-32"/>
       <use xlink:href="#DejaVuSans-35" x="63.623047"/>
       <use xlink:href="#DejaVuSans-30" x="127.246094"/>
      </g>
     </g>
    </g>
    <g id="xtick_7">
     <g id="line2d_7">
      <g>
       <use xlink:href="#mf7c4d3f07d" x="813.6" y="576.72" style="stroke: #000000; stroke-width: 0.8"/>
      </g>
     </g>
     <g id="text_7">
      <!-- 300 -->
      <g transform="translate(804.05625 591.318438)scale(0.1 -0.1)">
       <defs>
        <path id="DejaVuSans-33" d="M 2597 2516 
Q 3050 2419 3304 2112 
Q 3559 1806 3559 1356 
Q 3559 666 3084 287 
Q 2609 -91 1734 -91 
Q 1441 -91 1130 -33 
Q 819 25 488 141 
L 488 750 
Q 750 597 1062 519 
Q 1375 441 1716 441 
Q 2309 441 2620 675 
Q 2931 909 2931 1356 
Q 2931 1769 2642 2001 
Q 2353 2234 1838 2234 
L 1294 2234 
L 1294 2753 
L 1863 2753 
Q 2328 2753 2575 2939 
Q 2822 3125 2822 3475 
Q 2822 3834 2567 4026 
Q 2313 4219 1838 4219 
Q 1578 4219 1281 4162 
Q 984 4106 628 3988 
L 628 4550 
Q 988 4650 1302 4700 
Q 1616 4750 1894 4750 
Q 2613 4750 3031 4423 
Q 3450 4097 3450 3541 
Q 3450 3153 3228 2886 
Q 3006 2619 2597 2516 
z
" transform="scale(0.015625)"/>
       </defs>
       <use xlink:href="#DejaVuSans-33"/>
       <use xlink:href="#DejaVuSans-30" x="63.623047"/>
       <use xlink:href="#DejaVuSans-30" x="127.246094"/>
      </g>
     </g>
    </g>
    <g id="xtick_8">
     <g id="line2d_8">
      <g>
       <use xlink:href="#mf7c4d3f07d" x="925.2" y="576.72" style="stroke: #000000; stroke-width: 0.8"/>
      </g>
     </g>
     <g id="text_8">
      <!-- 350 -->
      <g transform="translate(915.65625 591.318438)scale(0.1 -0.1)">
       <use xlink:href="#DejaVuSans-33"/>
       <use xlink:href="#DejaVuSans-35" x="63.623047"/>
       <use xlink:href="#DejaVuSans-30" x="127.246094"/>
      </g>
     </g>
    </g>
    <g id="xtick_9">
     <g id="line2d_9">
      <g>
       <use xlink:href="#mf7c4d3f07d" x="1036.8" y="576.72" style="stroke: #000000; stroke-width: 0.8"/>
      </g>
     </g>
     <g id="text_9">
      <!-- 400 -->
      <g transform="translate(1027.25625 591.318438)scale(0.1 -0.1)">
       <defs>
        <path id="DejaVuSans-34" d="M 2419 4116 
L 825 1625 
L 2419 1625 
L 2419 4116 
z
M 2253 4666 
L 3047 4666 
L 3047 1625 
L 3713 1625 
L 3713 1100 
L 3047 1100 
L 3047 0 
L 2419 0 
L 2419 1100 
L 313 1100 
L 313 1709 
L 2253 4666 
z
" transform="scale(0.015625)"/>
       </defs>
       <use xlink:href="#DejaVuSans-34"/>
       <use xlink:href="#DejaVuSans-30" x="63.623047"/>
       <use xlink:href="#DejaVuSans-30" x="127.246094"/>
      </g>
     </g>
    </g>
    <g id="text_10">
     <!-- Maximum latency: 27 µs, with "cyclictest -l100000000 -m -Sp99 -i200 -h400 - -smi -q" on 2023-06-17 -->
     <g transform="translate(338.294531 604.996562)scale(0.1 -0.1)">
      <defs>
       <path id="DejaVuSans-4d" d="M 628 4666 
L 1569 4666 
L 2759 1491 
L 3956 4666 
L 4897 4666 
L 4897 0 
L 4281 0 
L 4281 4097 
L 3078 897 
L 2444 897 
L 1241 4097 
L 1241 0 
L 628 0 
L 628 4666 
z
" transform="scale(0.015625)"/>
       <path id="DejaVuSans-61" d="M 2194 1759 
Q 1497 1759 1228 1600 
Q 959 1441 959 1056 
Q 959 750 1161 570 
Q 1363 391 1709 391 
Q 2188 391 2477 730 
Q 2766 1069 2766 1631 
L 2766 1759 
L 2194 1759 
z
M 3341 1997 
L 3341 0 
L 2766 0 
L 2766 531 
Q 2569 213 2275 61 
Q 1981 -91 1556 -91 
Q 1019 -91 701 211 
Q 384 513 384 1019 
Q 384 1609 779 1909 
Q 1175 2209 1959 2209 
L 2766 2209 
L 2766 2266 
Q 2766 2663 2505 2880 
Q 2244 3097 1772 3097 
Q 1472 3097 1187 3025 
Q 903 2953 641 2809 
L 641 3341 
Q 956 3463 1253 3523 
Q 1550 3584 1831 3584 
Q 2591 3584 2966 3190 
Q 3341 2797 3341 1997 
z
" transform="scale(0.015625)"/>
       <path id="DejaVuSans-78" d="M 3513 3500 
L 2247 1797 
L 3578 0 
L 2900 0 
L 1881 1375 
L 863 0 
L 184 0 
L 1544 1831 
L 300 3500 
L 978 3500 
L 1906 2253 
L 2834 3500 
L 3513 3500 
z
" transform="scale(0.015625)"/>
       <path id="DejaVuSans-69" d="M 603 3500 
L 1178 3500 
L 1178 0 
L 603 0 
L 603 3500 
z
M 603 4863 
L 1178 4863 
L 1178 4134 
L 603 4134 
L 603 4863 
z
" transform="scale(0.015625)"/>
       <path id="DejaVuSans-6d" d="M 3328 2828 
Q 3544 3216 3844 3400 
Q 4144 3584 4550 3584 
Q 5097 3584 5394 3201 
Q 5691 2819 5691 2113 
L 5691 0 
L 5113 0 
L 5113 2094 
Q 5113 2597 4934 2840 
Q 4756 3084 4391 3084 
Q 3944 3084 3684 2787 
Q 3425 2491 3425 1978 
L 3425 0 
L 2847 0 
L 2847 2094 
Q 2847 2600 2669 2842 
Q 2491 3084 2119 3084 
Q 1678 3084 1418 2786 
Q 1159 2488 1159 1978 
L 1159 0 
L 581 0 
L 581 3500 
L 1159 3500 
L 1159 2956 
Q 1356 3278 1631 3431 
Q 1906 3584 2284 3584 
Q 2666 3584 2933 3390 
Q 3200 3197 3328 2828 
z
" transform="scale(0.015625)"/>
       <path id="DejaVuSans-75" d="M 544 1381 
L 544 3500 
L 1119 3500 
L 1119 1403 
Q 1119 906 1312 657 
Q 1506 409 1894 409 
Q 2359 409 2629 706 
Q 2900 1003 2900 1516 
L 2900 3500 
L 3475 3500 
L 3475 0 
L 2900 0 
L 2900 538 
Q 2691 219 2414 64 
Q 2138 -91 1772 -91 
Q 1169 -91 856 284 
Q 544 659 544 1381 
z
M 1991 3584 
L 1991 3584 
z
" transform="scale(0.015625)"/>
       <path id="DejaVuSans-20" transform="scale(0.015625)"/>
       <path id="DejaVuSans-6c" d="M 603 4863 
L 1178 4863 
L 1178 0 
L 603 0 
L 603 4863 
z
" transform="scale(0.015625)"/>
       <path id="DejaVuSans-74" d="M 1172 4494 
L 1172 3500 
L 2356 3500 
L 2356 3053 
L 1172 3053 
L 1172 1153 
Q 1172 725 1289 603 
Q 1406 481 1766 481 
L 2356 481 
L 2356 0 
L 1766 0 
Q 1100 0 847 248 
Q 594 497 594 1153 
L 594 3053 
L 172 3053 
L 172 3500 
L 594 3500 
L 594 4494 
L 1172 4494 
z
" transform="scale(0.015625)"/>
       <path id="DejaVuSans-65" d="M 3597 1894 
L 3597 1613 
L 953 1613 
Q 991 1019 1311 708 
Q 1631 397 2203 397 
Q 2534 397 2845 478 
Q 3156 559 3463 722 
L 3463 178 
Q 3153 47 2828 -22 
Q 2503 -91 2169 -91 
Q 1331 -91 842 396 
Q 353 884 353 1716 
Q 353 2575 817 3079 
Q 1281 3584 2069 3584 
Q 2775 3584 3186 3129 
Q 3597 2675 3597 1894 
z
M 3022 2063 
Q 3016 2534 2758 2815 
Q 2500 3097 2075 3097 
Q 1594 3097 1305 2825 
Q 1016 2553 972 2059 
L 3022 2063 
z
" transform="scale(0.015625)"/>
       <path id="DejaVuSans-6e" d="M 3513 2113 
L 3513 0 
L 2938 0 
L 2938 2094 
Q 2938 2591 2744 2837 
Q 2550 3084 2163 3084 
Q 1697 3084 1428 2787 
Q 1159 2491 1159 1978 
L 1159 0 
L 581 0 
L 581 3500 
L 1159 3500 
L 1159 2956 
Q 1366 3272 1645 3428 
Q 1925 3584 2291 3584 
Q 2894 3584 3203 3211 
Q 3513 2838 3513 2113 
z
" transform="scale(0.015625)"/>
       <path id="DejaVuSans-63" d="M 3122 3366 
L 3122 2828 
Q 2878 2963 2633 3030 
Q 2388 3097 2138 3097 
Q 1578 3097 1268 2742 
Q 959 2388 959 1747 
Q 959 1106 1268 751 
Q 1578 397 2138 397 
Q 2388 397 2633 464 
Q 2878 531 3122 666 
L 3122 134 
Q 2881 22 2623 -34 
Q 2366 -91 2075 -91 
Q 1284 -91 818 406 
Q 353 903 353 1747 
Q 353 2603 823 3093 
Q 1294 3584 2113 3584 
Q 2378 3584 2631 3529 
Q 2884 3475 3122 3366 
z
" transform="scale(0.015625)"/>
       <path id="DejaVuSans-79" d="M 2059 -325 
Q 1816 -950 1584 -1140 
Q 1353 -1331 966 -1331 
L 506 -1331 
L 506 -850 
L 844 -850 
Q 1081 -850 1212 -737 
Q 1344 -625 1503 -206 
L 1606 56 
L 191 3500 
L 800 3500 
L 1894 763 
L 2988 3500 
L 3597 3500 
L 2059 -325 
z
" transform="scale(0.015625)"/>
       <path id="DejaVuSans-3a" d="M 750 794 
L 1409 794 
L 1409 0 
L 750 0 
L 750 794 
z
M 750 3309 
L 1409 3309 
L 1409 2516 
L 750 2516 
L 750 3309 
z
" transform="scale(0.015625)"/>
       <path id="DejaVuSans-37" d="M 525 4666 
L 3525 4666 
L 3525 4397 
L 1831 0 
L 1172 0 
L 2766 4134 
L 525 4134 
L 525 4666 
z
" transform="scale(0.015625)"/>
       <path id="DejaVuSans-b5" d="M 544 -1331 
L 544 3500 
L 1119 3500 
L 1119 1325 
Q 1119 872 1334 640 
Q 1550 409 1972 409 
Q 2434 409 2667 671 
Q 2900 934 2900 1459 
L 2900 3500 
L 3475 3500 
L 3475 806 
Q 3475 619 3529 530 
Q 3584 441 3700 441 
Q 3728 441 3778 458 
Q 3828 475 3916 513 
L 3916 50 
Q 3788 -22 3673 -56 
Q 3559 -91 3450 -91 
Q 3234 -91 3106 31 
Q 2978 153 2931 403 
Q 2775 156 2548 32 
Q 2322 -91 2016 -91 
Q 1697 -91 1473 31 
Q 1250 153 1119 397 
L 1119 -1331 
L 544 -1331 
z
" transform="scale(0.015625)"/>
       <path id="DejaVuSans-73" d="M 2834 3397 
L 2834 2853 
Q 2591 2978 2328 3040 
Q 2066 3103 1784 3103 
Q 1356 3103 1142 2972 
Q 928 2841 928 2578 
Q 928 2378 1081 2264 
Q 1234 2150 1697 2047 
L 1894 2003 
Q 2506 1872 2764 1633 
Q 3022 1394 3022 966 
Q 3022 478 2636 193 
Q 2250 -91 1575 -91 
Q 1294 -91 989 -36 
Q 684 19 347 128 
L 347 722 
Q 666 556 975 473 
Q 1284 391 1588 391 
Q 1994 391 2212 530 
Q 2431 669 2431 922 
Q 2431 1156 2273 1281 
Q 2116 1406 1581 1522 
L 1381 1569 
Q 847 1681 609 1914 
Q 372 2147 372 2553 
Q 372 3047 722 3315 
Q 1072 3584 1716 3584 
Q 2034 3584 2315 3537 
Q 2597 3491 2834 3397 
z
" transform="scale(0.015625)"/>
       <path id="DejaVuSans-2c" d="M 750 794 
L 1409 794 
L 1409 256 
L 897 -744 
L 494 -744 
L 750 256 
L 750 794 
z
" transform="scale(0.015625)"/>
       <path id="DejaVuSans-77" d="M 269 3500 
L 844 3500 
L 1563 769 
L 2278 3500 
L 2956 3500 
L 3675 769 
L 4391 3500 
L 4966 3500 
L 4050 0 
L 3372 0 
L 2619 2869 
L 1863 0 
L 1184 0 
L 269 3500 
z
" transform="scale(0.015625)"/>
       <path id="DejaVuSans-68" d="M 3513 2113 
L 3513 0 
L 2938 0 
L 2938 2094 
Q 2938 2591 2744 2837 
Q 2550 3084 2163 3084 
Q 1697 3084 1428 2787 
Q 1159 2491 1159 1978 
L 1159 0 
L 581 0 
L 581 4863 
L 1159 4863 
L 1159 2956 
Q 1366 3272 1645 3428 
Q 1925 3584 2291 3584 
Q 2894 3584 3203 3211 
Q 3513 2838 3513 2113 
z
" transform="scale(0.015625)"/>
       <path id="DejaVuSans-22" d="M 1147 4666 
L 1147 2931 
L 616 2931 
L 616 4666 
L 1147 4666 
z
M 2328 4666 
L 2328 2931 
L 1797 2931 
L 1797 4666 
L 2328 4666 
z
" transform="scale(0.015625)"/>
       <path id="DejaVuSans-2d" d="M 313 2009 
L 1997 2009 
L 1997 1497 
L 313 1497 
L 313 2009 
z
" transform="scale(0.015625)"/>
       <path id="DejaVuSans-53" d="M 3425 4513 
L 3425 3897 
Q 3066 4069 2747 4153 
Q 2428 4238 2131 4238 
Q 1616 4238 1336 4038 
Q 1056 3838 1056 3469 
Q 1056 3159 1242 3001 
Q 1428 2844 1947 2747 
L 2328 2669 
Q 3034 2534 3370 2195 
Q 3706 1856 3706 1288 
Q 3706 609 3251 259 
Q 2797 -91 1919 -91 
Q 1588 -91 1214 -16 
Q 841 59 441 206 
L 441 856 
Q 825 641 1194 531 
Q 1563 422 1919 422 
Q 2459 422 2753 634 
Q 3047 847 3047 1241 
Q 3047 1584 2836 1778 
Q 2625 1972 2144 2069 
L 1759 2144 
Q 1053 2284 737 2584 
Q 422 2884 422 3419 
Q 422 4038 858 4394 
Q 1294 4750 2059 4750 
Q 2388 4750 2728 4690 
Q 3069 4631 3425 4513 
z
" transform="scale(0.015625)"/>
       <path id="DejaVuSans-70" d="M 1159 525 
L 1159 -1331 
L 581 -1331 
L 581 3500 
L 1159 3500 
L 1159 2969 
Q 1341 3281 1617 3432 
Q 1894 3584 2278 3584 
Q 2916 3584 3314 3078 
Q 3713 2572 3713 1747 
Q 3713 922 3314 415 
Q 2916 -91 2278 -91 
Q 1894 -91 1617 61 
Q 1341 213 1159 525 
z
M 3116 1747 
Q 3116 2381 2855 2742 
Q 2594 3103 2138 3103 
Q 1681 3103 1420 2742 
Q 1159 2381 1159 1747 
Q 1159 1113 1420 752 
Q 1681 391 2138 391 
Q 2594 391 2855 752 
Q 3116 1113 3116 1747 
z
" transform="scale(0.015625)"/>
       <path id="DejaVuSans-39" d="M 703 97 
L 703 672 
Q 941 559 1184 500 
Q 1428 441 1663 441 
Q 2288 441 2617 861 
Q 2947 1281 2994 2138 
Q 2813 1869 2534 1725 
Q 2256 1581 1919 1581 
Q 1219 1581 811 2004 
Q 403 2428 403 3163 
Q 403 3881 828 4315 
Q 1253 4750 1959 4750 
Q 2769 4750 3195 4129 
Q 3622 3509 3622 2328 
Q 3622 1225 3098 567 
Q 2575 -91 1691 -91 
Q 1453 -91 1209 -44 
Q 966 3 703 97 
z
M 1959 2075 
Q 2384 2075 2632 2365 
Q 2881 2656 2881 3163 
Q 2881 3666 2632 3958 
Q 2384 4250 1959 4250 
Q 1534 4250 1286 3958 
Q 1038 3666 1038 3163 
Q 1038 2656 1286 2365 
Q 1534 2075 1959 2075 
z
" transform="scale(0.015625)"/>
       <path id="DejaVuSans-71" d="M 947 1747 
Q 947 1113 1208 752 
Q 1469 391 1925 391 
Q 2381 391 2643 752 
Q 2906 1113 2906 1747 
Q 2906 2381 2643 2742 
Q 2381 3103 1925 3103 
Q 1469 3103 1208 2742 
Q 947 2381 947 1747 
z
M 2906 525 
Q 2725 213 2448 61 
Q 2172 -91 1784 -91 
Q 1150 -91 751 415 
Q 353 922 353 1747 
Q 353 2572 751 3078 
Q 1150 3584 1784 3584 
Q 2172 3584 2448 3432 
Q 2725 3281 2906 2969 
L 2906 3500 
L 3481 3500 
L 3481 -1331 
L 2906 -1331 
L 2906 525 
z
" transform="scale(0.015625)"/>
       <path id="DejaVuSans-6f" d="M 1959 3097 
Q 1497 3097 1228 2736 
Q 959 2375 959 1747 
Q 959 1119 1226 758 
Q 1494 397 1959 397 
Q 2419 397 2687 759 
Q 2956 1122 2956 1747 
Q 2956 2369 2687 2733 
Q 2419 3097 1959 3097 
z
M 1959 3584 
Q 2709 3584 3137 3096 
Q 3566 2609 3566 1747 
Q 3566 888 3137 398 
Q 2709 -91 1959 -91 
Q 1206 -91 779 398 
Q 353 888 353 1747 
Q 353 2609 779 3096 
Q 1206 3584 1959 3584 
z
" transform="scale(0.015625)"/>
       <path id="DejaVuSans-36" d="M 2113 2584 
Q 1688 2584 1439 2293 
Q 1191 2003 1191 1497 
Q 1191 994 1439 701 
Q 1688 409 2113 409 
Q 2538 409 2786 701 
Q 3034 994 3034 1497 
Q 3034 2003 2786 2293 
Q 2538 2584 2113 2584 
z
M 3366 4563 
L 3366 3988 
Q 3128 4100 2886 4159 
Q 2644 4219 2406 4219 
Q 1781 4219 1451 3797 
Q 1122 3375 1075 2522 
Q 1259 2794 1537 2939 
Q 1816 3084 2150 3084 
Q 2853 3084 3261 2657 
Q 3669 2231 3669 1497 
Q 3669 778 3244 343 
Q 2819 -91 2113 -91 
Q 1303 -91 875 529 
Q 447 1150 447 2328 
Q 447 3434 972 4092 
Q 1497 4750 2381 4750 
Q 2619 4750 2861 4703 
Q 3103 4656 3366 4563 
z
" transform="scale(0.015625)"/>
      </defs>
      <use xlink:href="#DejaVuSans-4d"/>
      <use xlink:href="#DejaVuSans-61" x="86.279297"/>
      <use xlink:href="#DejaVuSans-78" x="147.558594"/>
      <use xlink:href="#DejaVuSans-69" x="206.738281"/>
      <use xlink:href="#DejaVuSans-6d" x="234.521484"/>
      <use xlink:href="#DejaVuSans-75" x="331.933594"/>
      <use xlink:href="#DejaVuSans-6d" x="395.3125"/>
      <use xlink:href="#DejaVuSans-20" x="492.724609"/>
      <use xlink:href="#DejaVuSans-6c" x="524.511719"/>
      <use xlink:href="#DejaVuSans-61" x="552.294922"/>
      <use xlink:href="#DejaVuSans-74" x="613.574219"/>
      <use xlink:href="#DejaVuSans-65" x="652.783203"/>
      <use xlink:href="#DejaVuSans-6e" x="714.306641"/>
      <use xlink:href="#DejaVuSans-63" x="777.685547"/>
      <use xlink:href="#DejaVuSans-79" x="832.666016"/>
      <use xlink:href="#DejaVuSans-3a" x="884.595703"/>
      <use xlink:href="#DejaVuSans-20" x="918.287109"/>
      <use xlink:href="#DejaVuSans-32" x="950.074219"/>
      <use xlink:href="#DejaVuSans-37" x="1013.697266"/>
      <use xlink:href="#DejaVuSans-20" x="1077.320312"/>
      <use xlink:href="#DejaVuSans-b5" x="1109.107422"/>
      <use xlink:href="#DejaVuSans-73" x="1172.730469"/>
      <use xlink:href="#DejaVuSans-2c" x="1224.830078"/>
      <use xlink:href="#DejaVuSans-20" x="1256.617188"/>
      <use xlink:href="#DejaVuSans-77" x="1288.404297"/>
      <use xlink:href="#DejaVuSans-69" x="1370.191406"/>
      <use xlink:href="#DejaVuSans-74" x="1397.974609"/>
      <use xlink:href="#DejaVuSans-68" x="1437.183594"/>
      <use xlink:href="#DejaVuSans-20" x="1500.5625"/>
      <use xlink:href="#DejaVuSans-22" x="1532.349609"/>
      <use xlink:href="#DejaVuSans-63" x="1578.345703"/>
      <use xlink:href="#DejaVuSans-79" x="1633.326172"/>
      <use xlink:href="#DejaVuSans-63" x="1692.505859"/>
      <use xlink:href="#DejaVuSans-6c" x="1747.486328"/>
      <use xlink:href="#DejaVuSans-69" x="1775.269531"/>
      <use xlink:href="#DejaVuSans-63" x="1803.052734"/>
      <use xlink:href="#DejaVuSans-74" x="1858.033203"/>
      <use xlink:href="#DejaVuSans-65" x="1897.242188"/>
      <use xlink:href="#DejaVuSans-73" x="1958.765625"/>
      <use xlink:href="#DejaVuSans-74" x="2010.865234"/>
      <use xlink:href="#DejaVuSans-20" x="2050.074219"/>
      <use xlink:href="#DejaVuSans-2d" x="2081.861328"/>
      <use xlink:href="#DejaVuSans-6c" x="2117.945312"/>
      <use xlink:href="#DejaVuSans-31" x="2145.728516"/>
      <use xlink:href="#DejaVuSans-30" x="2209.351562"/>
      <use xlink:href="#DejaVuSans-30" x="2272.974609"/>
      <use xlink:href="#DejaVuSans-30" x="2336.597656"/>
      <use xlink:href="#DejaVuSans-30" x="2400.220703"/>
      <use xlink:href="#DejaVuSans-30" x="2463.84375"/>
      <use xlink:href="#DejaVuSans-30" x="2527.466797"/>
      <use xlink:href="#DejaVuSans-30" x="2591.089844"/>
      <use xlink:href="#DejaVuSans-30" x="2654.712891"/>
      <use xlink:href="#DejaVuSans-20" x="2718.335938"/>
      <use xlink:href="#DejaVuSans-2d" x="2750.123047"/>
      <use xlink:href="#DejaVuSans-6d" x="2786.207031"/>
      <use xlink:href="#DejaVuSans-20" x="2883.619141"/>
      <use xlink:href="#DejaVuSans-2d" x="2915.40625"/>
      <use xlink:href="#DejaVuSans-53" x="2951.490234"/>
      <use xlink:href="#DejaVuSans-70" x="3014.966797"/>
      <use xlink:href="#DejaVuSans-39" x="3078.443359"/>
      <use xlink:href="#DejaVuSans-39" x="3142.066406"/>
      <use xlink:href="#DejaVuSans-20" x="3205.689453"/>
      <use xlink:href="#DejaVuSans-2d" x="3237.476562"/>
      <use xlink:href="#DejaVuSans-69" x="3273.560547"/>
      <use xlink:href="#DejaVuSans-32" x="3301.34375"/>
      <use xlink:href="#DejaVuSans-30" x="3364.966797"/>
      <use xlink:href="#DejaVuSans-30" x="3428.589844"/>
      <use xlink:href="#DejaVuSans-20" x="3492.212891"/>
      <use xlink:href="#DejaVuSans-2d" x="3524"/>
      <use xlink:href="#DejaVuSans-68" x="3560.083984"/>
      <use xlink:href="#DejaVuSans-34" x="3623.462891"/>
      <use xlink:href="#DejaVuSans-30" x="3687.085938"/>
      <use xlink:href="#DejaVuSans-30" x="3750.708984"/>
      <use xlink:href="#DejaVuSans-20" x="3814.332031"/>
      <use xlink:href="#DejaVuSans-2d" x="3846.119141"/>
      <use xlink:href="#DejaVuSans-2d" x="3882.203125"/>
      <use xlink:href="#DejaVuSans-73" x="3918.287109"/>
      <use xlink:href="#DejaVuSans-6d" x="3970.386719"/>
      <use xlink:href="#DejaVuSans-69" x="4067.798828"/>
      <use xlink:href="#DejaVuSans-20" x="4095.582031"/>
      <use xlink:href="#DejaVuSans-2d" x="4127.369141"/>
      <use xlink:href="#DejaVuSans-71" x="4163.453125"/>
      <use xlink:href="#DejaVuSans-22" x="4226.929688"/>
      <use xlink:href="#DejaVuSans-20" x="4272.925781"/>
      <use xlink:href="#DejaVuSans-6f" x="4304.712891"/>
      <use xlink:href="#DejaVuSans-6e" x="4365.894531"/>
      <use xlink:href="#DejaVuSans-20" x="4429.273438"/>
      <use xlink:href="#DejaVuSans-32" x="4461.060547"/>
      <use xlink:href="#DejaVuSans-30" x="4524.683594"/>
      <use xlink:href="#DejaVuSans-32" x="4588.306641"/>
      <use xlink:href="#DejaVuSans-33" x="4651.929688"/>
      <use xlink:href="#DejaVuSans-2d" x="4715.552734"/>
      <use xlink:href="#DejaVuSans-30" x="4751.636719"/>
      <use xlink:href="#DejaVuSans-36" x="4815.259766"/>
      <use xlink:href="#DejaVuSans-2d" x="4878.882812"/>
      <use xlink:href="#DejaVuSans-31" x="4914.966797"/>
      <use xlink:href="#DejaVuSans-37" x="4978.589844"/>
     </g>
    </g>
   </g>
   <g id="matplotlib.axis_2">
    <g id="ytick_1">
     <g id="line2d_10">
      <defs>
       <path id="mec9fdfba31" d="M 0 0 
L -3.5 0 
" style="stroke: #000000; stroke-width: 0.8"/>
      </defs>
      <g>
       <use xlink:href="#mec9fdfba31" x="144" y="570.748065" style="stroke: #000000; stroke-width: 0.8"/>
      </g>
     </g>
     <g id="text_11">
      <!-- $\mathdefault{10^{0}}$ -->
      <g transform="translate(119.4 574.547284)scale(0.1 -0.1)">
       <use xlink:href="#DejaVuSans-31" transform="translate(0 0.765625)"/>
       <use xlink:href="#DejaVuSans-30" transform="translate(63.623047 0.765625)"/>
       <use xlink:href="#DejaVuSans-30" transform="translate(128.203125 39.046875)scale(0.7)"/>
      </g>
     </g>
    </g>
    <g id="ytick_2">
     <g id="line2d_11">
      <g>
       <use xlink:href="#mec9fdfba31" x="144" y="509.124557" style="stroke: #000000; stroke-width: 0.8"/>
      </g>
     </g>
     <g id="text_12">
      <!-- $\mathdefault{10^{1}}$ -->
      <g transform="translate(119.4 512.923776)scale(0.1 -0.1)">
       <use xlink:href="#DejaVuSans-31" transform="translate(0 0.684375)"/>
       <use xlink:href="#DejaVuSans-30" transform="translate(63.623047 0.684375)"/>
       <use xlink:href="#DejaVuSans-31" transform="translate(128.203125 38.965625)scale(0.7)"/>
      </g>
     </g>
    </g>
    <g id="ytick_3">
     <g id="line2d_12">
      <g>
       <use xlink:href="#mec9fdfba31" x="144" y="447.501049" style="stroke: #000000; stroke-width: 0.8"/>
      </g>
     </g>
     <g id="text_13">
      <!-- $\mathdefault{10^{2}}$ -->
      <g transform="translate(119.4 451.300268)scale(0.1 -0.1)">
       <use xlink:href="#DejaVuSans-31" transform="translate(0 0.765625)"/>
       <use xlink:href="#DejaVuSans-30" transform="translate(63.623047 0.765625)"/>
       <use xlink:href="#DejaVuSans-32" transform="translate(128.203125 39.046875)scale(0.7)"/>
      </g>
     </g>
    </g>
    <g id="ytick_4">
     <g id="line2d_13">
      <g>
       <use xlink:href="#mec9fdfba31" x="144" y="385.877541" style="stroke: #000000; stroke-width: 0.8"/>
      </g>
     </g>
     <g id="text_14">
      <!-- $\mathdefault{10^{3}}$ -->
      <g transform="translate(119.4 389.676759)scale(0.1 -0.1)">
       <use xlink:href="#DejaVuSans-31" transform="translate(0 0.765625)"/>
       <use xlink:href="#DejaVuSans-30" transform="translate(63.623047 0.765625)"/>
       <use xlink:href="#DejaVuSans-33" transform="translate(128.203125 39.046875)scale(0.7)"/>
      </g>
     </g>
    </g>
    <g id="ytick_5">
     <g id="line2d_14">
      <g>
       <use xlink:href="#mec9fdfba31" x="144" y="324.254033" style="stroke: #000000; stroke-width: 0.8"/>
      </g>
     </g>
     <g id="text_15">
      <!-- $\mathdefault{10^{4}}$ -->
      <g transform="translate(119.4 328.053251)scale(0.1 -0.1)">
       <use xlink:href="#DejaVuSans-31" transform="translate(0 0.684375)"/>
       <use xlink:href="#DejaVuSans-30" transform="translate(63.623047 0.684375)"/>
       <use xlink:href="#DejaVuSans-34" transform="translate(128.203125 38.965625)scale(0.7)"/>
      </g>
     </g>
    </g>
    <g id="ytick_6">
     <g id="line2d_15">
      <g>
       <use xlink:href="#mec9fdfba31" x="144" y="262.630524" style="stroke: #000000; stroke-width: 0.8"/>
      </g>
     </g>
     <g id="text_16">
      <!-- $\mathdefault{10^{5}}$ -->
      <g transform="translate(119.4 266.429743)scale(0.1 -0.1)">
       <use xlink:href="#DejaVuSans-31" transform="translate(0 0.684375)"/>
       <use xlink:href="#DejaVuSans-30" transform="translate(63.623047 0.684375)"/>
       <use xlink:href="#DejaVuSans-35" transform="translate(128.203125 38.965625)scale(0.7)"/>
      </g>
     </g>
    </g>
    <g id="ytick_7">
     <g id="line2d_16">
      <g>
       <use xlink:href="#mec9fdfba31" x="144" y="201.007016" style="stroke: #000000; stroke-width: 0.8"/>
      </g>
     </g>
     <g id="text_17">
      <!-- $\mathdefault{10^{6}}$ -->
      <g transform="translate(119.4 204.806235)scale(0.1 -0.1)">
       <use xlink:href="#DejaVuSans-31" transform="translate(0 0.765625)"/>
       <use xlink:href="#DejaVuSans-30" transform="translate(63.623047 0.765625)"/>
       <use xlink:href="#DejaVuSans-36" transform="translate(128.203125 39.046875)scale(0.7)"/>
      </g>
     </g>
    </g>
    <g id="ytick_8">
     <g id="line2d_17">
      <g>
       <use xlink:href="#mec9fdfba31" x="144" y="139.383508" style="stroke: #000000; stroke-width: 0.8"/>
      </g>
     </g>
     <g id="text_18">
      <!-- $\mathdefault{10^{7}}$ -->
      <g transform="translate(119.4 143.182727)scale(0.1 -0.1)">
       <use xlink:href="#DejaVuSans-31" transform="translate(0 0.684375)"/>
       <use xlink:href="#DejaVuSans-30" transform="translate(63.623047 0.684375)"/>
       <use xlink:href="#DejaVuSans-37" transform="translate(128.203125 38.965625)scale(0.7)"/>
      </g>
     </g>
    </g>
    <g id="ytick_9">
     <g id="line2d_18">
      <g>
       <use xlink:href="#mec9fdfba31" x="144" y="77.76" style="stroke: #000000; stroke-width: 0.8"/>
      </g>
     </g>
     <g id="text_19">
      <!-- $\mathdefault{10^{8}}$ -->
      <g transform="translate(119.4 81.559219)scale(0.1 -0.1)">
       <defs>
        <path id="DejaVuSans-38" d="M 2034 2216 
Q 1584 2216 1326 1975 
Q 1069 1734 1069 1313 
Q 1069 891 1326 650 
Q 1584 409 2034 409 
Q 2484 409 2743 651 
Q 3003 894 3003 1313 
Q 3003 1734 2745 1975 
Q 2488 2216 2034 2216 
z
M 1403 2484 
Q 997 2584 770 2862 
Q 544 3141 544 3541 
Q 544 4100 942 4425 
Q 1341 4750 2034 4750 
Q 2731 4750 3128 4425 
Q 3525 4100 3525 3541 
Q 3525 3141 3298 2862 
Q 3072 2584 2669 2484 
Q 3125 2378 3379 2068 
Q 3634 1759 3634 1313 
Q 3634 634 3220 271 
Q 2806 -91 2034 -91 
Q 1263 -91 848 271 
Q 434 634 434 1313 
Q 434 1759 690 2068 
Q 947 2378 1403 2484 
z
M 1172 3481 
Q 1172 3119 1398 2916 
Q 1625 2713 2034 2713 
Q 2441 2713 2670 2916 
Q 2900 3119 2900 3481 
Q 2900 3844 2670 4047 
Q 2441 4250 2034 4250 
Q 1625 4250 1398 4047 
Q 1172 3844 1172 3481 
z
" transform="scale(0.015625)"/>
       </defs>
       <use xlink:href="#DejaVuSans-31" transform="translate(0 0.765625)"/>
       <use xlink:href="#DejaVuSans-30" transform="translate(63.623047 0.765625)"/>
       <use xlink:href="#DejaVuSans-38" transform="translate(128.203125 39.046875)scale(0.7)"/>
      </g>
     </g>
    </g>
    <g id="ytick_10">
     <g id="line2d_19">
      <defs>
       <path id="m6aad25f8f3" d="M 0 0 
L -2 0 
" style="stroke: #000000; stroke-width: 0.6"/>
      </defs>
      <g>
       <use xlink:href="#m6aad25f8f3" x="144" y="576.72" style="stroke: #000000; stroke-width: 0.6"/>
      </g>
     </g>
    </g>
    <g id="ytick_11">
     <g id="line2d_20">
      <g>
       <use xlink:href="#m6aad25f8f3" x="144" y="552.197541" style="stroke: #000000; stroke-width: 0.6"/>
      </g>
     </g>
    </g>
    <g id="ytick_12">
     <g id="line2d_21">
      <g>
       <use xlink:href="#m6aad25f8f3" x="144" y="533.647016" style="stroke: #000000; stroke-width: 0.6"/>
      </g>
     </g>
    </g>
    <g id="ytick_13">
     <g id="line2d_22">
      <g>
       <use xlink:href="#m6aad25f8f3" x="144" y="522.795655" style="stroke: #000000; stroke-width: 0.6"/>
      </g>
     </g>
    </g>
    <g id="ytick_14">
     <g id="line2d_23">
      <g>
       <use xlink:href="#m6aad25f8f3" x="144" y="515.096492" style="stroke: #000000; stroke-width: 0.6"/>
      </g>
     </g>
    </g>
    <g id="ytick_15">
     <g id="line2d_24">
      <g>
       <use xlink:href="#m6aad25f8f3" x="144" y="490.574033" style="stroke: #000000; stroke-width: 0.6"/>
      </g>
     </g>
    </g>
    <g id="ytick_16">
     <g id="line2d_25">
      <g>
       <use xlink:href="#m6aad25f8f3" x="144" y="472.023508" style="stroke: #000000; stroke-width: 0.6"/>
      </g>
     </g>
    </g>
    <g id="ytick_17">
     <g id="line2d_26">
      <g>
       <use xlink:href="#m6aad25f8f3" x="144" y="461.172147" style="stroke: #000000; stroke-width: 0.6"/>
      </g>
     </g>
    </g>
    <g id="ytick_18">
     <g id="line2d_27">
      <g>
       <use xlink:href="#m6aad25f8f3" x="144" y="453.472984" style="stroke: #000000; stroke-width: 0.6"/>
      </g>
     </g>
    </g>
    <g id="ytick_19">
     <g id="line2d_28">
      <g>
       <use xlink:href="#m6aad25f8f3" x="144" y="428.950524" style="stroke: #000000; stroke-width: 0.6"/>
      </g>
     </g>
    </g>
    <g id="ytick_20">
     <g id="line2d_29">
      <g>
       <use xlink:href="#m6aad25f8f3" x="144" y="410.4" style="stroke: #000000; stroke-width: 0.6"/>
      </g>
     </g>
    </g>
    <g id="ytick_21">
     <g id="line2d_30">
      <g>
       <use xlink:href="#m6aad25f8f3" x="144" y="399.548639" style="stroke: #000000; stroke-width: 0.6"/>
      </g>
     </g>
    </g>
    <g id="ytick_22">
     <g id="line2d_31">
      <g>
       <use xlink:href="#m6aad25f8f3" x="144" y="391.849476" style="stroke: #000000; stroke-width: 0.6"/>
      </g>
     </g>
    </g>
    <g id="ytick_23">
     <g id="line2d_32">
      <g>
       <use xlink:href="#m6aad25f8f3" x="144" y="367.327016" style="stroke: #000000; stroke-width: 0.6"/>
      </g>
     </g>
    </g>
    <g id="ytick_24">
     <g id="line2d_33">
      <g>
       <use xlink:href="#m6aad25f8f3" x="144" y="348.776492" style="stroke: #000000; stroke-width: 0.6"/>
      </g>
     </g>
    </g>
    <g id="ytick_25">
     <g id="line2d_34">
      <g>
       <use xlink:href="#m6aad25f8f3" x="144" y="337.925131" style="stroke: #000000; stroke-width: 0.6"/>
      </g>
     </g>
    </g>
    <g id="ytick_26">
     <g id="line2d_35">
      <g>
       <use xlink:href="#m6aad25f8f3" x="144" y="330.225967" style="stroke: #000000; stroke-width: 0.6"/>
      </g>
     </g>
    </g>
    <g id="ytick_27">
     <g id="line2d_36">
      <g>
       <use xlink:href="#m6aad25f8f3" x="144" y="305.703508" style="stroke: #000000; stroke-width: 0.6"/>
      </g>
     </g>
    </g>
    <g id="ytick_28">
     <g id="line2d_37">
      <g>
       <use xlink:href="#m6aad25f8f3" x="144" y="287.152984" style="stroke: #000000; stroke-width: 0.6"/>
      </g>
     </g>
    </g>
    <g id="ytick_29">
     <g id="line2d_38">
      <g>
       <use xlink:href="#m6aad25f8f3" x="144" y="276.301623" style="stroke: #000000; stroke-width: 0.6"/>
      </g>
     </g>
    </g>
    <g id="ytick_30">
     <g id="line2d_39">
      <g>
       <use xlink:href="#m6aad25f8f3" x="144" y="268.602459" style="stroke: #000000; stroke-width: 0.6"/>
      </g>
     </g>
    </g>
    <g id="ytick_31">
     <g id="line2d_40">
      <g>
       <use xlink:href="#m6aad25f8f3" x="144" y="244.08" style="stroke: #000000; stroke-width: 0.6"/>
      </g>
     </g>
    </g>
    <g id="ytick_32">
     <g id="line2d_41">
      <g>
       <use xlink:href="#m6aad25f8f3" x="144" y="225.529476" style="stroke: #000000; stroke-width: 0.6"/>
      </g>
     </g>
    </g>
    <g id="ytick_33">
     <g id="line2d_42">
      <g>
       <use xlink:href="#m6aad25f8f3" x="144" y="214.678114" style="stroke: #000000; stroke-width: 0.6"/>
      </g>
     </g>
    </g>
    <g id="ytick_34">
     <g id="line2d_43">
      <g>
       <use xlink:href="#m6aad25f8f3" x="144" y="206.978951" style="stroke: #000000; stroke-width: 0.6"/>
      </g>
     </g>
    </g>
    <g id="ytick_35">
     <g id="line2d_44">
      <g>
       <use xlink:href="#m6aad25f8f3" x="144" y="182.456492" style="stroke: #000000; stroke-width: 0.6"/>
      </g>
     </g>
    </g>
    <g id="ytick_36">
     <g id="line2d_45">
      <g>
       <use xlink:href="#m6aad25f8f3" x="144" y="163.905967" style="stroke: #000000; stroke-width: 0.6"/>
      </g>
     </g>
    </g>
    <g id="ytick_37">
     <g id="line2d_46">
      <g>
       <use xlink:href="#m6aad25f8f3" x="144" y="153.054606" style="stroke: #000000; stroke-width: 0.6"/>
      </g>
     </g>
    </g>
    <g id="ytick_38">
     <g id="line2d_47">
      <g>
       <use xlink:href="#m6aad25f8f3" x="144" y="145.355443" style="stroke: #000000; stroke-width: 0.6"/>
      </g>
     </g>
    </g>
    <g id="ytick_39">
     <g id="line2d_48">
      <g>
       <use xlink:href="#m6aad25f8f3" x="144" y="120.832984" style="stroke: #000000; stroke-width: 0.6"/>
      </g>
     </g>
    </g>
    <g id="ytick_40">
     <g id="line2d_49">
      <g>
       <use xlink:href="#m6aad25f8f3" x="144" y="102.282459" style="stroke: #000000; stroke-width: 0.6"/>
      </g>
     </g>
    </g>
    <g id="ytick_41">
     <g id="line2d_50">
      <g>
       <use xlink:href="#m6aad25f8f3" x="144" y="91.431098" style="stroke: #000000; stroke-width: 0.6"/>
      </g>
     </g>
    </g>
    <g id="ytick_42">
     <g id="line2d_51">
      <g>
       <use xlink:href="#m6aad25f8f3" x="144" y="83.731935" style="stroke: #000000; stroke-width: 0.6"/>
      </g>
     </g>
    </g>
    <g id="text_20">
     <!-- Number of samples per latency class -->
     <g transform="translate(113.320312 419.959531)rotate(-90)scale(0.1 -0.1)">
      <defs>
       <path id="DejaVuSans-4e" d="M 628 4666 
L 1478 4666 
L 3547 763 
L 3547 4666 
L 4159 4666 
L 4159 0 
L 3309 0 
L 1241 3903 
L 1241 0 
L 628 0 
L 628 4666 
z
" transform="scale(0.015625)"/>
       <path id="DejaVuSans-62" d="M 3116 1747 
Q 3116 2381 2855 2742 
Q 2594 3103 2138 3103 
Q 1681 3103 1420 2742 
Q 1159 2381 1159 1747 
Q 1159 1113 1420 752 
Q 1681 391 2138 391 
Q 2594 391 2855 752 
Q 3116 1113 3116 1747 
z
M 1159 2969 
Q 1341 3281 1617 3432 
Q 1894 3584 2278 3584 
Q 2916 3584 3314 3078 
Q 3713 2572 3713 1747 
Q 3713 922 3314 415 
Q 2916 -91 2278 -91 
Q 1894 -91 1617 61 
Q 1341 213 1159 525 
L 1159 0 
L 581 0 
L 581 4863 
L 1159 4863 
L 1159 2969 
z
" transform="scale(0.015625)"/>
       <path id="DejaVuSans-72" d="M 2631 2963 
Q 2534 3019 2420 3045 
Q 2306 3072 2169 3072 
Q 1681 3072 1420 2755 
Q 1159 2438 1159 1844 
L 1159 0 
L 581 0 
L 581 3500 
L 1159 3500 
L 1159 2956 
Q 1341 3275 1631 3429 
Q 1922 3584 2338 3584 
Q 2397 3584 2469 3576 
Q 2541 3569 2628 3553 
L 2631 2963 
z
" transform="scale(0.015625)"/>
       <path id="DejaVuSans-66" d="M 2375 4863 
L 2375 4384 
L 1825 4384 
Q 1516 4384 1395 4259 
Q 1275 4134 1275 3809 
L 1275 3500 
L 2222 3500 
L 2222 3053 
L 1275 3053 
L 1275 0 
L 697 0 
L 697 3053 
L 147 3053 
L 147 3500 
L 697 3500 
L 697 3744 
Q 697 4328 969 4595 
Q 1241 4863 1831 4863 
L 2375 4863 
z
" transform="scale(0.015625)"/>
      </defs>
      <use xlink:href="#DejaVuSans-4e"/>
      <use xlink:href="#DejaVuSans-75" x="74.804688"/>
      <use xlink:href="#DejaVuSans-6d" x="138.183594"/>
      <use xlink:href="#DejaVuSans-62" x="235.595703"/>
      <use xlink:href="#DejaVuSans-65" x="299.072266"/>
      <use xlink:href="#DejaVuSans-72" x="360.595703"/>
      <use xlink:href="#DejaVuSans-20" x="401.708984"/>
      <use xlink:href="#DejaVuSans-6f" x="433.496094"/>
      <use xlink:href="#DejaVuSans-66" x="494.677734"/>
      <use xlink:href="#DejaVuSans-20" x="529.882812"/>
      <use xlink:href="#DejaVuSans-73" x="561.669922"/>
      <use xlink:href="#DejaVuSans-61" x="613.769531"/>
      <use xlink:href="#DejaVuSans-6d" x="675.048828"/>
      <use xlink:href="#DejaVuSans-70" x="772.460938"/>
      <use xlink:href="#DejaVuSans-6c" x="835.9375"/>
      <use xlink:href="#DejaVuSans-65" x="863.720703"/>
      <use xlink:href="#DejaVuSans-73" x="925.244141"/>
      <use xlink:href="#DejaVuSans-20" x="977.34375"/>
      <use xlink:href="#DejaVuSans-70" x="1009.130859"/>
      <use xlink:href="#DejaVuSans-65" x="1072.607422"/>
      <use xlink:href="#DejaVuSans-72" x="1134.130859"/>
      <use xlink:href="#DejaVuSans-20" x="1175.244141"/>
      <use xlink:href="#DejaVuSans-6c" x="1207.03125"/>
      <use xlink:href="#DejaVuSans-61" x="1234.814453"/>
      <use xlink:href="#DejaVuSans-74" x="1296.09375"/>
      <use xlink:href="#DejaVuSans-65" x="1335.302734"/>
      <use xlink:href="#DejaVuSans-6e" x="1396.826172"/>
      <use xlink:href="#DejaVuSans-63" x="1460.205078"/>
      <use xlink:href="#DejaVuSans-79" x="1515.185547"/>
      <use xlink:href="#DejaVuSans-20" x="1574.365234"/>
      <use xlink:href="#DejaVuSans-63" x="1606.152344"/>
      <use xlink:href="#DejaVuSans-6c" x="1661.132812"/>
      <use xlink:href="#DejaVuSans-61" x="1688.916016"/>
      <use xlink:href="#DejaVuSans-73" x="1750.195312"/>
      <use xlink:href="#DejaVuSans-73" x="1802.294922"/>
     </g>
    </g>
   </g>
   <g id="patch_11">
    <path d="M 144 576.72 
L 144 77.76 
" style="fill: none; stroke: #000000; stroke-width: 0.8; stroke-linejoin: miter; stroke-linecap: square"/>
   </g>
   <g id="patch_12">
    <path d="M 1036.8 576.72 
L 1036.8 77.76 
" style="fill: none; stroke: #000000; stroke-width: 0.8; stroke-linejoin: miter; stroke-linecap: square"/>
   </g>
   <g id="patch_13">
    <path d="M 144 576.72 
L 1036.8 576.72 
" style="fill: none; stroke: #000000; stroke-width: 0.8; stroke-linejoin: miter; stroke-linecap: square"/>
   </g>
   <g id="patch_14">
    <path d="M 144 77.76 
L 1036.8 77.76 
" style="fill: none; stroke: #000000; stroke-width: 0.8; stroke-linejoin: miter; stroke-linecap: square"/>
   </g>
   <g id="text_21">
    <!-- Latency histogram of rack0slot0 with Intel Core i3-2100T (x86), patched kernel 4.14.28-rt23 -->
    <g transform="translate(267.296406 71.76)scale(0.14 -0.14)">
     <defs>
      <path id="DejaVuSans-4c" d="M 628 4666 
L 1259 4666 
L 1259 531 
L 3531 531 
L 3531 0 
L 628 0 
L 628 4666 
z
" transform="scale(0.015625)"/>
      <path id="DejaVuSans-67" d="M 2906 1791 
Q 2906 2416 2648 2759 
Q 2391 3103 1925 3103 
Q 1463 3103 1205 2759 
Q 947 2416 947 1791 
Q 947 1169 1205 825 
Q 1463 481 1925 481 
Q 2391 481 2648 825 
Q 2906 1169 2906 1791 
z
M 3481 434 
Q 3481 -459 3084 -895 
Q 2688 -1331 1869 -1331 
Q 1566 -1331 1297 -1286 
Q 1028 -1241 775 -1147 
L 775 -588 
Q 1028 -725 1275 -790 
Q 1522 -856 1778 -856 
Q 2344 -856 2625 -561 
Q 2906 -266 2906 331 
L 2906 616 
Q 2728 306 2450 153 
Q 2172 0 1784 0 
Q 1141 0 747 490 
Q 353 981 353 1791 
Q 353 2603 747 3093 
Q 1141 3584 1784 3584 
Q 2172 3584 2450 3431 
Q 2728 3278 2906 2969 
L 2906 3500 
L 3481 3500 
L 3481 434 
z
" transform="scale(0.015625)"/>
      <path id="DejaVuSans-6b" d="M 581 4863 
L 1159 4863 
L 1159 1991 
L 2875 3500 
L 3609 3500 
L 1753 1863 
L 3688 0 
L 2938 0 
L 1159 1709 
L 1159 0 
L 581 0 
L 581 4863 
z
" transform="scale(0.015625)"/>
      <path id="DejaVuSans-49" d="M 628 4666 
L 1259 4666 
L 1259 0 
L 628 0 
L 628 4666 
z
" transform="scale(0.015625)"/>
      <path id="DejaVuSans-43" d="M 4122 4306 
L 4122 3641 
Q 3803 3938 3442 4084 
Q 3081 4231 2675 4231 
Q 1875 4231 1450 3742 
Q 1025 3253 1025 2328 
Q 1025 1406 1450 917 
Q 1875 428 2675 428 
Q 3081 428 3442 575 
Q 3803 722 4122 1019 
L 4122 359 
Q 3791 134 3420 21 
Q 3050 -91 2638 -91 
Q 1578 -91 968 557 
Q 359 1206 359 2328 
Q 359 3453 968 4101 
Q 1578 4750 2638 4750 
Q 3056 4750 3426 4639 
Q 3797 4528 4122 4306 
z
" transform="scale(0.015625)"/>
      <path id="DejaVuSans-54" d="M -19 4666 
L 3928 4666 
L 3928 4134 
L 2272 4134 
L 2272 0 
L 1638 0 
L 1638 4134 
L -19 4134 
L -19 4666 
z
" transform="scale(0.015625)"/>
      <path id="DejaVuSans-28" d="M 1984 4856 
Q 1566 4138 1362 3434 
Q 1159 2731 1159 2009 
Q 1159 1288 1364 580 
Q 1569 -128 1984 -844 
L 1484 -844 
Q 1016 -109 783 600 
Q 550 1309 550 2009 
Q 550 2706 781 3412 
Q 1013 4119 1484 4856 
L 1984 4856 
z
" transform="scale(0.015625)"/>
      <path id="DejaVuSans-29" d="M 513 4856 
L 1013 4856 
Q 1481 4119 1714 3412 
Q 1947 2706 1947 2009 
Q 1947 1309 1714 600 
Q 1481 -109 1013 -844 
L 513 -844 
Q 928 -128 1133 580 
Q 1338 1288 1338 2009 
Q 1338 2731 1133 3434 
Q 928 4138 513 4856 
z
" transform="scale(0.015625)"/>
      <path id="DejaVuSans-64" d="M 2906 2969 
L 2906 4863 
L 3481 4863 
L 3481 0 
L 2906 0 
L 2906 525 
Q 2725 213 2448 61 
Q 2172 -91 1784 -91 
Q 1150 -91 751 415 
Q 353 922 353 1747 
Q 353 2572 751 3078 
Q 1150 3584 1784 3584 
Q 2172 3584 2448 3432 
Q 2725 3281 2906 2969 
z
M 947 1747 
Q 947 1113 1208 752 
Q 1469 391 1925 391 
Q 2381 391 2643 752 
Q 2906 1113 2906 1747 
Q 2906 2381 2643 2742 
Q 2381 3103 1925 3103 
Q 1469 3103 1208 2742 
Q 947 2381 947 1747 
z
" transform="scale(0.015625)"/>
      <path id="DejaVuSans-2e" d="M 684 794 
L 1344 794 
L 1344 0 
L 684 0 
L 684 794 
z
" transform="scale(0.015625)"/>
     </defs>
     <use xlink:href="#DejaVuSans-4c"/>
     <use xlink:href="#DejaVuSans-61" x="55.712891"/>
     <use xlink:href="#DejaVuSans-74" x="116.992188"/>
     <use xlink:href="#DejaVuSans-65" x="156.201172"/>
     <use xlink:href="#DejaVuSans-6e" x="217.724609"/>
     <use xlink:href="#DejaVuSans-63" x="281.103516"/>
     <use xlink:href="#DejaVuSans-79" x="336.083984"/>
     <use xlink:href="#DejaVuSans-20" x="395.263672"/>
     <use xlink:href="#DejaVuSans-68" x="427.050781"/>
     <use xlink:href="#DejaVuSans-69" x="490.429688"/>
     <use xlink:href="#DejaVuSans-73" x="518.212891"/>
     <use xlink:href="#DejaVuSans-74" x="570.3125"/>
     <use xlink:href="#DejaVuSans-6f" x="609.521484"/>
     <use xlink:href="#DejaVuSans-67" x="670.703125"/>
     <use xlink:href="#DejaVuSans-72" x="734.179688"/>
     <use xlink:href="#DejaVuSans-61" x="775.292969"/>
     <use xlink:href="#DejaVuSans-6d" x="836.572266"/>
     <use xlink:href="#DejaVuSans-20" x="933.984375"/>
     <use xlink:href="#DejaVuSans-6f" x="965.771484"/>
     <use xlink:href="#DejaVuSans-66" x="1026.953125"/>
     <use xlink:href="#DejaVuSans-20" x="1062.158203"/>
     <use xlink:href="#DejaVuSans-72" x="1093.945312"/>
     <use xlink:href="#DejaVuSans-61" x="1135.058594"/>
     <use xlink:href="#DejaVuSans-63" x="1196.337891"/>
     <use xlink:href="#DejaVuSans-6b" x="1251.318359"/>
     <use xlink:href="#DejaVuSans-30" x="1309.228516"/>
     <use xlink:href="#DejaVuSans-73" x="1372.851562"/>
     <use xlink:href="#DejaVuSans-6c" x="1424.951172"/>
     <use xlink:href="#DejaVuSans-6f" x="1452.734375"/>
     <use xlink:href="#DejaVuSans-74" x="1513.916016"/>
     <use xlink:href="#DejaVuSans-30" x="1553.125"/>
     <use xlink:href="#DejaVuSans-20" x="1616.748047"/>
     <use xlink:href="#DejaVuSans-77" x="1648.535156"/>
     <use xlink:href="#DejaVuSans-69" x="1730.322266"/>
     <use xlink:href="#DejaVuSans-74" x="1758.105469"/>
     <use xlink:href="#DejaVuSans-68" x="1797.314453"/>
     <use xlink:href="#DejaVuSans-20" x="1860.693359"/>
     <use xlink:href="#DejaVuSans-49" x="1892.480469"/>
     <use xlink:href="#DejaVuSans-6e" x="1921.972656"/>
     <use xlink:href="#DejaVuSans-74" x="1985.351562"/>
     <use xlink:href="#DejaVuSans-65" x="2024.560547"/>
     <use xlink:href="#DejaVuSans-6c" x="2086.083984"/>
     <use xlink:href="#DejaVuSans-20" x="2113.867188"/>
     <use xlink:href="#DejaVuSans-43" x="2145.654297"/>
     <use xlink:href="#DejaVuSans-6f" x="2215.478516"/>
     <use xlink:href="#DejaVuSans-72" x="2276.660156"/>
     <use xlink:href="#DejaVuSans-65" x="2315.523438"/>
     <use xlink:href="#DejaVuSans-20" x="2377.046875"/>
     <use xlink:href="#DejaVuSans-69" x="2408.833984"/>
     <use xlink:href="#DejaVuSans-33" x="2436.617188"/>
     <use xlink:href="#DejaVuSans-2d" x="2500.240234"/>
     <use xlink:href="#DejaVuSans-32" x="2536.324219"/>
     <use xlink:href="#DejaVuSans-31" x="2599.947266"/>
     <use xlink:href="#DejaVuSans-30" x="2663.570312"/>
     <use xlink:href="#DejaVuSans-30" x="2727.193359"/>
     <use xlink:href="#DejaVuSans-54" x="2790.816406"/>
     <use xlink:href="#DejaVuSans-20" x="2851.900391"/>
     <use xlink:href="#DejaVuSans-28" x="2883.6875"/>
     <use xlink:href="#DejaVuSans-78" x="2922.701172"/>
     <use xlink:href="#DejaVuSans-38" x="2981.880859"/>
     <use xlink:href="#DejaVuSans-36" x="3045.503906"/>
     <use xlink:href="#DejaVuSans-29" x="3109.126953"/>
     <use xlink:href="#DejaVuSans-2c" x="3148.140625"/>
     <use xlink:href="#DejaVuSans-20" x="3179.927734"/>
     <use xlink:href="#DejaVuSans-70" x="3211.714844"/>
     <use xlink:href="#DejaVuSans-61" x="3275.191406"/>
     <use xlink:href="#DejaVuSans-74" x="3336.470703"/>
     <use xlink:href="#DejaVuSans-63" x="3375.679688"/>
     <use xlink:href="#DejaVuSans-68" x="3430.660156"/>
     <use xlink:href="#DejaVuSans-65" x="3494.039062"/>
     <use xlink:href="#DejaVuSans-64" x="3555.5625"/>
     <use xlink:href="#DejaVuSans-20" x="3619.039062"/>
     <use xlink:href="#DejaVuSans-6b" x="3650.826172"/>
     <use xlink:href="#DejaVuSans-65" x="3705.111328"/>
     <use xlink:href="#DejaVuSans-72" x="3766.634766"/>
     <use xlink:href="#DejaVuSans-6e" x="3805.998047"/>
     <use xlink:href="#DejaVuSans-65" x="3869.376953"/>
     <use xlink:href="#DejaVuSans-6c" x="3930.900391"/>
     <use xlink:href="#DejaVuSans-20" x="3958.683594"/>
     <use xlink:href="#DejaVuSans-34" x="3990.470703"/>
     <use xlink:href="#DejaVuSans-2e" x="4054.09375"/>
     <use xlink:href="#DejaVuSans-31" x="4085.880859"/>
     <use xlink:href="#DejaVuSans-34" x="4149.503906"/>
     <use xlink:href="#DejaVuSans-2e" x="4213.126953"/>
     <use xlink:href="#DejaVuSans-32" x="4244.914062"/>
     <use xlink:href="#DejaVuSans-38" x="4308.537109"/>
     <use xlink:href="#DejaVuSans-2d" x="4372.160156"/>
     <use xlink:href="#DejaVuSans-72" x="4408.244141"/>
     <use xlink:href="#DejaVuSans-74" x="4449.357422"/>
     <use xlink:href="#DejaVuSans-32" x="4488.566406"/>
     <use xlink:href="#DejaVuSans-33" x="4552.189453"/>
    </g>
   </g>
   <g id="legend_1">
    <g id="patch_15">
     <path d="M 260.714062 115.11625 
L 1029.8 115.11625 
Q 1031.8 115.11625 1031.8 113.11625 
L 1031.8 84.76 
Q 1031.8 82.76 1029.8 82.76 
L 260.714062 82.76 
Q 258.714062 82.76 258.714062 84.76 
L 258.714062 113.11625 
Q 258.714062 115.11625 260.714062 115.11625 
z
" style="fill: #ffffff; opacity: 0.8; stroke: #cccccc; stroke-linejoin: miter"/>
    </g>
    <g id="line2d_52">
     <path d="M 262.714062 90.858437 
L 282.714062 90.858437 
" style="fill: none; stroke: #1f77b4; stroke-linecap: square"/>
    </g>
    <g id="text_22">
     <!-- Core #0:   21 µs -->
     <g transform="translate(290.714062 94.358437)scale(0.1 -0.1)">
      <defs>
       <path id="DejaVuSans-23" d="M 3272 2816 
L 2363 2816 
L 2100 1772 
L 3016 1772 
L 3272 2816 
z
M 2803 4594 
L 2478 3297 
L 3391 3297 
L 3719 4594 
L 4219 4594 
L 3897 3297 
L 4872 3297 
L 4872 2816 
L 3775 2816 
L 3519 1772 
L 4513 1772 
L 4513 1294 
L 3397 1294 
L 3072 0 
L 2572 0 
L 2894 1294 
L 1978 1294 
L 1656 0 
L 1153 0 
L 1478 1294 
L 494 1294 
L 494 1772 
L 1594 1772 
L 1856 2816 
L 850 2816 
L 850 3297 
L 1978 3297 
L 2297 4594 
L 2803 4594 
z
" transform="scale(0.015625)"/>
      </defs>
      <use xlink:href="#DejaVuSans-43"/>
      <use xlink:href="#DejaVuSans-6f" x="69.824219"/>
      <use xlink:href="#DejaVuSans-72" x="131.005859"/>
      <use xlink:href="#DejaVuSans-65" x="169.869141"/>
      <use xlink:href="#DejaVuSans-20" x="231.392578"/>
      <use xlink:href="#DejaVuSans-23" x="263.179688"/>
      <use xlink:href="#DejaVuSans-30" x="346.96875"/>
      <use xlink:href="#DejaVuSans-3a" x="410.591797"/>
      <use xlink:href="#DejaVuSans-20" x="444.283203"/>
      <use xlink:href="#DejaVuSans-20" x="476.070312"/>
      <use xlink:href="#DejaVuSans-20" x="507.857422"/>
      <use xlink:href="#DejaVuSans-32" x="539.644531"/>
      <use xlink:href="#DejaVuSans-31" x="603.267578"/>
      <use xlink:href="#DejaVuSans-20" x="666.890625"/>
      <use xlink:href="#DejaVuSans-b5" x="698.677734"/>
      <use xlink:href="#DejaVuSans-73" x="762.300781"/>
     </g>
    </g>
    <g id="line2d_53">
     <path d="M 262.714062 105.536562 
L 282.714062 105.536562 
" style="fill: none; stroke: #ff7f0e; stroke-linecap: square"/>
    </g>
    <g id="text_23">
     <!-- Core #1:   21 µs -->
     <g transform="translate(290.714062 109.036562)scale(0.1 -0.1)">
      <use xlink:href="#DejaVuSans-43"/>
      <use xlink:href="#DejaVuSans-6f" x="69.824219"/>
      <use xlink:href="#DejaVuSans-72" x="131.005859"/>
      <use xlink:href="#DejaVuSans-65" x="169.869141"/>
      <use xlink:href="#DejaVuSans-20" x="231.392578"/>
      <use xlink:href="#DejaVuSans-23" x="263.179688"/>
      <use xlink:href="#DejaVuSans-31" x="346.96875"/>
      <use xlink:href="#DejaVuSans-3a" x="410.591797"/>
      <use xlink:href="#DejaVuSans-20" x="444.283203"/>
      <use xlink:href="#DejaVuSans-20" x="476.070312"/>
      <use xlink:href="#DejaVuSans-20" x="507.857422"/>
      <use xlink:href="#DejaVuSans-32" x="539.644531"/>
      <use xlink:href="#DejaVuSans-31" x="603.267578"/>
      <use xlink:href="#DejaVuSans-20" x="666.890625"/>
      <use xlink:href="#DejaVuSans-b5" x="698.677734"/>
      <use xlink:href="#DejaVuSans-73" x="762.300781"/>
     </g>
    </g>
    <g id="line2d_54">
     <path d="M 392.153125 90.858437 
L 412.153125 90.858437 
" style="fill: none; stroke: #2ca02c; stroke-linecap: square"/>
    </g>
    <g id="text_24">
     <!-- Core #2:   26 µs -->
     <g transform="translate(420.153125 94.358437)scale(0.1 -0.1)">
      <use xlink:href="#DejaVuSans-43"/>
      <use xlink:href="#DejaVuSans-6f" x="69.824219"/>
      <use xlink:href="#DejaVuSans-72" x="131.005859"/>
      <use xlink:href="#DejaVuSans-65" x="169.869141"/>
      <use xlink:href="#DejaVuSans-20" x="231.392578"/>
      <use xlink:href="#DejaVuSans-23" x="263.179688"/>
      <use xlink:href="#DejaVuSans-32" x="346.96875"/>
      <use xlink:href="#DejaVuSans-3a" x="410.591797"/>
      <use xlink:href="#DejaVuSans-20" x="444.283203"/>
      <use xlink:href="#DejaVuSans-20" x="476.070312"/>
      <use xlink:href="#DejaVuSans-20" x="507.857422"/>
      <use xlink:href="#DejaVuSans-32" x="539.644531"/>
      <use xlink:href="#DejaVuSans-36" x="603.267578"/>
      <use xlink:href="#DejaVuSans-20" x="666.890625"/>
      <use xlink:href="#DejaVuSans-b5" x="698.677734"/>
      <use xlink:href="#DejaVuSans-73" x="762.300781"/>
     </g>
    </g>
    <g id="line2d_55">
     <path d="M 392.153125 105.536562 
L 412.153125 105.536562 
" style="fill: none; stroke: #d62728; stroke-linecap: square"/>
    </g>
    <g id="text_25">
     <!-- Core #3:   21 µs -->
     <g transform="translate(420.153125 109.036562)scale(0.1 -0.1)">
      <use xlink:href="#DejaVuSans-43"/>
      <use xlink:href="#DejaVuSans-6f" x="69.824219"/>
      <use xlink:href="#DejaVuSans-72" x="131.005859"/>
      <use xlink:href="#DejaVuSans-65" x="169.869141"/>
      <use xlink:href="#DejaVuSans-20" x="231.392578"/>
      <use xlink:href="#DejaVuSans-23" x="263.179688"/>
      <use xlink:href="#DejaVuSans-33" x="346.96875"/>
      <use xlink:href="#DejaVuSans-3a" x="410.591797"/>
      <use xlink:href="#DejaVuSans-20" x="444.283203"/>
      <use xlink:href="#DejaVuSans-20" x="476.070312"/>
      <use xlink:href="#DejaVuSans-20" x="507.857422"/>
      <use xlink:href="#DejaVuSans-32" x="539.644531"/>
      <use xlink:href="#DejaVuSans-31" x="603.267578"/>
      <use xlink:href="#DejaVuSans-20" x="666.890625"/>
      <use xlink:href="#DejaVuSans-b5" x="698.677734"/>
      <use xlink:href="#DejaVuSans-73" x="762.300781"/>
     </g>
    </g>
    <g id="line2d_56">
     <path d="M 521.592187 90.858437 
L 541.592187 90.858437 
" style="fill: none; stroke: #9467bd; stroke-linecap: square"/>
    </g>
    <g id="text_26">
     <!-- Core #4:   22 µs -->
     <g transform="translate(549.592187 94.358437)scale(0.1 -0.1)">
      <use xlink:href="#DejaVuSans-43"/>
      <use xlink:href="#DejaVuSans-6f" x="69.824219"/>
      <use xlink:href="#DejaVuSans-72" x="131.005859"/>
      <use xlink:href="#DejaVuSans-65" x="169.869141"/>
      <use xlink:href="#DejaVuSans-20" x="231.392578"/>
      <use xlink:href="#DejaVuSans-23" x="263.179688"/>
      <use xlink:href="#DejaVuSans-34" x="346.96875"/>
      <use xlink:href="#DejaVuSans-3a" x="410.591797"/>
      <use xlink:href="#DejaVuSans-20" x="444.283203"/>
      <use xlink:href="#DejaVuSans-20" x="476.070312"/>
      <use xlink:href="#DejaVuSans-20" x="507.857422"/>
      <use xlink:href="#DejaVuSans-32" x="539.644531"/>
      <use xlink:href="#DejaVuSans-32" x="603.267578"/>
      <use xlink:href="#DejaVuSans-20" x="666.890625"/>
      <use xlink:href="#DejaVuSans-b5" x="698.677734"/>
      <use xlink:href="#DejaVuSans-73" x="762.300781"/>
     </g>
    </g>
    <g id="line2d_57">
     <path d="M 651.03125 90.858437 
L 671.03125 90.858437 
" style="fill: none; stroke: #8c564b; stroke-linecap: square"/>
    </g>
    <g id="text_27">
     <!-- Core #5:   27 µs -->
     <g transform="translate(679.03125 94.358437)scale(0.1 -0.1)">
      <defs>
       <path id="DejaVuSans-Bold-43" d="M 4288 256 
Q 3956 84 3597 -3 
Q 3238 -91 2847 -91 
Q 1681 -91 1000 561 
Q 319 1213 319 2328 
Q 319 3447 1000 4098 
Q 1681 4750 2847 4750 
Q 3238 4750 3597 4662 
Q 3956 4575 4288 4403 
L 4288 3438 
Q 3953 3666 3628 3772 
Q 3303 3878 2944 3878 
Q 2300 3878 1931 3465 
Q 1563 3053 1563 2328 
Q 1563 1606 1931 1193 
Q 2300 781 2944 781 
Q 3303 781 3628 887 
Q 3953 994 4288 1222 
L 4288 256 
z
" transform="scale(0.015625)"/>
       <path id="DejaVuSans-Bold-6f" d="M 2203 2784 
Q 1831 2784 1636 2517 
Q 1441 2250 1441 1747 
Q 1441 1244 1636 976 
Q 1831 709 2203 709 
Q 2569 709 2762 976 
Q 2956 1244 2956 1747 
Q 2956 2250 2762 2517 
Q 2569 2784 2203 2784 
z
M 2203 3584 
Q 3106 3584 3614 3096 
Q 4122 2609 4122 1747 
Q 4122 884 3614 396 
Q 3106 -91 2203 -91 
Q 1297 -91 786 396 
Q 275 884 275 1747 
Q 275 2609 786 3096 
Q 1297 3584 2203 3584 
z
" transform="scale(0.015625)"/>
       <path id="DejaVuSans-Bold-72" d="M 3138 2547 
Q 2991 2616 2845 2648 
Q 2700 2681 2553 2681 
Q 2122 2681 1889 2404 
Q 1656 2128 1656 1613 
L 1656 0 
L 538 0 
L 538 3500 
L 1656 3500 
L 1656 2925 
Q 1872 3269 2151 3426 
Q 2431 3584 2822 3584 
Q 2878 3584 2943 3579 
Q 3009 3575 3134 3559 
L 3138 2547 
z
" transform="scale(0.015625)"/>
       <path id="DejaVuSans-Bold-65" d="M 4031 1759 
L 4031 1441 
L 1416 1441 
Q 1456 1047 1700 850 
Q 1944 653 2381 653 
Q 2734 653 3104 758 
Q 3475 863 3866 1075 
L 3866 213 
Q 3469 63 3072 -14 
Q 2675 -91 2278 -91 
Q 1328 -91 801 392 
Q 275 875 275 1747 
Q 275 2603 792 3093 
Q 1309 3584 2216 3584 
Q 3041 3584 3536 3087 
Q 4031 2591 4031 1759 
z
M 2881 2131 
Q 2881 2450 2695 2645 
Q 2509 2841 2209 2841 
Q 1884 2841 1681 2658 
Q 1478 2475 1428 2131 
L 2881 2131 
z
" transform="scale(0.015625)"/>
       <path id="DejaVuSans-Bold-20" transform="scale(0.015625)"/>
       <path id="DejaVuSans-Bold-23" d="M 2847 4594 
L 2547 3391 
L 3372 3391 
L 3675 4594 
L 4366 4594 
L 4063 3391 
L 4928 3391 
L 4928 2725 
L 3897 2725 
L 3681 1869 
L 4569 1869 
L 4569 1197 
L 3519 1197 
L 3219 0 
L 2528 0 
L 2828 1197 
L 2003 1197 
L 1703 0 
L 1006 0 
L 1306 1197 
L 434 1197 
L 434 1869 
L 1459 1869 
L 1678 2725 
L 794 2725 
L 794 3391 
L 1850 3391 
L 2150 4594 
L 2847 4594 
z
M 3200 2725 
L 2375 2725 
L 2156 1869 
L 2981 1869 
L 3200 2725 
z
" transform="scale(0.015625)"/>
       <path id="DejaVuSans-Bold-35" d="M 678 4666 
L 3669 4666 
L 3669 3781 
L 1638 3781 
L 1638 3059 
Q 1775 3097 1914 3117 
Q 2053 3138 2203 3138 
Q 3056 3138 3531 2711 
Q 4006 2284 4006 1522 
Q 4006 766 3489 337 
Q 2972 -91 2053 -91 
Q 1656 -91 1267 -14 
Q 878 63 494 219 
L 494 1166 
Q 875 947 1217 837 
Q 1559 728 1863 728 
Q 2300 728 2551 942 
Q 2803 1156 2803 1522 
Q 2803 1891 2551 2103 
Q 2300 2316 1863 2316 
Q 1603 2316 1309 2248 
Q 1016 2181 678 2041 
L 678 4666 
z
" transform="scale(0.015625)"/>
       <path id="DejaVuSans-Bold-3a" d="M 716 3500 
L 1844 3500 
L 1844 2291 
L 716 2291 
L 716 3500 
z
M 716 1209 
L 1844 1209 
L 1844 0 
L 716 0 
L 716 1209 
z
" transform="scale(0.015625)"/>
       <path id="DejaVuSans-Bold-32" d="M 1844 884 
L 3897 884 
L 3897 0 
L 506 0 
L 506 884 
L 2209 2388 
Q 2438 2594 2547 2791 
Q 2656 2988 2656 3200 
Q 2656 3528 2436 3728 
Q 2216 3928 1850 3928 
Q 1569 3928 1234 3808 
Q 900 3688 519 3450 
L 519 4475 
Q 925 4609 1322 4679 
Q 1719 4750 2100 4750 
Q 2938 4750 3402 4381 
Q 3866 4013 3866 3353 
Q 3866 2972 3669 2642 
Q 3472 2313 2841 1759 
L 1844 884 
z
" transform="scale(0.015625)"/>
       <path id="DejaVuSans-Bold-37" d="M 428 4666 
L 3944 4666 
L 3944 3988 
L 2125 0 
L 953 0 
L 2675 3781 
L 428 3781 
L 428 4666 
z
" transform="scale(0.015625)"/>
       <path id="DejaVuSans-Bold-b5" d="M 544 -1338 
L 544 3500 
L 1672 3500 
L 1672 1466 
Q 1672 1103 1828 926 
Q 1984 750 2303 750 
Q 2625 750 2781 926 
Q 2938 1103 2938 1466 
L 2938 3500 
L 4063 3500 
L 4063 1159 
Q 4063 938 4114 850 
Q 4166 763 4288 763 
Q 4344 763 4395 778 
Q 4447 794 4506 831 
L 4506 50 
Q 4341 -22 4195 -56 
Q 4050 -91 3909 -91 
Q 3631 -91 3454 26 
Q 3278 144 3169 403 
Q 3022 156 2811 32 
Q 2600 -91 2322 -91 
Q 2091 -91 1928 -17 
Q 1766 56 1672 206 
L 1672 -1338 
L 544 -1338 
z
" transform="scale(0.015625)"/>
       <path id="DejaVuSans-Bold-73" d="M 3272 3391 
L 3272 2541 
Q 2913 2691 2578 2766 
Q 2244 2841 1947 2841 
Q 1628 2841 1473 2761 
Q 1319 2681 1319 2516 
Q 1319 2381 1436 2309 
Q 1553 2238 1856 2203 
L 2053 2175 
Q 2913 2066 3209 1816 
Q 3506 1566 3506 1031 
Q 3506 472 3093 190 
Q 2681 -91 1863 -91 
Q 1516 -91 1145 -36 
Q 775 19 384 128 
L 384 978 
Q 719 816 1070 734 
Q 1422 653 1784 653 
Q 2113 653 2278 743 
Q 2444 834 2444 1013 
Q 2444 1163 2330 1236 
Q 2216 1309 1875 1350 
L 1678 1375 
Q 931 1469 631 1722 
Q 331 1975 331 2491 
Q 331 3047 712 3315 
Q 1094 3584 1881 3584 
Q 2191 3584 2531 3537 
Q 2872 3491 3272 3391 
z
" transform="scale(0.015625)"/>
      </defs>
      <use xlink:href="#DejaVuSans-Bold-43"/>
      <use xlink:href="#DejaVuSans-Bold-6f" x="73.388672"/>
      <use xlink:href="#DejaVuSans-Bold-72" x="142.089844"/>
      <use xlink:href="#DejaVuSans-Bold-65" x="191.40625"/>
      <use xlink:href="#DejaVuSans-Bold-20" x="259.228516"/>
      <use xlink:href="#DejaVuSans-Bold-23" x="294.042969"/>
      <use xlink:href="#DejaVuSans-Bold-35" x="377.832031"/>
      <use xlink:href="#DejaVuSans-Bold-3a" x="447.412109"/>
      <use xlink:href="#DejaVuSans-Bold-20" x="487.402344"/>
      <use xlink:href="#DejaVuSans-Bold-20" x="522.216797"/>
      <use xlink:href="#DejaVuSans-Bold-20" x="557.03125"/>
      <use xlink:href="#DejaVuSans-Bold-32" x="591.845703"/>
      <use xlink:href="#DejaVuSans-Bold-37" x="661.425781"/>
      <use xlink:href="#DejaVuSans-Bold-20" x="731.005859"/>
      <use xlink:href="#DejaVuSans-Bold-b5" x="765.820312"/>
      <use xlink:href="#DejaVuSans-Bold-73" x="839.404297"/>
     </g>
    </g>
    <g id="line2d_58">
     <path d="M 788.921875 90.858437 
L 808.921875 90.858437 
" style="fill: none; stroke: #e377c2; stroke-linecap: square"/>
    </g>
    <g id="text_28">
     <!-- Core #6:   25 µs -->
     <g transform="translate(816.921875 94.358437)scale(0.1 -0.1)">
      <use xlink:href="#DejaVuSans-43"/>
      <use xlink:href="#DejaVuSans-6f" x="69.824219"/>
      <use xlink:href="#DejaVuSans-72" x="131.005859"/>
      <use xlink:href="#DejaVuSans-65" x="169.869141"/>
      <use xlink:href="#DejaVuSans-20" x="231.392578"/>
      <use xlink:href="#DejaVuSans-23" x="263.179688"/>
      <use xlink:href="#DejaVuSans-36" x="346.96875"/>
      <use xlink:href="#DejaVuSans-3a" x="410.591797"/>
      <use xlink:href="#DejaVuSans-20" x="444.283203"/>
      <use xlink:href="#DejaVuSans-20" x="476.070312"/>
      <use xlink:href="#DejaVuSans-20" x="507.857422"/>
      <use xlink:href="#DejaVuSans-32" x="539.644531"/>
      <use xlink:href="#DejaVuSans-35" x="603.267578"/>
      <use xlink:href="#DejaVuSans-20" x="666.890625"/>
      <use xlink:href="#DejaVuSans-b5" x="698.677734"/>
      <use xlink:href="#DejaVuSans-73" x="762.300781"/>
     </g>
    </g>
    <g id="line2d_59">
     <path d="M 918.360937 90.858437 
L 938.360937 90.858437 
" style="fill: none; stroke: #7f7f7f; stroke-linecap: square"/>
    </g>
    <g id="text_29">
     <!-- Core #7:   22 µs -->
     <g transform="translate(946.360937 94.358437)scale(0.1 -0.1)">
      <use xlink:href="#DejaVuSans-43"/>
      <use xlink:href="#DejaVuSans-6f" x="69.824219"/>
      <use xlink:href="#DejaVuSans-72" x="131.005859"/>
      <use xlink:href="#DejaVuSans-65" x="169.869141"/>
      <use xlink:href="#DejaVuSans-20" x="231.392578"/>
      <use xlink:href="#DejaVuSans-23" x="263.179688"/>
      <use xlink:href="#DejaVuSans-37" x="346.96875"/>
      <use xlink:href="#DejaVuSans-3a" x="410.591797"/>
      <use xlink:href="#DejaVuSans-20" x="444.283203"/>
      <use xlink:href="#DejaVuSans-20" x="476.070312"/>
      <use xlink:href="#DejaVuSans-20" x="507.857422"/>
      <use xlink:href="#DejaVuSans-32" x="539.644531"/>
      <use xlink:href="#DejaVuSans-32" x="603.267578"/>
      <use xlink:href="#DejaVuSans-20" x="666.890625"/>
      <use xlink:href="#DejaVuSans-b5" x="698.677734"/>
      <use xlink:href="#DejaVuSans-73" x="762.300781"/>
     </g>
    </g>
   </g>
  </g>
 </g>
 <defs>
  <clipPath id="p05db0f68ca">
   <rect x="144" y="77.76" width="892.8" height="498.96"/>
  </clipPath>
 </defs>
</svg>
