<?xml version="1.0" encoding="UTF-8"?>
<svg version="1.1" viewBox="0 0 1152 648" xmlns="http://www.w3.org/2000/svg" xmlns:dc="http://purl.org/dc/elements/1.1/" xmlns:ns2="http://creativecommons.org/ns#" xmlns:ns4="http://www.w3.org/1999/xlink" xmlns:rdf="http://www.w3.org/1999/02/22-rdf-syntax-ns#">
 <script type="text/javascript">var offsets = [18, 42];
function toggle(oid, attribute, values) {
    var obj = document.getElementById(oid);
    var a = obj.style[attribute];

    a = (a == values[0] || a == "") ? values[1] : values[0];
    obj.style[attribute] = a;
}

function allenable() {
    var i = 0;

    while ((ele = document.getElementById('stairs_' + i)) != null) {
        ele.style.opacity =
        document.getElementById('text_' + (i + offsets[0])).style.opacity =
        document.getElementById('line2d_' + (i + offsets[1])).style.opacity = 1;
        i++;
    }
}

function allbutonedisable(thisnot) {
    var i = 0;

    while ((ele = document.getElementById('stairs_' + i)) != null) {
        if (i != thisnot) {
            ele.style.opacity = 0;
            document.getElementById('text_' + (i + offsets[0])).style.opacity = 0.5;
            document.getElementById('line2d_' + (i + offsets[1])).style.opacity = 0.3;
        }
        i++;
    }
    document.getElementById('stairs_' + thisnot).style.opacity = 1;
    document.getElementById('text_' + (thisnot + offsets[0])).style.opacity = 1;
    document.getElementById('line2d_' + (thisnot + offsets[1])).style.opacity = 1;
}

function toggle_stairsfromtext(event, obj) {
    var num = obj.parentElement.parentElement.id.split('_')[1];

    if (event.ctrlKey)
        allbutonedisable(parseInt(num) - offsets[0]);
    else if (event.shiftKey)
        allenable();
    else {
        toggle('text_' + num, 'opacity', [1, 0.5]);
        toggle('line2d_' + (parseInt(num) + offsets[1] - offsets[0]), 'opacity', [1, 0.3]);
        toggle('stairs_' + (parseInt(num) - offsets[0]), 'opacity', [1, 0]);
    }
}

function toggle_stairsfromline(event, obj) {
    var num = obj.id.split('_')[1];

    if (event.ctrlKey)
        allbutonedisable(parseInt(num) - offsets[1]);
    else if (event.shiftKey)
        allenable();
    else {
        toggle('line2d_' + num, 'opacity', [1, 0.3]);
        toggle('text_' + (parseInt(num) + offsets[0] - offsets[1]), 'opacity', [1, 0.5]);
        toggle('stairs_' + (parseInt(num) - offsets[1]), 'opacity', [1, 0]);
    }
}</script>
 <metadata>
  <rdf:RDF>
   <ns2:Work>
    <dc:type rdf:resource="http://purl.org/dc/dcmitype/StillImage"/>
    <dc:date>2023-06-23T19:24:20.942920</dc:date>
    <dc:format>image/svg+xml</dc:format>
    <dc:creator>
     <ns2:Agent>
      <dc:title>Matplotlib v3.4.3+10.gf855dde.dirty, https://matplotlib.org/</dc:title>
     </ns2:Agent>
    </dc:creator>
   </ns2:Work>
  </rdf:RDF>
 </metadata>
 <defs>
  <style type="text/css">*{stroke-linecap:butt;stroke-linejoin:round;}g {-webkit-transition:opacity 0.4s ease-out;-moz-transition:opacity 0.4s ease-out;}</style>
 </defs>
 <g id="figure_1">
  <g id="patch_1">
   <path d="m0 648h1152v-648h-1152z" fill="#fff"/>
  </g>
  <g id="axes_1">
   <g id="patch_2">
    <path d="m144 576.72h892.8v-498.96h-892.8z" fill="#fff"/>
   </g>
   <g id="stairs_0">
    <path d="m144 72136h106.24v-71601h0.8928v-37.421h0.8928v-18.269h0.8928v5.6667h0.8928v2.1444h1.7856v-9.4916h0.8928v11.795h0.8928v-8.3379h0.8928v6.0346h0.8928v-12.602h0.8928v-1.4459h0.8928v-12.602h0.8928v14.048h0.8928v10.458h0.8928v-20.49h1.7856v-4.016h0.8928v-10.323h0.8928v-7.7359h0.8928v-12.071h0.8928v-9.9951h0.8928v-15.407h0.8928v-3.9921h0.8928v-2.5305h0.8928v-12.73h0.8928v-7.7733h0.8928v-7.0675h0.8928v-12.391h0.8928v-9.9589h0.8928v-10.797h0.8928v-116.28h0.8928v-98.374h0.8928v-31.736h0.8928v8.6291h0.8928v37.72h0.8928v69.483h0.8928v70.16h0.8928v-36.69h0.8928v-69.523h0.8928v-31.479h0.8928v4.3367h0.8928v35.153h0.8928v48.182h0.8928v21.778h0.8928v-19.196h0.8928v-47.263h0.8928v-19.031h0.8928v6.5549h0.8928v24.286h0.8928v29.557h0.8928v19.547h0.8928v1.6607h0.8928v-3.9525h0.8928v-2.1161h0.8928v-0.52165h0.8928v0.76127h0.8928v2.0822h0.8928v-5.574h0.8928v-39.613h0.8928v-23.432h0.8928v11.827h0.8928v22.417h0.8928v11.078h0.8928v-4.5822h0.8928v-14.57h0.8928v-8.0908h0.8928v1.6338h0.8928v-0.28871h0.8928v-5.9852h0.8928v-5.3066h0.8928v-1.8418h0.8928v-1.0445h0.8928v-0.76396h0.8928v-0.70803h0.8928v-0.4295h0.8928v-0.33299h0.8928v-0.14394h0.8928v-0.1477l1.7856-0.021814v0.49247h0.8928v0.23602h0.8928v0.57106h0.8928v0.73543h0.8928v1.1062h0.8928v1.5001h0.8928v1.3931h0.8928v1.8382h0.8928v2.8865h0.8928v3.4979h0.8928v3.5439h0.8928v3.9209h0.8928v4.1043h0.8928v4.8233h0.8928v8.5683h0.8928v5.7894h0.8928v4.805h0.8928v5.9745h0.8928v6.2137h0.8928v5.6242h0.8928v4.8574h0.8928v2.959h0.8928v-0.15982h0.8928v3.4428h0.8928v7.916h0.8928v7.8391h0.8928v7.1601h0.8928v4.8584h0.8928v4.353h0.8928v4.1841h0.8928v4.0606h0.8928v2.2361h0.8928v4.1412h0.8928v2.9762h0.8928v3.2373h0.8928v4.231h0.8928v2.3363h0.8928v3.4131h0.8928v3.3091h0.8928v1.8244h0.8928v1.8325h0.8928v2.6033h0.8928v0.7092h0.8928v0.80597h0.8928v0.82743h0.8928v0.82182h0.8928v-1.3263h0.8928v-1.6078h0.8928v1.3787h0.8928v-1.1466h0.8928v-0.14201h0.8928v0.63765h0.8928v-0.36597h0.8928v0.35282h0.8928v-0.72738h0.8928v-0.6102h0.8928v-5.0116h0.8928v-0.66775h0.8928v-3.8513h0.8928v-4.6066h0.8928v-4.235h0.8928v-6.1692h0.8928v-2.1154h0.8928v0.56576h0.8928v1.1239h0.8928v2.8004h0.8928v1.3749h0.8928v-1.0025h0.8928v0.58615h0.8928v0.79261h0.8928v-0.60115h0.8928v1.4816h0.8928v0.93376h0.8928v0.14564h0.8928v0.34251h0.8928v1.1965h0.8928v-0.18208h0.8928v0.53469h0.8928v1.3128h0.8928v0.31759h0.8928v1.4422h0.8928v3.1472h0.8928v2.3617h0.8928v2.7469h0.8928v4.4526h0.8928v2.226h0.8928v3.9606h0.8928v3.517h0.8928v4.4271h0.8928v3.5402h0.8928v4.7695h0.8928v5.0959h0.8928v3.1954h0.8928v5.5482h0.8928v5.7932h0.8928v3.6786h0.8928v6.2608h0.8928v0.79529h0.8928v9.3242h0.8928v3.2445h0.8928v4.1934h0.8928v5.119h0.8928v4.3643h0.8928v2.2673h0.8928v4.9034h0.8928v4.8897h0.8928v1.8987h0.8928v3.6302h0.8928v3.4894h0.8928v6.1006h0.8928v10.086h0.8928v-7.7535h0.8928v7.7535h0.8928v0.52238h0.8928v5.7723h0.8928v-4.1503h0.8928v10.458h0.8928v9.9951h0.8928v-8.4009h0.8928v9.4916h0.8928v3.5224h0.8928v10.21h0.8928v-7.6186h0.8928v-10.264h0.8928v5.2806h0.8928v9.3275h0.8928v3.2747h0.8928v-4.7912h0.8928v-7.8111h0.8928v-14.464h0.8928v-15.586h0.8928v-16.825h0.8928v-37.37h0.8928v-30.752h0.8928v-9.9289h0.8928v6.8168h0.8928v24.092h0.8928v30.56h0.8928v22.763h0.8928v5.7913h0.8928v11.68h0.8928v-14.196h0.8928v-3.8902h0.8928v-0.30323h0.8928v2.1875h0.8928v-11.504h0.8928v-9.8775h0.8928v-8.117h0.8928v-8.4042h0.8928v2.6957h0.8928v5.4588h0.8928v7.0913h0.8928v1.9331h0.8928v-6.9687h0.8928v-3.2747h0.8928v-9.1499h0.8928v-8.5832h0.8928v-2.027h0.8928v-0.43998h0.8928v-2.5741h0.8928v3.5891h0.8928v-1.5717h0.8928v-0.12237h0.8928v2.6767h0.8928v0.74086h0.8928v-0.27145h0.8928v-2.8392h0.8928v-2.6014h0.8928v-5.4961h0.8928v-8.7268h0.8928v-5.6308h0.8928v-9.6519h0.8928v-5.9363h0.8928v-7.8574h0.8928v-8.24h0.8928v-5.2096h0.8928v-3.8208h0.8928v-3.8907h0.8928v-3.8629h0.8928v-1.4333h0.8928v-0.36457h0.8928v-0.2839h0.8928v0.57642h0.8928v2.1993h0.8928v1.0475h0.8928v4.9402h0.8928v3.8242h0.8928v2.71h0.8928v3.2031h0.8928v2.7676h0.8928v1.1896h0.8928v0.7611h0.8928v1.1649l1.7856 0.03873v-0.28291h0.8928v-2.0794h0.8928v-3.5168h0.8928v-2.128h0.8928v-3.8279h0.8928v-3.6441h0.8928v-5.273h0.8928v-2.653h0.8928v-3.7169h0.8928v-2.8108h0.8928v-0.86078h0.8928v-0.69251l1.7856-0.093674v0.92559h0.8928v2.9758h0.8928v2.8116h0.8928v3.3942h0.8928v3.0732h0.8928v3.125h0.8928v3.3248h0.8928v3.5357h0.8928v1.6493h0.8928v1.7967h0.8928v0.16559h0.8928v1.15h0.8928v-0.60287h0.8928v1.0075h0.8928v-1.2208h0.8928v0.7588h0.8928v-0.56802h0.8928v0.24865h0.8928v-0.42824h0.8928v2.3594h0.8928v-1.2775h0.8928v0.71508h0.8928v1.8191h0.8928v1.3228h0.8928v1.6571h0.8928v1.4156h0.8928v2.5494h0.8928v3.6137h0.8928v2.6916h0.8928v2.61h0.8928v6.9408h0.8928v1.4197h0.8928v6.3652h0.8928v4.7128h0.8928v3.9163h0.8928v4.4819h0.8928v5.1177h0.8928v2.8477h0.8928v3.5781h0.8928v5.7859h0.8928v7.6834h0.8928v3.1348h0.8928v3.9156h0.8928v4.6476h0.8928v0.16755h0.8928v6.7262h0.8928v0.2093h0.8928v0.21072h0.8928v0.85746h0.8928v0.21811h0.8928v7.1001h0.8928v6.0542h0.8928v-2.5648h0.8928v-2.6531h0.8928v1.7433h0.8928v11.429h0.8928v-10.826h0.8928v7.942h0.8928v-2.2752h0.8928v0.74006h0.8928v7.1233h0.8928v-5.1922h0.8928v1.6362h0.8928v-1.6362h0.8928v3.3634h0.8928v-1.7272h0.8928v3.556h0.8928v-2.2697h0.8928v-0.43471h0.8928v6.1891h0.8928v0.53131h0.8928v-4.9439h0.8928v10.826h0.8928v-8.452h0.8928v0.49731h0.8928v5.4669h2.6784v15.09h0.8928v-9.8978h0.8928v-0.69848h0.8928v6.9355h0.8928v-0.85159h0.8928v6.5183h0.8928v1.0537h0.8928v-1.0537h1.7856v17.653h0.8928v-11.987h0.8928v3.9732h0.8928v-10.659h0.8928v7.9547h0.8928v7.261h0.8928v3.457h0.8928v-1.7765h0.8928v12.602h0.8928v-6.9355h0.8928v-5.6667h0.8928v18.269h0.8928v-19.949h0.8928v16.987h0.8928v-7.4955h0.8928v-2.1444h0.8928v12.602h0.8928v-10.458h0.8928v2.3033h0.8928v-4.4477h0.8928v12.602h0.8928v-12.602h0.8928v41.081h0.8928v-25.204h0.8928v34.146h0.8928v-8.9414h0.8928v-28.479h0.8928v11.086h0.8928v-11.086h0.8928v50.023h0.8928v-34.146h0.8928v12.602h0.8928v8.9414h0.8928v-15.877h0.8928v6.9355h0.8928v-12.602h0.8928v21.544h1.7856v71601h0.8928v-71617h0.8928v15.877h0.8928v12.602h0.8928v21.544h0.8928v-21.544h0.8928v21.544h0.8928v-34.146h0.8928v34.146h1.7856v71567h0.8928v-71588h0.8928v-12.602h0.8928v12.602h0.8928v-12.602h0.8928v34.146h0.8928v71567h2.6784v-71567h0.8928v71567h1.7856v-71567h0.8928v71567h13.392v-71567h0.8928v71567h8.0352v-71567h0.8928v71567h1.7856v-71567h0.8928v71567h2.6784v-71567h0.8928v71567h368.73" clip-path="url(#p245af40791)" fill="none" stroke="#1f77b4"/>
   </g>
   <g id="matplotlib.axis_1">
    <g id="xtick_1">
     <g id="line2d_1">
      <defs>
       <path id="m1b1b1af647" d="m0 0v3.5" stroke="#000" stroke-width=".8"/>
      </defs>
      <use x="144" y="576.72" stroke="#000000" stroke-width=".8" ns4:href="#m1b1b1af647"/>
     </g>
     <g id="text_1">
      <g transform="translate(140.82 591.32) scale(.1 -.1)">
       <defs>
        <path id="DejaVuSans-30" transform="scale(.015625)" d="m2034 4250q-487 0-733-480-245-479-245-1442 0-959 245-1439 246-480 733-480 491 0 736 480 246 480 246 1439 0 963-246 1442-245 480-736 480zm0 500q785 0 1199-621 414-620 414-1801 0-1178-414-1799-414-620-1199-620-784 0-1198 620-414 621-414 1799 0 1181 414 1801 414 621 1198 621z"/>
       </defs>
       <use ns4:href="#DejaVuSans-30"/>
      </g>
     </g>
    </g>
    <g id="xtick_2">
     <g id="line2d_2">
      <use x="322.56" y="576.72" stroke="#000000" stroke-width=".8" ns4:href="#m1b1b1af647"/>
     </g>
     <g id="text_2">
      <g transform="translate(313.02 591.32) scale(.1 -.1)">
       <defs>
        <path id="DejaVuSans-32" transform="scale(.015625)" d="m1228 531h2203v-531h-2962v531q359 372 979 998 621 627 780 809 303 340 423 576 121 236 121 464 0 372-261 606-261 235-680 235-297 0-627-103-329-103-704-313v638q381 153 712 231 332 78 607 78 725 0 1156-363 431-362 431-968 0-288-108-546-107-257-392-607-78-91-497-524-418-433-1181-1211z"/>
       </defs>
       <use ns4:href="#DejaVuSans-32"/>
       <use x="63.623047" ns4:href="#DejaVuSans-30"/>
       <use x="127.246094" ns4:href="#DejaVuSans-30"/>
      </g>
     </g>
    </g>
    <g id="xtick_3">
     <g id="line2d_3">
      <use x="501.12" y="576.72" stroke="#000000" stroke-width=".8" ns4:href="#m1b1b1af647"/>
     </g>
     <g id="text_3">
      <g transform="translate(491.58 591.32) scale(.1 -.1)">
       <defs>
        <path id="DejaVuSans-34" transform="scale(.015625)" d="m2419 4116-1594-2491h1594v2491zm-166 550h794v-3041h666v-525h-666v-1100h-628v1100h-2106v609l1940 2957z"/>
       </defs>
       <use ns4:href="#DejaVuSans-34"/>
       <use x="63.623047" ns4:href="#DejaVuSans-30"/>
       <use x="127.246094" ns4:href="#DejaVuSans-30"/>
      </g>
     </g>
    </g>
    <g id="xtick_4">
     <g id="line2d_4">
      <use x="679.68" y="576.72" stroke="#000000" stroke-width=".8" ns4:href="#m1b1b1af647"/>
     </g>
     <g id="text_4">
      <g transform="translate(670.14 591.32) scale(.1 -.1)">
       <defs>
        <path id="DejaVuSans-36" transform="scale(.015625)" d="m2113 2584q-425 0-674-291-248-290-248-796 0-503 248-796 249-292 674-292t673 292q248 293 248 796 0 506-248 796-248 291-673 291zm1253 1979v-575q-238 112-480 171-242 60-480 60-625 0-955-422-329-422-376-1275 184 272 462 417 279 145 613 145 703 0 1111-427 408-426 408-1160 0-719-425-1154-425-434-1131-434-810 0-1238 620-428 621-428 1799 0 1106 525 1764t1409 658q238 0 480-47t505-140z"/>
       </defs>
       <use ns4:href="#DejaVuSans-36"/>
       <use x="63.623047" ns4:href="#DejaVuSans-30"/>
       <use x="127.246094" ns4:href="#DejaVuSans-30"/>
      </g>
     </g>
    </g>
    <g id="xtick_5">
     <g id="line2d_5">
      <use x="858.24" y="576.72" stroke="#000000" stroke-width=".8" ns4:href="#m1b1b1af647"/>
     </g>
     <g id="text_5">
      <g transform="translate(848.7 591.32) scale(.1 -.1)">
       <defs>
        <path id="DejaVuSans-38" transform="scale(.015625)" d="m2034 2216q-450 0-708-241-257-241-257-662 0-422 257-663 258-241 708-241t709 242q260 243 260 662 0 421-258 662-257 241-711 241zm-631 268q-406 100-633 378-226 279-226 679 0 559 398 884 399 325 1092 325 697 0 1094-325t397-884q0-400-227-679-226-278-629-378 456-106 710-416 255-309 255-755 0-679-414-1042-414-362-1186-362-771 0-1186 362-414 363-414 1042 0 446 256 755 257 310 713 416zm-231 997q0-362 226-565 227-203 636-203 407 0 636 203 230 203 230 565 0 363-230 566-229 203-636 203-409 0-636-203-226-203-226-566z"/>
       </defs>
       <use ns4:href="#DejaVuSans-38"/>
       <use x="63.623047" ns4:href="#DejaVuSans-30"/>
       <use x="127.246094" ns4:href="#DejaVuSans-30"/>
      </g>
     </g>
    </g>
    <g id="xtick_6">
     <g id="line2d_6">
      <use x="1036.8" y="576.72" stroke="#000000" stroke-width=".8" ns4:href="#m1b1b1af647"/>
     </g>
     <g id="text_6">
      <g transform="translate(1024.1 591.32) scale(.1 -.1)">
       <defs>
        <path id="DejaVuSans-31" transform="scale(.015625)" d="m794 531h1031v3560l-1122-225v575l1116 225h631v-4135h1031v-531h-2687v531z"/>
       </defs>
       <use ns4:href="#DejaVuSans-31"/>
       <use x="63.623047" ns4:href="#DejaVuSans-30"/>
       <use x="127.246094" ns4:href="#DejaVuSans-30"/>
       <use x="190.869141" ns4:href="#DejaVuSans-30"/>
      </g>
     </g>
    </g>
    <g id="text_7">
     <g transform="translate(404.23 605) scale(.1 -.1)">
      <defs>
       <path id="DejaVuSans-4c" transform="scale(.015625)" d="m628 4666h631v-4135h2272v-531h-2903v4666z"/>
       <path id="DejaVuSans-61" transform="scale(.015625)" d="m2194 1759q-697 0-966-159t-269-544q0-306 202-486 202-179 548-179 479 0 768 339t289 901v128h-572zm1147 238v-1997h-575v531q-197-318-491-470t-719-152q-537 0-855 302-317 302-317 808 0 590 395 890 396 300 1180 300h807v57q0 397-261 614t-733 217q-300 0-585-72-284-72-546-216v532q315 122 612 182 297 61 578 61 760 0 1135-394 375-393 375-1193z"/>
       <path id="DejaVuSans-74" transform="scale(.015625)" d="m1172 4494v-994h1184v-447h-1184v-1900q0-428 117-550t477-122h590v-481h-590q-666 0-919 248-253 249-253 905v1900h-422v447h422v994h578z"/>
       <path id="DejaVuSans-65" transform="scale(.015625)" d="m3597 1894v-281h-2644q38-594 358-905t892-311q331 0 642 81t618 244v-544q-310-131-635-200t-659-69q-838 0-1327 487-489 488-489 1320 0 859 464 1363 464 505 1252 505 706 0 1117-455 411-454 411-1235zm-575 169q-6 471-264 752-258 282-683 282-481 0-770-272t-333-766l2050 4z"/>
       <path id="DejaVuSans-6e" transform="scale(.015625)" d="m3513 2113v-2113h-575v2094q0 497-194 743-194 247-581 247-466 0-735-297-269-296-269-809v-1978h-578v3500h578v-544q207 316 486 472 280 156 646 156 603 0 912-373 310-373 310-1098z"/>
       <path id="DejaVuSans-63" transform="scale(.015625)" d="m3122 3366v-538q-244 135-489 202t-495 67q-560 0-870-355-309-354-309-995t309-996q310-354 870-354 250 0 495 67t489 202v-532q-241-112-499-168-257-57-548-57-791 0-1257 497-465 497-465 1341 0 856 470 1346 471 491 1290 491 265 0 518-55 253-54 491-163z"/>
       <path id="DejaVuSans-79" transform="scale(.015625)" d="m2059-325q-243-625-475-815-231-191-618-191h-460v481h338q237 0 368 113 132 112 291 531l103 262-1415 3444h609l1094-2737 1094 2737h609l-1538-3825z"/>
       <path id="DejaVuSans-28" transform="scale(.015625)" d="m1984 4856q-418-718-622-1422-203-703-203-1425 0-721 205-1429t620-1424h-500q-468 735-701 1444t-233 1409q0 697 231 1403 232 707 703 1444h500z"/>
       <path id="DejaVuSans-b5" transform="scale(.015625)" d="m544-1331v4831h575v-2175q0-453 215-685 216-231 638-231 462 0 695 262 233 263 233 788v2041h575v-2694q0-187 54-276 55-89 171-89 28 0 78 17t138 55v-463q-128-72-243-106-114-35-223-35-216 0-344 122t-175 372q-156-247-383-371-226-123-532-123-319 0-543 122-223 122-354 366v-1728h-575z"/>
       <path id="DejaVuSans-73" transform="scale(.015625)" d="m2834 3397v-544q-243 125-506 187-262 63-544 63-428 0-642-131t-214-394q0-200 153-314t616-217l197-44q612-131 870-370t258-667q0-488-386-773-386-284-1061-284-281 0-586 55t-642 164v594q319-166 628-249 309-82 613-82 406 0 624 139 219 139 219 392 0 234-158 359-157 125-692 241l-200 47q-534 112-772 345-237 233-237 639 0 494 350 762 350 269 994 269 318 0 599-47 282-46 519-140z"/>
       <path id="DejaVuSans-29" transform="scale(.015625)" d="m513 4856h500q468-737 701-1444 233-706 233-1403 0-700-233-1409t-701-1444h-500q415 716 620 1424t205 1429q0 722-205 1425-205 704-620 1422z"/>
       <path id="DejaVuSans-77" transform="scale(.015625)" d="m269 3500h575l719-2731 715 2731h678l719-2731 716 2731h575l-916-3500h-678l-753 2869-756-2869h-679l-915 3500z"/>
       <path id="DejaVuSans-69" transform="scale(.015625)" d="m603 3500h575v-3500h-575v3500zm0 1363h575v-729h-575v729z"/>
       <path id="DejaVuSans-68" transform="scale(.015625)" d="m3513 2113v-2113h-575v2094q0 497-194 743-194 247-581 247-466 0-735-297-269-296-269-809v-1978h-578v4863h578v-1907q207 316 486 472 280 156 646 156 603 0 912-373 310-373 310-1098z"/>
       <path id="DejaVuSans-22" transform="scale(.015625)" d="m1147 4666v-1735h-531v1735h531zm1181 0v-1735h-531v1735h531z"/>
       <path id="DejaVuSans-6c" transform="scale(.015625)" d="m603 4863h575v-4863h-575v4863z"/>
       <path id="DejaVuSans-2d" transform="scale(.015625)" d="m313 2009h1684v-512h-1684v512z"/>
       <path id="DejaVuSans-37" transform="scale(.015625)" d="m525 4666h3e3v-269l-1694-4397h-659l1594 4134h-2241v532z"/>
       <path id="DejaVuSans-35" transform="scale(.015625)" d="m691 4666h2478v-532h-1900v-1143q137 47 274 70 138 23 276 23 781 0 1237-428 457-428 457-1159 0-753-469-1171-469-417-1322-417-294 0-599 50-304 50-629 150v635q281-153 581-228t634-75q541 0 856 284 316 284 316 772 0 487-316 771-315 285-856 285-253 0-505-56-251-56-513-175v2344z"/>
       <path id="DejaVuSans-6d" transform="scale(.015625)" d="m3328 2828q216 388 516 572t706 184q547 0 844-383 297-382 297-1088v-2113h-578v2094q0 503-179 746-178 244-543 244-447 0-707-297-259-296-259-809v-1978h-578v2094q0 506-178 748t-550 242q-441 0-701-298-259-298-259-808v-1978h-578v3500h578v-544q197 322 472 475t653 153q382 0 649-194 267-193 395-562z"/>
       <path id="DejaVuSans-70" transform="scale(.015625)" d="m1159 525v-1856h-578v4831h578v-531q182 312 458 463 277 152 661 152 638 0 1036-506 399-506 399-1331t-399-1332q-398-506-1036-506-384 0-661 152-276 152-458 464zm1957 1222q0 634-261 995t-717 361q-457 0-718-361t-261-995 261-995 718-361q456 0 717 361t261 995z"/>
       <path id="DejaVuSans-39" transform="scale(.015625)" d="m703 97v575q238-113 481-172 244-59 479-59 625 0 954 420 330 420 377 1277-181-269-460-413-278-144-615-144-700 0-1108 423-408 424-408 1159 0 718 425 1152 425 435 1131 435 810 0 1236-621 427-620 427-1801 0-1103-524-1761-523-658-1407-658-238 0-482 47-243 47-506 141zm1256 1978q425 0 673 290 249 291 249 798 0 503-249 795-248 292-673 292t-673-292-248-795q0-507 248-798 248-290 673-290z"/>
       <path id="DejaVuSans-71" transform="scale(.015625)" d="m947 1747q0-634 261-995t717-361 718 361q263 361 263 995t-263 995q-262 361-718 361t-717-361-261-995zm1959-1222q-181-312-458-464-276-152-664-152-634 0-1033 506-398 507-398 1332t398 1331q399 506 1033 506 388 0 664-152 277-151 458-463v531h575v-4831h-575v1856z"/>
      </defs>
      <use ns4:href="#DejaVuSans-4c"/>
      <use x="55.712891" ns4:href="#DejaVuSans-61"/>
      <use x="116.992188" ns4:href="#DejaVuSans-74"/>
      <use x="156.201172" ns4:href="#DejaVuSans-65"/>
      <use x="217.724609" ns4:href="#DejaVuSans-6e"/>
      <use x="281.103516" ns4:href="#DejaVuSans-63"/>
      <use x="336.083984" ns4:href="#DejaVuSans-79"/>
      <use x="395.263672" ns4:href="#DejaVuSans-20"/>
      <use x="427.050781" ns4:href="#DejaVuSans-28"/>
      <use x="466.064453" ns4:href="#DejaVuSans-b5"/>
      <use x="529.6875" ns4:href="#DejaVuSans-73"/>
      <use x="581.787109" ns4:href="#DejaVuSans-29"/>
      <use x="620.800781" ns4:href="#DejaVuSans-20"/>
      <use x="652.587891" ns4:href="#DejaVuSans-77"/>
      <use x="734.375" ns4:href="#DejaVuSans-69"/>
      <use x="762.158203" ns4:href="#DejaVuSans-74"/>
      <use x="801.367188" ns4:href="#DejaVuSans-68"/>
      <use x="864.746094" ns4:href="#DejaVuSans-20"/>
      <use x="896.533203" ns4:href="#DejaVuSans-22"/>
      <use x="942.529297" ns4:href="#DejaVuSans-63"/>
      <use x="997.509766" ns4:href="#DejaVuSans-79"/>
      <use x="1056.689453" ns4:href="#DejaVuSans-63"/>
      <use x="1111.669922" ns4:href="#DejaVuSans-6c"/>
      <use x="1139.453125" ns4:href="#DejaVuSans-69"/>
      <use x="1167.236328" ns4:href="#DejaVuSans-63"/>
      <use x="1222.216797" ns4:href="#DejaVuSans-74"/>
      <use x="1261.425781" ns4:href="#DejaVuSans-65"/>
      <use x="1322.949219" ns4:href="#DejaVuSans-73"/>
      <use x="1375.048828" ns4:href="#DejaVuSans-74"/>
      <use x="1414.257812" ns4:href="#DejaVuSans-20"/>
      <use x="1446.044922" ns4:href="#DejaVuSans-2d"/>
      <use x="1482.128906" ns4:href="#DejaVuSans-6c"/>
      <use x="1509.912109" ns4:href="#DejaVuSans-37"/>
      <use x="1573.535156" ns4:href="#DejaVuSans-35"/>
      <use x="1637.158203" ns4:href="#DejaVuSans-30"/>
      <use x="1700.78125" ns4:href="#DejaVuSans-30"/>
      <use x="1764.404297" ns4:href="#DejaVuSans-30"/>
      <use x="1828.027344" ns4:href="#DejaVuSans-30"/>
      <use x="1891.650391" ns4:href="#DejaVuSans-30"/>
      <use x="1955.273438" ns4:href="#DejaVuSans-20"/>
      <use x="1987.060547" ns4:href="#DejaVuSans-2d"/>
      <use x="2023.144531" ns4:href="#DejaVuSans-6d"/>
      <use x="2120.556641" ns4:href="#DejaVuSans-20"/>
      <use x="2152.34375" ns4:href="#DejaVuSans-2d"/>
      <use x="2188.427734" ns4:href="#DejaVuSans-6e"/>
      <use x="2251.806641" ns4:href="#DejaVuSans-20"/>
      <use x="2283.59375" ns4:href="#DejaVuSans-2d"/>
      <use x="2319.677734" ns4:href="#DejaVuSans-61"/>
      <use x="2380.957031" ns4:href="#DejaVuSans-30"/>
      <use x="2444.580078" ns4:href="#DejaVuSans-20"/>
      <use x="2476.367188" ns4:href="#DejaVuSans-2d"/>
      <use x="2512.451172" ns4:href="#DejaVuSans-74"/>
      <use x="2551.660156" ns4:href="#DejaVuSans-31"/>
      <use x="2615.283203" ns4:href="#DejaVuSans-20"/>
      <use x="2647.070312" ns4:href="#DejaVuSans-2d"/>
      <use x="2683.154297" ns4:href="#DejaVuSans-70"/>
      <use x="2746.630859" ns4:href="#DejaVuSans-39"/>
      <use x="2810.253906" ns4:href="#DejaVuSans-39"/>
      <use x="2873.876953" ns4:href="#DejaVuSans-20"/>
      <use x="2905.664062" ns4:href="#DejaVuSans-2d"/>
      <use x="2941.748047" ns4:href="#DejaVuSans-69"/>
      <use x="2969.53125" ns4:href="#DejaVuSans-38"/>
      <use x="3033.154297" ns4:href="#DejaVuSans-30"/>
      <use x="3096.777344" ns4:href="#DejaVuSans-30"/>
      <use x="3160.400391" ns4:href="#DejaVuSans-20"/>
      <use x="3192.1875" ns4:href="#DejaVuSans-2d"/>
      <use x="3228.271484" ns4:href="#DejaVuSans-68"/>
      <use x="3291.650391" ns4:href="#DejaVuSans-31"/>
      <use x="3355.273438" ns4:href="#DejaVuSans-30"/>
      <use x="3418.896484" ns4:href="#DejaVuSans-30"/>
      <use x="3482.519531" ns4:href="#DejaVuSans-30"/>
      <use x="3546.142578" ns4:href="#DejaVuSans-20"/>
      <use x="3577.929688" ns4:href="#DejaVuSans-2d"/>
      <use x="3614.013672" ns4:href="#DejaVuSans-71"/>
      <use x="3677.490234" ns4:href="#DejaVuSans-22"/>
     </g>
    </g>
   </g>
   <g id="matplotlib.axis_2">
    <g id="ytick_1">
     <g id="line2d_7">
      <defs>
       <path id="m743912856b" d="m0 0h-3.5" stroke="#000" stroke-width=".8"/>
      </defs>
      <use x="144" y="569.784484" stroke="#000000" stroke-width=".8" ns4:href="#m743912856b"/>
     </g>
     <g id="text_8">
      <g transform="translate(119.4 573.58) scale(.1 -.1)">
       <use transform="translate(0 .76562)" ns4:href="#DejaVuSans-31"/>
       <use transform="translate(63.623 .76562)" ns4:href="#DejaVuSans-30"/>
       <use transform="translate(128.2 39.047) scale(.7)" ns4:href="#DejaVuSans-30"/>
      </g>
     </g>
    </g>
    <g id="ytick_2">
     <g id="line2d_8">
      <use x="144" y="498.217924" stroke="#000000" stroke-width=".8" ns4:href="#m743912856b"/>
     </g>
     <g id="text_9">
      <g transform="translate(119.4 502.02) scale(.1 -.1)">
       <use transform="translate(0 .68438)" ns4:href="#DejaVuSans-31"/>
       <use transform="translate(63.623 .68438)" ns4:href="#DejaVuSans-30"/>
       <use transform="translate(128.2 38.966) scale(.7)" ns4:href="#DejaVuSans-31"/>
      </g>
     </g>
    </g>
    <g id="ytick_3">
     <g id="line2d_9">
      <use x="144" y="426.651364" stroke="#000000" stroke-width=".8" ns4:href="#m743912856b"/>
     </g>
     <g id="text_10">
      <g transform="translate(119.4 430.45) scale(.1 -.1)">
       <use transform="translate(0 .76562)" ns4:href="#DejaVuSans-31"/>
       <use transform="translate(63.623 .76562)" ns4:href="#DejaVuSans-30"/>
       <use transform="translate(128.2 39.047) scale(.7)" ns4:href="#DejaVuSans-32"/>
      </g>
     </g>
    </g>
    <g id="ytick_4">
     <g id="line2d_10">
      <use x="144" y="355.084804" stroke="#000000" stroke-width=".8" ns4:href="#m743912856b"/>
     </g>
     <g id="text_11">
      <g transform="translate(119.4 358.88) scale(.1 -.1)">
       <defs>
        <path id="DejaVuSans-33" transform="scale(.015625)" d="m2597 2516q453-97 707-404 255-306 255-756 0-690-475-1069-475-378-1350-378-293 0-604 58t-642 174v609q262-153 574-231 313-78 654-78 593 0 904 234t311 681q0 413-289 645-289 233-804 233h-544v519h569q465 0 712 186t247 536q0 359-255 551-254 193-729 193-260 0-557-57-297-56-653-174v562q360 100 674 150t592 50q719 0 1137-327 419-326 419-882 0-388-222-655t-631-370z"/>
       </defs>
       <use transform="translate(0 .76562)" ns4:href="#DejaVuSans-31"/>
       <use transform="translate(63.623 .76562)" ns4:href="#DejaVuSans-30"/>
       <use transform="translate(128.2 39.047) scale(.7)" ns4:href="#DejaVuSans-33"/>
      </g>
     </g>
    </g>
    <g id="ytick_5">
     <g id="line2d_11">
      <use x="144" y="283.518244" stroke="#000000" stroke-width=".8" ns4:href="#m743912856b"/>
     </g>
     <g id="text_12">
      <g transform="translate(119.4 287.32) scale(.1 -.1)">
       <use transform="translate(0 .68438)" ns4:href="#DejaVuSans-31"/>
       <use transform="translate(63.623 .68438)" ns4:href="#DejaVuSans-30"/>
       <use transform="translate(128.2 38.966) scale(.7)" ns4:href="#DejaVuSans-34"/>
      </g>
     </g>
    </g>
    <g id="ytick_6">
     <g id="line2d_12">
      <use x="144" y="211.951684" stroke="#000000" stroke-width=".8" ns4:href="#m743912856b"/>
     </g>
     <g id="text_13">
      <g transform="translate(119.4 215.75) scale(.1 -.1)">
       <use transform="translate(0 .68438)" ns4:href="#DejaVuSans-31"/>
       <use transform="translate(63.623 .68438)" ns4:href="#DejaVuSans-30"/>
       <use transform="translate(128.2 38.966) scale(.7)" ns4:href="#DejaVuSans-35"/>
      </g>
     </g>
    </g>
    <g id="ytick_7">
     <g id="line2d_13">
      <use x="144" y="140.385124" stroke="#000000" stroke-width=".8" ns4:href="#m743912856b"/>
     </g>
     <g id="text_14">
      <g transform="translate(119.4 144.18) scale(.1 -.1)">
       <use transform="translate(0 .76562)" ns4:href="#DejaVuSans-31"/>
       <use transform="translate(63.623 .76562)" ns4:href="#DejaVuSans-30"/>
       <use transform="translate(128.2 39.047) scale(.7)" ns4:href="#DejaVuSans-36"/>
      </g>
     </g>
    </g>
    <g id="ytick_8">
     <g id="line2d_14">
      <defs>
       <path id="m6026d28a37" d="m0 0h-2" stroke="#000" stroke-width=".6"/>
      </defs>
      <use x="144" y="576.72" stroke="#000000" stroke-width=".6" ns4:href="#m6026d28a37"/>
     </g>
    </g>
    <g id="ytick_9">
     <g id="line2d_15">
      <use x="144" y="548.240803" stroke="#000000" stroke-width=".6" ns4:href="#m6026d28a37"/>
     </g>
    </g>
    <g id="ytick_10">
     <g id="line2d_16">
      <use x="144" y="526.697121" stroke="#000000" stroke-width=".6" ns4:href="#m6026d28a37"/>
     </g>
    </g>
    <g id="ytick_11">
     <g id="line2d_17">
      <use x="144" y="514.094876" stroke="#000000" stroke-width=".6" ns4:href="#m6026d28a37"/>
     </g>
    </g>
    <g id="ytick_12">
     <g id="line2d_18">
      <use x="144" y="505.15344" stroke="#000000" stroke-width=".6" ns4:href="#m6026d28a37"/>
     </g>
    </g>
    <g id="ytick_13">
     <g id="line2d_19">
      <use x="144" y="476.674243" stroke="#000000" stroke-width=".6" ns4:href="#m6026d28a37"/>
     </g>
    </g>
    <g id="ytick_14">
     <g id="line2d_20">
      <use x="144" y="455.130561" stroke="#000000" stroke-width=".6" ns4:href="#m6026d28a37"/>
     </g>
    </g>
    <g id="ytick_15">
     <g id="line2d_21">
      <use x="144" y="442.528316" stroke="#000000" stroke-width=".6" ns4:href="#m6026d28a37"/>
     </g>
    </g>
    <g id="ytick_16">
     <g id="line2d_22">
      <use x="144" y="433.58688" stroke="#000000" stroke-width=".6" ns4:href="#m6026d28a37"/>
     </g>
    </g>
    <g id="ytick_17">
     <g id="line2d_23">
      <use x="144" y="405.107683" stroke="#000000" stroke-width=".6" ns4:href="#m6026d28a37"/>
     </g>
    </g>
    <g id="ytick_18">
     <g id="line2d_24">
      <use x="144" y="383.564002" stroke="#000000" stroke-width=".6" ns4:href="#m6026d28a37"/>
     </g>
    </g>
    <g id="ytick_19">
     <g id="line2d_25">
      <use x="144" y="370.961756" stroke="#000000" stroke-width=".6" ns4:href="#m6026d28a37"/>
     </g>
    </g>
    <g id="ytick_20">
     <g id="line2d_26">
      <use x="144" y="362.02032" stroke="#000000" stroke-width=".6" ns4:href="#m6026d28a37"/>
     </g>
    </g>
    <g id="ytick_21">
     <g id="line2d_27">
      <use x="144" y="333.541123" stroke="#000000" stroke-width=".6" ns4:href="#m6026d28a37"/>
     </g>
    </g>
    <g id="ytick_22">
     <g id="line2d_28">
      <use x="144" y="311.997442" stroke="#000000" stroke-width=".6" ns4:href="#m6026d28a37"/>
     </g>
    </g>
    <g id="ytick_23">
     <g id="line2d_29">
      <use x="144" y="299.395196" stroke="#000000" stroke-width=".6" ns4:href="#m6026d28a37"/>
     </g>
    </g>
    <g id="ytick_24">
     <g id="line2d_30">
      <use x="144" y="290.45376" stroke="#000000" stroke-width=".6" ns4:href="#m6026d28a37"/>
     </g>
    </g>
    <g id="ytick_25">
     <g id="line2d_31">
      <use x="144" y="261.974563" stroke="#000000" stroke-width=".6" ns4:href="#m6026d28a37"/>
     </g>
    </g>
    <g id="ytick_26">
     <g id="line2d_32">
      <use x="144" y="240.430882" stroke="#000000" stroke-width=".6" ns4:href="#m6026d28a37"/>
     </g>
    </g>
    <g id="ytick_27">
     <g id="line2d_33">
      <use x="144" y="227.828636" stroke="#000000" stroke-width=".6" ns4:href="#m6026d28a37"/>
     </g>
    </g>
    <g id="ytick_28">
     <g id="line2d_34">
      <use x="144" y="218.8872" stroke="#000000" stroke-width=".6" ns4:href="#m6026d28a37"/>
     </g>
    </g>
    <g id="ytick_29">
     <g id="line2d_35">
      <use x="144" y="190.408003" stroke="#000000" stroke-width=".6" ns4:href="#m6026d28a37"/>
     </g>
    </g>
    <g id="ytick_30">
     <g id="line2d_36">
      <use x="144" y="168.864322" stroke="#000000" stroke-width=".6" ns4:href="#m6026d28a37"/>
     </g>
    </g>
    <g id="ytick_31">
     <g id="line2d_37">
      <use x="144" y="156.262076" stroke="#000000" stroke-width=".6" ns4:href="#m6026d28a37"/>
     </g>
    </g>
    <g id="ytick_32">
     <g id="line2d_38">
      <use x="144" y="147.320641" stroke="#000000" stroke-width=".6" ns4:href="#m6026d28a37"/>
     </g>
    </g>
    <g id="ytick_33">
     <g id="line2d_39">
      <use x="144" y="118.841443" stroke="#000000" stroke-width=".6" ns4:href="#m6026d28a37"/>
     </g>
    </g>
    <g id="ytick_34">
     <g id="line2d_40">
      <use x="144" y="97.297762" stroke="#000000" stroke-width=".6" ns4:href="#m6026d28a37"/>
     </g>
    </g>
    <g id="ytick_35">
     <g id="line2d_41">
      <use x="144" y="84.695516" stroke="#000000" stroke-width=".6" ns4:href="#m6026d28a37"/>
     </g>
    </g>
    <g id="text_15">
     <g transform="translate(113.32 419.96) rotate(-90) scale(.1 -.1)">
      <defs>
       <path id="DejaVuSans-4e" transform="scale(.015625)" d="m628 4666h850l2069-3903v3903h612v-4666h-850l-2068 3903v-3903h-613v4666z"/>
       <path id="DejaVuSans-75" transform="scale(.015625)" d="m544 1381v2119h575v-2097q0-497 193-746 194-248 582-248 465 0 735 297 271 297 271 810v1984h575v-3500h-575v538q-209-319-486-474-276-155-642-155-603 0-916 375-312 375-312 1097zm1447 2203z"/>
       <path id="DejaVuSans-62" transform="scale(.015625)" d="m3116 1747q0 634-261 995t-717 361q-457 0-718-361t-261-995 261-995 718-361q456 0 717 361t261 995zm-1957 1222q182 312 458 463 277 152 661 152 638 0 1036-506 399-506 399-1331t-399-1332q-398-506-1036-506-384 0-661 152-276 152-458 464v-525h-578v4863h578v-1894z"/>
       <path id="DejaVuSans-72" transform="scale(.015625)" d="m2631 2963q-97 56-211 82-114 27-251 27-488 0-749-317t-261-911v-1844h-578v3500h578v-544q182 319 472 473 291 155 707 155 59 0 131-8 72-7 159-23l3-590z"/>
       <path id="DejaVuSans-6f" transform="scale(.015625)" d="m1959 3097q-462 0-731-361t-269-989 267-989q268-361 733-361 460 0 728 362 269 363 269 988 0 622-269 986-268 364-728 364zm0 487q750 0 1178-488 429-487 429-1349 0-859-429-1349-428-489-1178-489-753 0-1180 489-426 490-426 1349 0 862 426 1349 427 488 1180 488z"/>
       <path id="DejaVuSans-66" transform="scale(.015625)" d="m2375 4863v-479h-550q-309 0-430-125-120-125-120-450v-309h947v-447h-947v-3053h-578v3053h-550v447h550v244q0 584 272 851 272 268 862 268h544z"/>
      </defs>
      <use ns4:href="#DejaVuSans-4e"/>
      <use x="74.804688" ns4:href="#DejaVuSans-75"/>
      <use x="138.183594" ns4:href="#DejaVuSans-6d"/>
      <use x="235.595703" ns4:href="#DejaVuSans-62"/>
      <use x="299.072266" ns4:href="#DejaVuSans-65"/>
      <use x="360.595703" ns4:href="#DejaVuSans-72"/>
      <use x="401.708984" ns4:href="#DejaVuSans-20"/>
      <use x="433.496094" ns4:href="#DejaVuSans-6f"/>
      <use x="494.677734" ns4:href="#DejaVuSans-66"/>
      <use x="529.882812" ns4:href="#DejaVuSans-20"/>
      <use x="561.669922" ns4:href="#DejaVuSans-73"/>
      <use x="613.769531" ns4:href="#DejaVuSans-61"/>
      <use x="675.048828" ns4:href="#DejaVuSans-6d"/>
      <use x="772.460938" ns4:href="#DejaVuSans-70"/>
      <use x="835.9375" ns4:href="#DejaVuSans-6c"/>
      <use x="863.720703" ns4:href="#DejaVuSans-65"/>
      <use x="925.244141" ns4:href="#DejaVuSans-73"/>
      <use x="977.34375" ns4:href="#DejaVuSans-20"/>
      <use x="1009.130859" ns4:href="#DejaVuSans-70"/>
      <use x="1072.607422" ns4:href="#DejaVuSans-65"/>
      <use x="1134.130859" ns4:href="#DejaVuSans-72"/>
      <use x="1175.244141" ns4:href="#DejaVuSans-20"/>
      <use x="1207.03125" ns4:href="#DejaVuSans-6c"/>
      <use x="1234.814453" ns4:href="#DejaVuSans-61"/>
      <use x="1296.09375" ns4:href="#DejaVuSans-74"/>
      <use x="1335.302734" ns4:href="#DejaVuSans-65"/>
      <use x="1396.826172" ns4:href="#DejaVuSans-6e"/>
      <use x="1460.205078" ns4:href="#DejaVuSans-63"/>
      <use x="1515.185547" ns4:href="#DejaVuSans-79"/>
      <use x="1574.365234" ns4:href="#DejaVuSans-20"/>
      <use x="1606.152344" ns4:href="#DejaVuSans-63"/>
      <use x="1661.132812" ns4:href="#DejaVuSans-6c"/>
      <use x="1688.916016" ns4:href="#DejaVuSans-61"/>
      <use x="1750.195312" ns4:href="#DejaVuSans-73"/>
      <use x="1802.294922" ns4:href="#DejaVuSans-73"/>
     </g>
    </g>
   </g>
   <g id="patch_3">
    <path d="m144 576.72v-498.96" fill="none" stroke="#000" stroke-linecap="square" stroke-width=".8"/>
   </g>
   <g id="patch_4">
    <path d="m1036.8 576.72v-498.96" fill="none" stroke="#000" stroke-linecap="square" stroke-width=".8"/>
   </g>
   <g id="patch_5">
    <path d="m144 576.72h892.8" fill="none" stroke="#000" stroke-linecap="square" stroke-width=".8"/>
   </g>
   <g id="patch_6">
    <path d="m144 77.76h892.8" fill="none" stroke="#000" stroke-linecap="square" stroke-width=".8"/>
   </g>
   <g id="text_16">
    <g transform="translate(1034.3 377.75) rotate(-90) scale(.0694 -.0694)" fill="#808080">
     <defs>
      <path id="DejaVuSans-4d" transform="scale(.015625)" d="m628 4666h941l1190-3175 1197 3175h941v-4666h-616v4097l-1203-3200h-634l-1203 3200v-4097h-613v4666z"/>
     </defs>
     <use ns4:href="#DejaVuSans-4d"/>
     <use x="86.279297" ns4:href="#DejaVuSans-65"/>
     <use x="147.802734" ns4:href="#DejaVuSans-61"/>
     <use x="209.082031" ns4:href="#DejaVuSans-73"/>
     <use x="261.181641" ns4:href="#DejaVuSans-75"/>
     <use x="324.560547" ns4:href="#DejaVuSans-72"/>
     <use x="363.423828" ns4:href="#DejaVuSans-65"/>
     <use x="424.947266" ns4:href="#DejaVuSans-6d"/>
     <use x="522.359375" ns4:href="#DejaVuSans-65"/>
     <use x="583.882812" ns4:href="#DejaVuSans-6e"/>
     <use x="647.261719" ns4:href="#DejaVuSans-74"/>
     <use x="686.470703" ns4:href="#DejaVuSans-20"/>
     <use x="718.257812" ns4:href="#DejaVuSans-6f"/>
     <use x="779.439453" ns4:href="#DejaVuSans-6e"/>
     <use x="842.818359" ns4:href="#DejaVuSans-20"/>
     <use x="874.605469" ns4:href="#DejaVuSans-32"/>
     <use x="938.228516" ns4:href="#DejaVuSans-30"/>
     <use x="1001.851562" ns4:href="#DejaVuSans-32"/>
     <use x="1065.474609" ns4:href="#DejaVuSans-33"/>
     <use x="1129.097656" ns4:href="#DejaVuSans-2d"/>
     <use x="1165.181641" ns4:href="#DejaVuSans-30"/>
     <use x="1228.804688" ns4:href="#DejaVuSans-36"/>
     <use x="1292.427734" ns4:href="#DejaVuSans-2d"/>
     <use x="1328.511719" ns4:href="#DejaVuSans-32"/>
     <use x="1392.134766" ns4:href="#DejaVuSans-33"/>
    </g>
   </g>
   <g id="text_17">
    <g transform="translate(296.99 71.76) scale(.14 -.14)">
     <defs>
      <path id="DejaVuSans-67" transform="scale(.015625)" d="m2906 1791q0 625-258 968-257 344-723 344-462 0-720-344-258-343-258-968 0-622 258-966t720-344q466 0 723 344 258 344 258 966zm575-1357q0-893-397-1329-396-436-1215-436-303 0-572 45t-522 139v559q253-137 500-202 247-66 503-66 566 0 847 295t281 892v285q-178-310-456-463t-666-153q-643 0-1037 490-394 491-394 1301 0 812 394 1302 394 491 1037 491 388 0 666-153t456-462v531h575v-3066z"/>
      <path id="DejaVuSans-6b" transform="scale(.015625)" d="m581 4863h578v-2872l1716 1509h734l-1856-1637 1935-1863h-750l-1779 1709v-1709h-578v4863z"/>
      <path id="DejaVuSans-49" transform="scale(.015625)" d="m628 4666h631v-4666h-631v4666z"/>
      <path id="DejaVuSans-50" transform="scale(.015625)" d="m1259 4147v-1753h794q441 0 681 228 241 228 241 650 0 419-241 647-240 228-681 228h-794zm-631 519h1425q785 0 1186-355 402-355 402-1039 0-691-402-1044-401-353-1186-353h-794v-1875h-631v4666z"/>
      <path id="DejaVuSans-78" transform="scale(.015625)" d="m3513 3500-1266-1703 1331-1797h-678l-1019 1375-1018-1375h-679l1360 1831-1244 1669h678l928-1247 928 1247h679z"/>
      <path id="DejaVuSans-2c" transform="scale(.015625)" d="m750 794h659v-538l-512-1e3h-403l256 1e3v538z"/>
      <path id="DejaVuSans-64" transform="scale(.015625)" d="m2906 2969v1894h575v-4863h-575v525q-181-312-458-464-276-152-664-152-634 0-1033 506-398 507-398 1332t398 1331q399 506 1033 506 388 0 664-152 277-151 458-463zm-1959-1222q0-634 261-995t717-361 718 361q263 361 263 995t-263 995q-262 361-718 361t-717-361-261-995z"/>
      <path id="DejaVuSans-2e" transform="scale(.015625)" d="m684 794h660v-794h-660v794z"/>
     </defs>
     <use ns4:href="#DejaVuSans-4c"/>
     <use x="55.712891" ns4:href="#DejaVuSans-61"/>
     <use x="116.992188" ns4:href="#DejaVuSans-74"/>
     <use x="156.201172" ns4:href="#DejaVuSans-65"/>
     <use x="217.724609" ns4:href="#DejaVuSans-6e"/>
     <use x="281.103516" ns4:href="#DejaVuSans-63"/>
     <use x="336.083984" ns4:href="#DejaVuSans-79"/>
     <use x="395.263672" ns4:href="#DejaVuSans-20"/>
     <use x="427.050781" ns4:href="#DejaVuSans-68"/>
     <use x="490.429688" ns4:href="#DejaVuSans-69"/>
     <use x="518.212891" ns4:href="#DejaVuSans-73"/>
     <use x="570.3125" ns4:href="#DejaVuSans-74"/>
     <use x="609.521484" ns4:href="#DejaVuSans-6f"/>
     <use x="670.703125" ns4:href="#DejaVuSans-67"/>
     <use x="734.179688" ns4:href="#DejaVuSans-72"/>
     <use x="775.292969" ns4:href="#DejaVuSans-61"/>
     <use x="836.572266" ns4:href="#DejaVuSans-6d"/>
     <use x="933.984375" ns4:href="#DejaVuSans-20"/>
     <use x="965.771484" ns4:href="#DejaVuSans-6f"/>
     <use x="1026.953125" ns4:href="#DejaVuSans-66"/>
     <use x="1062.158203" ns4:href="#DejaVuSans-20"/>
     <use x="1093.945312" ns4:href="#DejaVuSans-72"/>
     <use x="1135.058594" ns4:href="#DejaVuSans-61"/>
     <use x="1196.337891" ns4:href="#DejaVuSans-63"/>
     <use x="1251.318359" ns4:href="#DejaVuSans-6b"/>
     <use x="1309.228516" ns4:href="#DejaVuSans-33"/>
     <use x="1372.851562" ns4:href="#DejaVuSans-73"/>
     <use x="1424.951172" ns4:href="#DejaVuSans-6c"/>
     <use x="1452.734375" ns4:href="#DejaVuSans-6f"/>
     <use x="1513.916016" ns4:href="#DejaVuSans-74"/>
     <use x="1553.125" ns4:href="#DejaVuSans-35"/>
     <use x="1616.748047" ns4:href="#DejaVuSans-20"/>
     <use x="1648.535156" ns4:href="#DejaVuSans-77"/>
     <use x="1730.322266" ns4:href="#DejaVuSans-69"/>
     <use x="1758.105469" ns4:href="#DejaVuSans-74"/>
     <use x="1797.314453" ns4:href="#DejaVuSans-68"/>
     <use x="1860.693359" ns4:href="#DejaVuSans-20"/>
     <use x="1892.480469" ns4:href="#DejaVuSans-49"/>
     <use x="1921.972656" ns4:href="#DejaVuSans-6e"/>
     <use x="1985.351562" ns4:href="#DejaVuSans-74"/>
     <use x="2024.560547" ns4:href="#DejaVuSans-65"/>
     <use x="2086.083984" ns4:href="#DejaVuSans-6c"/>
     <use x="2113.867188" ns4:href="#DejaVuSans-20"/>
     <use x="2145.654297" ns4:href="#DejaVuSans-50"/>
     <use x="2202.332031" ns4:href="#DejaVuSans-65"/>
     <use x="2263.855469" ns4:href="#DejaVuSans-6e"/>
     <use x="2327.234375" ns4:href="#DejaVuSans-74"/>
     <use x="2366.443359" ns4:href="#DejaVuSans-69"/>
     <use x="2394.226562" ns4:href="#DejaVuSans-75"/>
     <use x="2457.605469" ns4:href="#DejaVuSans-6d"/>
     <use x="2555.017578" ns4:href="#DejaVuSans-20"/>
     <use x="2586.804688" ns4:href="#DejaVuSans-28"/>
     <use x="2625.818359" ns4:href="#DejaVuSans-78"/>
     <use x="2684.998047" ns4:href="#DejaVuSans-38"/>
     <use x="2748.621094" ns4:href="#DejaVuSans-36"/>
     <use x="2812.244141" ns4:href="#DejaVuSans-29"/>
     <use x="2851.257812" ns4:href="#DejaVuSans-2c"/>
     <use x="2883.044922" ns4:href="#DejaVuSans-20"/>
     <use x="2914.832031" ns4:href="#DejaVuSans-70"/>
     <use x="2978.308594" ns4:href="#DejaVuSans-61"/>
     <use x="3039.587891" ns4:href="#DejaVuSans-74"/>
     <use x="3078.796875" ns4:href="#DejaVuSans-63"/>
     <use x="3133.777344" ns4:href="#DejaVuSans-68"/>
     <use x="3197.15625" ns4:href="#DejaVuSans-65"/>
     <use x="3258.679688" ns4:href="#DejaVuSans-64"/>
     <use x="3322.15625" ns4:href="#DejaVuSans-20"/>
     <use x="3353.943359" ns4:href="#DejaVuSans-6b"/>
     <use x="3408.228516" ns4:href="#DejaVuSans-65"/>
     <use x="3469.751953" ns4:href="#DejaVuSans-72"/>
     <use x="3509.115234" ns4:href="#DejaVuSans-6e"/>
     <use x="3572.494141" ns4:href="#DejaVuSans-65"/>
     <use x="3634.017578" ns4:href="#DejaVuSans-6c"/>
     <use x="3661.800781" ns4:href="#DejaVuSans-20"/>
     <use x="3693.587891" ns4:href="#DejaVuSans-34"/>
     <use x="3757.210938" ns4:href="#DejaVuSans-2e"/>
     <use x="3788.998047" ns4:href="#DejaVuSans-31"/>
     <use x="3852.621094" ns4:href="#DejaVuSans-38"/>
     <use x="3916.244141" ns4:href="#DejaVuSans-2e"/>
     <use x="3948.03125" ns4:href="#DejaVuSans-37"/>
     <use x="4011.654297" ns4:href="#DejaVuSans-2d"/>
     <use x="4047.738281" ns4:href="#DejaVuSans-72"/>
     <use x="4088.851562" ns4:href="#DejaVuSans-74"/>
     <use x="4128.060547" ns4:href="#DejaVuSans-35"/>
    </g>
   </g>
   <g id="legend_1">
    <g id="patch_7">
     <path d="m910 100.44h119.8q2 0 2-2v-13.678q0-2-2-2h-119.8q-2 0-2 2v13.678q0 2 2 2z" fill="#fff" opacity=".8" stroke="#ccc"/>
    </g>
    <g id="line2d_42" cursor="pointer" stroke-width="8px" onclick="toggle_stairsfromline(event, this)">
     <path d="m912 90.858h20" fill="none" stroke="#1f77b4" stroke-linecap="square"/>
    </g>
    <g id="text_18">
     <g transform="translate(940 94.358) scale(.1 -.1)" fill="#f00">
      <defs>
       <path id="DejaVuSans-43" transform="scale(.015625)" d="m4122 4306v-665q-319 297-680 443-361 147-767 147-800 0-1225-489t-425-1414q0-922 425-1411t1225-489q406 0 767 147t680 444v-660q-331-225-702-338-370-112-782-112-1060 0-1670 648-609 649-609 1771 0 1125 609 1773 610 649 1670 649 418 0 788-111 371-111 696-333z"/>
       <path id="DejaVuSans-23" transform="scale(.015625)" d="m3272 2816h-909l-263-1044h916l256 1044zm-469 1778-325-1297h913l328 1297h500l-322-1297h975v-481h-1097l-256-1044h994v-478h-1116l-325-1294h-500l322 1294h-916l-322-1294h-503l325 1294h-984v478h1100l262 1044h-1006v481h1128l319 1297h506z"/>
       <path id="DejaVuSans-3a" transform="scale(.015625)" d="m750 794h659v-794h-659v794zm0 2515h659v-793h-659v793z"/>
      </defs>
      <use ns4:href="#DejaVuSans-43"/>
      <use x="69.824219" ns4:href="#DejaVuSans-6f"/>
      <use x="131.005859" ns4:href="#DejaVuSans-72"/>
      <use x="169.869141" ns4:href="#DejaVuSans-65"/>
      <use x="231.392578" ns4:href="#DejaVuSans-20"/>
      <use x="263.179688" ns4:href="#DejaVuSans-23"/>
      <use x="346.96875" ns4:href="#DejaVuSans-30"/>
      <use x="410.591797" ns4:href="#DejaVuSans-3a"/>
      <use x="444.283203" ns4:href="#DejaVuSans-20"/>
      <use x="476.070312" ns4:href="#DejaVuSans-20"/>
      <use x="507.857422" ns4:href="#DejaVuSans-20"/>
      <use x="539.644531" ns4:href="#DejaVuSans-35"/>
      <use x="603.267578" ns4:href="#DejaVuSans-38"/>
      <use x="666.890625" ns4:href="#DejaVuSans-36"/>
      <use x="730.513672" ns4:href="#DejaVuSans-20"/>
      <use x="762.300781" ns4:href="#DejaVuSans-b5"/>
      <use x="825.923828" ns4:href="#DejaVuSans-73"/>
      <path d="m0-11h885.92v91h-885.92z" cursor="pointer" opacity="0" onclick="toggle_stairsfromtext(event, this)"/>
     </g>
    </g>
   </g>
  </g>
 </g>
 <defs>
  <clipPath id="p245af40791">
   <rect x="144" y="77.76" width="892.8" height="498.96"/>
  </clipPath>
 </defs>
</svg>
