<?xml version="1.0" encoding="utf-8" standalone="no"?>
<!DOCTYPE svg PUBLIC "-//W3C//DTD SVG 1.1//EN"
  "http://www.w3.org/Graphics/SVG/1.1/DTD/svg11.dtd">
<svg xmlns:xlink="http://www.w3.org/1999/xlink" width="1152pt" height="648pt" viewBox="0 0 1152 648" xmlns="http://www.w3.org/2000/svg" version="1.1">
 <metadata>
  <rdf:RDF xmlns:dc="http://purl.org/dc/elements/1.1/" xmlns:cc="http://creativecommons.org/ns#" xmlns:rdf="http://www.w3.org/1999/02/22-rdf-syntax-ns#">
   <cc:Work>
    <dc:type rdf:resource="http://purl.org/dc/dcmitype/StillImage"/>
    <dc:date>2023-06-19T20:05:44.760747</dc:date>
    <dc:format>image/svg+xml</dc:format>
    <dc:creator>
     <cc:Agent>
      <dc:title>Matplotlib v3.5.3, https://matplotlib.org/</dc:title>
     </cc:Agent>
    </dc:creator>
   </cc:Work>
  </rdf:RDF>
 </metadata>
 <defs>
  <style type="text/css">*{stroke-linejoin: round; stroke-linecap: butt}</style>
 </defs>
 <g id="figure_1">
  <g id="patch_1">
   <path d="M 0 648 
L 1152 648 
L 1152 0 
L 0 0 
z
" style="fill: #ffffff"/>
  </g>
  <g id="axes_1">
   <g id="patch_2">
    <path d="M 144 576.72 
L 1036.8 576.72 
L 1036.8 77.76 
L 144 77.76 
z
" style="fill: #ffffff"/>
   </g>
   <g id="patch_3">
    <path d="M 251.136 649 
L 251.136 569.784484 
L 252.0288 569.784484 
L 252.0288 492.551194 
L 252.9216 492.551194 
L 252.9216 481.725487 
L 253.8144 481.725487 
L 253.8144 478.268488 
L 254.7072 478.268488 
L 254.7072 471.007513 
L 255.6 471.007513 
L 255.6 473.711911 
L 256.4928 473.711911 
L 256.4928 478.268488 
L 257.3856 478.268488 
L 257.3856 468.519709 
L 258.2784 468.519709 
L 258.2784 476.674243 
L 259.1712 476.674243 
L 259.1712 478.268488 
L 260.064 478.268488 
L 260.064 466.216362 
L 260.9568 466.216362 
L 260.9568 469.738726 
L 261.8496 469.738726 
L 261.8496 478.268488 
L 262.7424 478.268488 
L 262.7424 469.738726 
L 263.6352 469.738726 
L 263.6352 483.609759 
L 264.528 483.609759 
L 264.528 468.519709 
L 265.4208 468.519709 
L 265.4208 462.066078 
L 266.3136 462.066078 
L 266.3136 471.007513 
L 267.2064 471.007513 
L 267.2064 460.181806 
L 268.0992 460.181806 
L 268.0992 450.786626 
L 268.992 450.786626 
L 268.992 436.01 
L 269.8848 436.01 
L 269.8848 426.035879 
L 270.7776 426.035879 
L 270.7776 409.080867 
L 271.6704 409.080867 
L 271.6704 403.004787 
L 272.5632 403.004787 
L 272.5632 400.494646 
L 273.456 400.494646 
L 273.456 398.421814 
L 274.3488 398.421814 
L 274.3488 399.311718 
L 275.2416 399.311718 
L 275.2416 398.29674 
L 276.1344 398.29674 
L 276.1344 390.402541 
L 277.0272 390.402541 
L 277.0272 379.085224 
L 277.92 379.085224 
L 277.92 367.62495 
L 278.8128 367.62495 
L 278.8128 356.843065 
L 279.7056 356.843065 
L 279.7056 255.680924 
L 280.5984 255.680924 
L 280.5984 147.464372 
L 281.4912 147.464372 
L 281.4912 103.36069 
L 282.384 103.36069 
L 282.384 102.698689 
L 283.2768 102.698689 
L 283.2768 140.647464 
L 284.1696 140.647464 
L 284.1696 213.007842 
L 285.0624 213.007842 
L 285.0624 260.25748 
L 285.9552 260.25748 
L 285.9552 172.688727 
L 286.848 172.688727 
L 286.848 136.222636 
L 287.7408 136.222636 
L 287.7408 142.025895 
L 288.6336 142.025895 
L 288.6336 155.29582 
L 289.5264 155.29582 
L 289.5264 169.977286 
L 290.4192 169.977286 
L 290.4192 200.800279 
L 291.312 200.800279 
L 291.312 241.387999 
L 292.2048 241.387999 
L 292.2048 275.258691 
L 293.0976 275.258691 
L 293.0976 266.550449 
L 293.9904 266.550449 
L 293.9904 239.843596 
L 294.8832 239.843596 
L 294.8832 236.415022 
L 295.776 236.415022 
L 295.776 245.503159 
L 296.6688 245.503159 
L 296.6688 246.92279 
L 297.5616 246.92279 
L 297.5616 243.818894 
L 298.4544 243.818894 
L 298.4544 240.207901 
L 299.3472 240.207901 
L 299.3472 239.415753 
L 300.24 239.415753 
L 300.24 243.204582 
L 301.1328 243.204582 
L 301.1328 246.769964 
L 302.0256 246.769964 
L 302.0256 247.68564 
L 302.9184 247.68564 
L 302.9184 245.914772 
L 303.8112 245.914772 
L 303.8112 239.247748 
L 304.704 239.247748 
L 304.704 209.977736 
L 305.5968 209.977736 
L 305.5968 185.587871 
L 306.4896 185.587871 
L 306.4896 191.401361 
L 307.3824 191.401361 
L 307.3824 206.814976 
L 308.2752 206.814976 
L 308.2752 211.894548 
L 309.168 211.894548 
L 309.168 198.601381 
L 310.0608 198.601381 
L 310.0608 184.018435 
L 310.9536 184.018435 
L 310.9536 185.365625 
L 311.8464 185.365625 
L 311.8464 190.247728 
L 312.7392 190.247728 
L 312.7392 190.442989 
L 313.632 190.442989 
L 313.632 189.248814 
L 314.5248 189.248814 
L 314.5248 187.501384 
L 315.4176 187.501384 
L 315.4176 185.838805 
L 316.3104 185.838805 
L 316.3104 184.300219 
L 317.2032 184.300219 
L 317.2032 183.016962 
L 318.096 183.016962 
L 318.096 182.191608 
L 318.9888 182.191608 
L 318.9888 181.684782 
L 319.8816 181.684782 
L 319.8816 181.849424 
L 320.7744 181.849424 
L 320.7744 182.42128 
L 321.6672 182.42128 
L 321.6672 183.23482 
L 322.56 183.23482 
L 322.56 184.435726 
L 323.4528 184.435726 
L 323.4528 185.713753 
L 324.3456 185.713753 
L 324.3456 187.163973 
L 325.2384 187.163973 
L 325.2384 188.689891 
L 326.1312 188.689891 
L 326.1312 190.056453 
L 327.024 190.056453 
L 327.024 191.492471 
L 327.9168 191.492471 
L 327.9168 193.090425 
L 328.8096 193.090425 
L 328.8096 195.034706 
L 329.7024 195.034706 
L 329.7024 197.542881 
L 330.5952 197.542881 
L 330.5952 200.957428 
L 331.488 200.957428 
L 331.488 205.474052 
L 332.3808 205.474052 
L 332.3808 209.91829 
L 333.2736 209.91829 
L 333.2736 214.234668 
L 334.1664 214.234668 
L 334.1664 218.3331 
L 335.0592 218.3331 
L 335.0592 222.603617 
L 335.952 222.603617 
L 335.952 225.905872 
L 336.8448 225.905872 
L 336.8448 229.326516 
L 337.7376 229.326516 
L 337.7376 234.890676 
L 338.6304 234.890676 
L 338.6304 240.926671 
L 339.5232 240.926671 
L 339.5232 246.826231 
L 340.416 246.826231 
L 340.416 251.41362 
L 341.3088 251.41362 
L 341.3088 253.190484 
L 342.2016 253.190484 
L 342.2016 255.975496 
L 343.0944 255.975496 
L 343.0944 263.138305 
L 343.9872 263.138305 
L 343.9872 270.463455 
L 344.88 270.463455 
L 344.88 277.243649 
L 345.7728 277.243649 
L 345.7728 281.34861 
L 346.6656 281.34861 
L 346.6656 286.737744 
L 347.5584 286.737744 
L 347.5584 291.945933 
L 348.4512 291.945933 
L 348.4512 295.132447 
L 349.344 295.132447 
L 349.344 300.007262 
L 350.2368 300.007262 
L 350.2368 303.813037 
L 351.1296 303.813037 
L 351.1296 306.932214 
L 352.0224 306.932214 
L 352.0224 310.025536 
L 352.9152 310.025536 
L 352.9152 310.920706 
L 353.808 310.920706 
L 353.808 315.917692 
L 354.7008 315.917692 
L 354.7008 318.527674 
L 355.5936 318.527674 
L 355.5936 321.471796 
L 356.4864 321.471796 
L 356.4864 323.474203 
L 357.3792 323.474203 
L 357.3792 327.411641 
L 358.272 327.411641 
L 358.272 330.834136 
L 360.0576 330.80566 
L 360.0576 330.991219 
L 361.8432 331.034198 
L 361.8432 329.319047 
L 362.736 329.319047 
L 362.736 329.769999 
L 363.6288 329.769999 
L 363.6288 331.177892 
L 364.5216 331.177892 
L 364.5216 330.777211 
L 365.4144 330.777211 
L 365.4144 332.501938 
L 366.3072 332.501938 
L 366.3072 331.467288 
L 367.2 331.467288 
L 367.2 331.686118 
L 368.0928 331.686118 
L 368.0928 331.163492 
L 368.9856 331.163492 
L 368.9856 330.635353 
L 369.8784 330.635353 
L 369.8784 329.89413 
L 370.7712 329.89413 
L 370.7712 327.233526 
L 371.664 327.233526 
L 371.664 321.178083 
L 372.5568 321.178083 
L 372.5568 313.689992 
L 373.4496 313.689992 
L 373.4496 306.682355 
L 374.3424 306.682355 
L 374.3424 305.105469 
L 375.2352 305.105469 
L 375.2352 304.10702 
L 376.128 304.10702 
L 376.128 305.9702 
L 377.0208 305.9702 
L 377.0208 306.285419 
L 377.9136 306.285419 
L 377.9136 304.53799 
L 378.8064 304.53799 
L 378.8064 303.920708 
L 379.6992 303.920708 
L 379.6992 302.526341 
L 380.592 302.526341 
L 380.592 302.110897 
L 381.4848 302.110897 
L 381.4848 302.480541 
L 382.3776 302.480541 
L 382.3776 303.256737 
L 384.1632 303.180579 
L 384.1632 303.622538 
L 385.056 303.622538 
L 385.056 303.884776 
L 385.9488 303.884776 
L 385.9488 304.179441 
L 386.8416 304.179441 
L 386.8416 305.198983 
L 387.7344 305.198983 
L 387.7344 305.721576 
L 388.6272 305.721576 
L 388.6272 307.210731 
L 389.52 307.210731 
L 389.52 308.10268 
L 390.4128 308.10268 
L 390.4128 308.226317 
L 391.3056 308.226317 
L 391.3056 308.725844 
L 392.1984 308.725844 
L 392.1984 309.720747 
L 393.0912 309.720747 
L 393.0912 311.481147 
L 393.984 311.481147 
L 393.984 313.088669 
L 394.8768 313.088669 
L 394.8768 312.561995 
L 395.7696 312.561995 
L 395.7696 274.000199 
L 396.6624 274.000199 
L 396.6624 209.192607 
L 397.5552 209.192607 
L 397.5552 168.892307 
L 398.448 168.892307 
L 398.448 155.776366 
L 399.3408 155.776366 
L 399.3408 159.995311 
L 400.2336 159.995311 
L 400.2336 167.767402 
L 401.1264 167.767402 
L 401.1264 181.033647 
L 402.0192 181.033647 
L 402.0192 207.116784 
L 402.912 207.116784 
L 402.912 229.007978 
L 403.8048 229.007978 
L 403.8048 242.349069 
L 404.6976 242.349069 
L 404.6976 253.917009 
L 405.5904 253.917009 
L 405.5904 261.012123 
L 406.4832 261.012123 
L 406.4832 276.528073 
L 407.376 276.528073 
L 407.376 296.090977 
L 408.2688 296.090977 
L 408.2688 309.028046 
L 409.1616 309.028046 
L 409.1616 316.050196 
L 410.0544 316.050196 
L 410.0544 293.359421 
L 410.9472 293.359421 
L 410.9472 245.509563 
L 411.84 245.509563 
L 411.84 217.297948 
L 412.7328 217.297948 
L 412.7328 206.282106 
L 413.6256 206.282106 
L 413.6256 206.657299 
L 414.5184 206.657299 
L 414.5184 219.321469 
L 415.4112 219.321469 
L 415.4112 249.010781 
L 416.304 249.010781 
L 416.304 285.089596 
L 417.1968 285.089596 
L 417.1968 299.338266 
L 418.0896 299.338266 
L 418.0896 293.329575 
L 418.9824 293.329575 
L 418.9824 279.51946 
L 419.8752 279.51946 
L 419.8752 266.025547 
L 420.768 266.025547 
L 420.768 260.517376 
L 421.6608 260.517376 
L 421.6608 263.199673 
L 422.5536 263.199673 
L 422.5536 273.970467 
L 423.4464 273.970467 
L 423.4464 288.274708 
L 424.3392 288.274708 
L 424.3392 303.052121 
L 425.232 303.052121 
L 425.232 313.706407 
L 426.1248 313.706407 
L 426.1248 318.8263 
L 427.0176 318.8263 
L 427.0176 323.949941 
L 427.9104 323.949941 
L 427.9104 328.004168 
L 428.8032 328.004168 
L 428.8032 329.089267 
L 429.696 329.089267 
L 429.696 325.053661 
L 430.5888 325.053661 
L 430.5888 321.188525 
L 431.4816 321.188525 
L 431.4816 315.900067 
L 432.3744 315.900067 
L 432.3744 308.725844 
L 433.2672 308.725844 
L 433.2672 301.936142 
L 434.16 301.936142 
L 434.16 299.333096 
L 435.0528 299.333096 
L 435.0528 298.121437 
L 435.9456 298.121437 
L 435.9456 296.188943 
L 436.8384 296.188943 
L 436.8384 294.715247 
L 437.7312 294.715247 
L 437.7312 293.719834 
L 438.624 293.719834 
L 438.624 293.453412 
L 439.5168 293.453412 
L 439.5168 293.19774 
L 441.3024 293.104519 
L 441.3024 293.8886 
L 442.1952 293.8886 
L 442.1952 292.864282 
L 443.088 292.864282 
L 443.088 289.122874 
L 443.9808 289.122874 
L 443.9808 284.955844 
L 444.8736 284.955844 
L 444.8736 277.452623 
L 445.7664 277.452623 
L 445.7664 268.523975 
L 446.6592 268.523975 
L 446.6592 260.573776 
L 447.552 260.573776 
L 447.552 255.707588 
L 449.3376 255.71267 
L 449.3376 259.101363 
L 450.2304 259.101363 
L 450.2304 261.703787 
L 451.1232 261.703787 
L 451.1232 262.591384 
L 452.016 262.591384 
L 452.016 262.906849 
L 452.9088 262.906849 
L 452.9088 262.710502 
L 453.8016 262.710502 
L 453.8016 261.67453 
L 454.6944 261.67453 
L 454.6944 261.19345 
L 455.5872 261.19345 
L 455.5872 259.970586 
L 456.48 259.970586 
L 456.48 259.720985 
L 457.3728 259.720985 
L 457.3728 259.897821 
L 458.2656 259.897821 
L 458.2656 259.320324 
L 459.1584 259.320324 
L 459.1584 259.784646 
L 460.944 259.702201 
L 460.944 259.960389 
L 461.8368 259.960389 
L 461.8368 260.597554 
L 463.6224 260.560409 
L 463.6224 261.494973 
L 464.5152 261.494973 
L 464.5152 262.0773 
L 465.408 262.0773 
L 465.408 262.228911 
L 467.1936 262.33721 
L 467.1936 263.097998 
L 468.0864 263.097998 
L 468.0864 263.330888 
L 469.872 263.23202 
L 469.872 263.594992 
L 471.6576 263.49365 
L 471.6576 263.322772 
L 472.5504 263.322772 
L 472.5504 262.85245 
L 473.4432 262.85245 
L 473.4432 261.697626 
L 474.336 261.697626 
L 474.336 259.755693 
L 475.2288 259.755693 
L 475.2288 257.885724 
L 476.1216 257.885724 
L 476.1216 255.88977 
L 477.0144 255.88977 
L 477.0144 253.329023 
L 477.9072 253.329023 
L 477.9072 251.223906 
L 478.8 251.223906 
L 478.8 249.31849 
L 479.6928 249.31849 
L 479.6928 247.730813 
L 480.5856 247.730813 
L 480.5856 246.572407 
L 481.4784 246.572407 
L 481.4784 245.19459 
L 482.3712 245.19459 
L 482.3712 244.337032 
L 483.264 244.337032 
L 483.264 243.651244 
L 484.1568 243.651244 
L 484.1568 242.979418 
L 485.0496 242.979418 
L 485.0496 242.833847 
L 485.9424 242.833847 
L 485.9424 242.469142 
L 488.6208 242.51647 
L 488.6208 242.970985 
L 489.5136 242.970985 
L 489.5136 243.548852 
L 490.4064 243.548852 
L 490.4064 244.007499 
L 491.2992 244.007499 
L 491.2992 245.780653 
L 492.192 245.780653 
L 492.192 246.831959 
L 493.0848 246.831959 
L 493.0848 248.862647 
L 493.9776 248.862647 
L 493.9776 250.998205 
L 494.8704 250.998205 
L 494.8704 253.218611 
L 495.7632 253.218611 
L 495.7632 255.894881 
L 496.656 255.894881 
L 496.656 258.557831 
L 497.5488 258.557831 
L 497.5488 261.015136 
L 498.4416 261.015136 
L 498.4416 264.10672 
L 499.3344 264.10672 
L 499.3344 267.29758 
L 500.2272 267.29758 
L 500.2272 270.596477 
L 501.12 270.596477 
L 501.12 273.397415 
L 502.0128 273.397415 
L 502.0128 276.372093 
L 502.9056 276.372093 
L 502.9056 280.154463 
L 503.7984 280.154463 
L 503.7984 283.649059 
L 504.6912 283.649059 
L 504.6912 287.764584 
L 505.584 287.764584 
L 505.584 291.641712 
L 506.4768 291.641712 
L 506.4768 296.395213 
L 507.3696 296.395213 
L 507.3696 300.086611 
L 508.2624 300.086611 
L 508.2624 305.456034 
L 509.1552 305.456034 
L 509.1552 310.193719 
L 510.048 310.193719 
L 510.048 313.518161 
L 510.9408 313.518161 
L 510.9408 319.108282 
L 511.8336 319.108282 
L 511.8336 323.927121 
L 512.7264 323.927121 
L 512.7264 327.309736 
L 513.6192 327.309736 
L 513.6192 330.185711 
L 514.512 330.185711 
L 514.512 336.082069 
L 515.4048 336.082069 
L 515.4048 339.918341 
L 516.2976 339.918341 
L 516.2976 343.665129 
L 517.1904 343.665129 
L 517.1904 348.348845 
L 518.0832 348.348845 
L 518.0832 350.178423 
L 518.976 350.178423 
L 518.976 354.075693 
L 519.8688 354.075693 
L 519.8688 357.407284 
L 520.7616 357.407284 
L 520.7616 360.876107 
L 521.6544 360.876107 
L 521.6544 363.984826 
L 522.5472 363.984826 
L 522.5472 367.393174 
L 523.44 367.393174 
L 523.44 371.169656 
L 524.3328 371.169656 
L 524.3328 371.961907 
L 525.2256 371.961907 
L 525.2256 376.013001 
L 526.1184 376.013001 
L 526.1184 379.287707 
L 527.0112 379.287707 
L 527.0112 382.872431 
L 527.904 382.872431 
L 527.904 385.076562 
L 528.7968 385.076562 
L 528.7968 386.495268 
L 529.6896 386.495268 
L 529.6896 388.983073 
L 530.5824 388.983073 
L 530.5824 391.087819 
L 531.4752 391.087819 
L 531.4752 396.244047 
L 532.368 396.244047 
L 532.368 398.29674 
L 533.2608 398.29674 
L 533.2608 399.054849 
L 534.1536 399.054849 
L 534.1536 402.004394 
L 535.0464 402.004394 
L 535.0464 403.888665 
L 535.9392 403.888665 
L 535.9392 404.340213 
L 536.832 404.340213 
L 536.832 412.6315 
L 537.7248 412.6315 
L 537.7248 409.795403 
L 538.6176 409.795403 
L 538.6176 415.317905 
L 539.5104 415.317905 
L 539.5104 415.972265 
L 540.4032 415.972265 
L 540.4032 413.029979 
L 541.296 413.029979 
L 541.296 413.433634 
L 542.1888 413.433634 
L 542.1888 418.736839 
L 543.0816 418.736839 
L 543.0816 419.222489 
L 543.9744 419.222489 
L 543.9744 423.407754 
L 544.8672 423.407754 
L 544.8672 425.732648 
L 545.76 425.732648 
L 545.76 423.972878 
L 546.6528 423.972878 
L 546.6528 419.222489 
L 547.5456 419.222489 
L 547.5456 427.920151 
L 548.4384 427.920151 
L 548.4384 428.245609 
L 549.3312 428.245609 
L 549.3312 431.702609 
L 550.224 431.702609 
L 550.224 428.906931 
L 551.1168 428.906931 
L 551.1168 433.977841 
L 552.0096 433.977841 
L 552.0096 424.84031 
L 552.9024 424.84031 
L 552.9024 443.050697 
L 553.7952 443.050697 
L 553.7952 437.296292 
L 554.688 437.296292 
L 554.688 437.737164 
L 555.5808 437.737164 
L 555.5808 433.977841 
L 556.4736 433.977841 
L 556.4736 437.737164 
L 557.3664 437.737164 
L 557.3664 440.040511 
L 558.2592 440.040511 
L 558.2592 443.050697 
L 559.152 443.050697 
L 559.152 436.01 
L 560.0448 436.01 
L 560.0448 442.014569 
L 560.9376 442.014569 
L 560.9376 444.122561 
L 561.8304 444.122561 
L 561.8304 448.195045 
L 562.7232 448.195045 
L 562.7232 444.122561 
L 563.616 444.122561 
L 563.616 449.463832 
L 564.5088 449.463832 
L 564.5088 452.168229 
L 565.4016 452.168229 
L 565.4016 444.122561 
L 567.1872 444.122561 
L 567.1872 453.614116 
L 568.08 453.614116 
L 568.08 458.405268 
L 568.9728 458.405268 
L 568.9728 452.168229 
L 569.8656 452.168229 
L 569.8656 443.050697 
L 571.6512 443.050697 
L 571.6512 447.57956 
L 572.544 447.57956 
L 572.544 459.280846 
L 573.4368 459.280846 
L 573.4368 460.181806 
L 574.3296 460.181806 
L 574.3296 448.822965 
L 575.2224 448.822965 
L 575.2224 450.118192 
L 576.1152 450.118192 
L 576.1152 459.280846 
L 577.008 459.280846 
L 577.008 456.724806 
L 577.9008 456.724806 
L 577.9008 462.066078 
L 578.7936 462.066078 
L 578.7936 469.738726 
L 579.6864 469.738726 
L 579.6864 459.280846 
L 580.5792 459.280846 
L 580.5792 483.609759 
L 581.472 483.609759 
L 581.472 462.066078 
L 582.3648 462.066078 
L 582.3648 471.007513 
L 583.2576 471.007513 
L 583.2576 472.330307 
L 584.1504 472.330307 
L 584.1504 481.725487 
L 585.0432 481.725487 
L 585.0432 476.674243 
L 585.936 476.674243 
L 585.936 479.948949 
L 586.8288 479.948949 
L 586.8288 485.615678 
L 587.7216 485.615678 
L 587.7216 487.760043 
L 588.6144 487.760043 
L 588.6144 479.948949 
L 590.4 479.948949 
L 590.4 485.615678 
L 591.2928 485.615678 
L 591.2928 492.551194 
L 592.1856 492.551194 
L 592.1856 495.255592 
L 593.0784 495.255592 
L 593.0784 487.760043 
L 593.9712 487.760043 
L 593.9712 505.15344 
L 594.864 505.15344 
L 594.864 509.303724 
L 596.6496 509.303724 
L 596.6496 487.760043 
L 597.5424 487.760043 
L 597.5424 495.255592 
L 599.328 495.255592 
L 599.328 492.551194 
L 601.1136 492.551194 
L 601.1136 514.094876 
L 602.0064 514.094876 
L 602.0064 505.15344 
L 602.8992 505.15344 
L 602.8992 498.217924 
L 603.792 498.217924 
L 603.792 514.094876 
L 605.5776 514.094876 
L 605.5776 501.49263 
L 606.4704 501.49263 
L 606.4704 509.303724 
L 607.3632 509.303724 
L 607.3632 519.761605 
L 608.256 519.761605 
L 608.256 569.784484 
L 609.1488 569.784484 
L 609.1488 526.697121 
L 610.0416 526.697121 
L 610.0416 501.49263 
L 610.9344 501.49263 
L 610.9344 490.06339 
L 611.8272 490.06339 
L 611.8272 519.761605 
L 612.72 519.761605 
L 612.72 535.638557 
L 613.6128 535.638557 
L 613.6128 548.240803 
L 614.5056 548.240803 
L 614.5056 519.761605 
L 615.3984 519.761605 
L 615.3984 548.240803 
L 616.2912 548.240803 
L 616.2912 569.784484 
L 617.184 569.784484 
L 617.184 514.094876 
L 618.0768 514.094876 
L 618.0768 548.240803 
L 618.9696 548.240803 
L 618.9696 535.638557 
L 621.648 535.638557 
L 621.648 569.784484 
L 622.5408 569.784484 
L 622.5408 535.638557 
L 623.4336 535.638557 
L 623.4336 569.784484 
L 624.3264 569.784484 
L 624.3264 649 
M 625.2192 649 
L 625.2192 548.240803 
L 627.0048 548.240803 
L 627.0048 649 
M 628.7904 649 
L 628.7904 548.240803 
L 629.6832 548.240803 
L 629.6832 569.784484 
L 630.576 569.784484 
L 630.576 649 
M 632.3616 649 
L 632.3616 548.240803 
L 634.1472 548.240803 
L 634.1472 649 
M 635.04 649 
L 635.04 569.784484 
L 635.9328 569.784484 
L 635.9328 649 
M 636.8256 649 
L 636.8256 569.784484 
L 637.7184 569.784484 
L 637.7184 649 
M 639.504 649 
L 639.504 569.784484 
L 640.3968 569.784484 
L 640.3968 649 
M 642.1824 649 
L 642.1824 569.784484 
L 643.0752 569.784484 
L 643.0752 649 
M 643.968 649 
L 643.968 569.784484 
L 644.8608 569.784484 
L 644.8608 649 
M 649.3248 649 
L 649.3248 569.784484 
L 650.2176 569.784484 
L 650.2176 649 
L 650.2176 649 
" clip-path="url(#pe69480d873)" style="fill: none; stroke: #1f77b4; stroke-linejoin: miter"/>
   </g>
   <g id="matplotlib.axis_1">
    <g id="xtick_1">
     <g id="line2d_1">
      <defs>
       <path id="m36238dddd7" d="M 0 0 
L 0 3.5 
" style="stroke: #000000; stroke-width: 0.8"/>
      </defs>
      <g>
       <use xlink:href="#m36238dddd7" x="144" y="576.72" style="stroke: #000000; stroke-width: 0.8"/>
      </g>
     </g>
     <g id="text_1">
      <!-- 0 -->
      <g transform="translate(140.81875 591.318438)scale(0.1 -0.1)">
       <defs>
        <path id="DejaVuSans-30" d="M 2034 4250 
Q 1547 4250 1301 3770 
Q 1056 3291 1056 2328 
Q 1056 1369 1301 889 
Q 1547 409 2034 409 
Q 2525 409 2770 889 
Q 3016 1369 3016 2328 
Q 3016 3291 2770 3770 
Q 2525 4250 2034 4250 
z
M 2034 4750 
Q 2819 4750 3233 4129 
Q 3647 3509 3647 2328 
Q 3647 1150 3233 529 
Q 2819 -91 2034 -91 
Q 1250 -91 836 529 
Q 422 1150 422 2328 
Q 422 3509 836 4129 
Q 1250 4750 2034 4750 
z
" transform="scale(0.015625)"/>
       </defs>
       <use xlink:href="#DejaVuSans-30"/>
      </g>
     </g>
    </g>
    <g id="xtick_2">
     <g id="line2d_2">
      <g>
       <use xlink:href="#m36238dddd7" x="322.56" y="576.72" style="stroke: #000000; stroke-width: 0.8"/>
      </g>
     </g>
     <g id="text_2">
      <!-- 200 -->
      <g transform="translate(313.01625 591.318438)scale(0.1 -0.1)">
       <defs>
        <path id="DejaVuSans-32" d="M 1228 531 
L 3431 531 
L 3431 0 
L 469 0 
L 469 531 
Q 828 903 1448 1529 
Q 2069 2156 2228 2338 
Q 2531 2678 2651 2914 
Q 2772 3150 2772 3378 
Q 2772 3750 2511 3984 
Q 2250 4219 1831 4219 
Q 1534 4219 1204 4116 
Q 875 4013 500 3803 
L 500 4441 
Q 881 4594 1212 4672 
Q 1544 4750 1819 4750 
Q 2544 4750 2975 4387 
Q 3406 4025 3406 3419 
Q 3406 3131 3298 2873 
Q 3191 2616 2906 2266 
Q 2828 2175 2409 1742 
Q 1991 1309 1228 531 
z
" transform="scale(0.015625)"/>
       </defs>
       <use xlink:href="#DejaVuSans-32"/>
       <use xlink:href="#DejaVuSans-30" x="63.623047"/>
       <use xlink:href="#DejaVuSans-30" x="127.246094"/>
      </g>
     </g>
    </g>
    <g id="xtick_3">
     <g id="line2d_3">
      <g>
       <use xlink:href="#m36238dddd7" x="501.12" y="576.72" style="stroke: #000000; stroke-width: 0.8"/>
      </g>
     </g>
     <g id="text_3">
      <!-- 400 -->
      <g transform="translate(491.57625 591.318438)scale(0.1 -0.1)">
       <defs>
        <path id="DejaVuSans-34" d="M 2419 4116 
L 825 1625 
L 2419 1625 
L 2419 4116 
z
M 2253 4666 
L 3047 4666 
L 3047 1625 
L 3713 1625 
L 3713 1100 
L 3047 1100 
L 3047 0 
L 2419 0 
L 2419 1100 
L 313 1100 
L 313 1709 
L 2253 4666 
z
" transform="scale(0.015625)"/>
       </defs>
       <use xlink:href="#DejaVuSans-34"/>
       <use xlink:href="#DejaVuSans-30" x="63.623047"/>
       <use xlink:href="#DejaVuSans-30" x="127.246094"/>
      </g>
     </g>
    </g>
    <g id="xtick_4">
     <g id="line2d_4">
      <g>
       <use xlink:href="#m36238dddd7" x="679.68" y="576.72" style="stroke: #000000; stroke-width: 0.8"/>
      </g>
     </g>
     <g id="text_4">
      <!-- 600 -->
      <g transform="translate(670.13625 591.318438)scale(0.1 -0.1)">
       <defs>
        <path id="DejaVuSans-36" d="M 2113 2584 
Q 1688 2584 1439 2293 
Q 1191 2003 1191 1497 
Q 1191 994 1439 701 
Q 1688 409 2113 409 
Q 2538 409 2786 701 
Q 3034 994 3034 1497 
Q 3034 2003 2786 2293 
Q 2538 2584 2113 2584 
z
M 3366 4563 
L 3366 3988 
Q 3128 4100 2886 4159 
Q 2644 4219 2406 4219 
Q 1781 4219 1451 3797 
Q 1122 3375 1075 2522 
Q 1259 2794 1537 2939 
Q 1816 3084 2150 3084 
Q 2853 3084 3261 2657 
Q 3669 2231 3669 1497 
Q 3669 778 3244 343 
Q 2819 -91 2113 -91 
Q 1303 -91 875 529 
Q 447 1150 447 2328 
Q 447 3434 972 4092 
Q 1497 4750 2381 4750 
Q 2619 4750 2861 4703 
Q 3103 4656 3366 4563 
z
" transform="scale(0.015625)"/>
       </defs>
       <use xlink:href="#DejaVuSans-36"/>
       <use xlink:href="#DejaVuSans-30" x="63.623047"/>
       <use xlink:href="#DejaVuSans-30" x="127.246094"/>
      </g>
     </g>
    </g>
    <g id="xtick_5">
     <g id="line2d_5">
      <g>
       <use xlink:href="#m36238dddd7" x="858.24" y="576.72" style="stroke: #000000; stroke-width: 0.8"/>
      </g>
     </g>
     <g id="text_5">
      <!-- 800 -->
      <g transform="translate(848.69625 591.318438)scale(0.1 -0.1)">
       <defs>
        <path id="DejaVuSans-38" d="M 2034 2216 
Q 1584 2216 1326 1975 
Q 1069 1734 1069 1313 
Q 1069 891 1326 650 
Q 1584 409 2034 409 
Q 2484 409 2743 651 
Q 3003 894 3003 1313 
Q 3003 1734 2745 1975 
Q 2488 2216 2034 2216 
z
M 1403 2484 
Q 997 2584 770 2862 
Q 544 3141 544 3541 
Q 544 4100 942 4425 
Q 1341 4750 2034 4750 
Q 2731 4750 3128 4425 
Q 3525 4100 3525 3541 
Q 3525 3141 3298 2862 
Q 3072 2584 2669 2484 
Q 3125 2378 3379 2068 
Q 3634 1759 3634 1313 
Q 3634 634 3220 271 
Q 2806 -91 2034 -91 
Q 1263 -91 848 271 
Q 434 634 434 1313 
Q 434 1759 690 2068 
Q 947 2378 1403 2484 
z
M 1172 3481 
Q 1172 3119 1398 2916 
Q 1625 2713 2034 2713 
Q 2441 2713 2670 2916 
Q 2900 3119 2900 3481 
Q 2900 3844 2670 4047 
Q 2441 4250 2034 4250 
Q 1625 4250 1398 4047 
Q 1172 3844 1172 3481 
z
" transform="scale(0.015625)"/>
       </defs>
       <use xlink:href="#DejaVuSans-38"/>
       <use xlink:href="#DejaVuSans-30" x="63.623047"/>
       <use xlink:href="#DejaVuSans-30" x="127.246094"/>
      </g>
     </g>
    </g>
    <g id="xtick_6">
     <g id="line2d_6">
      <g>
       <use xlink:href="#m36238dddd7" x="1036.8" y="576.72" style="stroke: #000000; stroke-width: 0.8"/>
      </g>
     </g>
     <g id="text_6">
      <!-- 1000 -->
      <g transform="translate(1024.075 591.318438)scale(0.1 -0.1)">
       <defs>
        <path id="DejaVuSans-31" d="M 794 531 
L 1825 531 
L 1825 4091 
L 703 3866 
L 703 4441 
L 1819 4666 
L 2450 4666 
L 2450 531 
L 3481 531 
L 3481 0 
L 794 0 
L 794 531 
z
" transform="scale(0.015625)"/>
       </defs>
       <use xlink:href="#DejaVuSans-31"/>
       <use xlink:href="#DejaVuSans-30" x="63.623047"/>
       <use xlink:href="#DejaVuSans-30" x="127.246094"/>
       <use xlink:href="#DejaVuSans-30" x="190.869141"/>
      </g>
     </g>
    </g>
    <g id="text_7">
     <!-- Maximum latency: 566 µs, with "cyclictest -l7500000 -m -n -a0 -t1 -p99 -i800 -h1000 -q" on 2023-06-19 -->
     <g transform="translate(330.795312 604.996562)scale(0.1 -0.1)">
      <defs>
       <path id="DejaVuSans-4d" d="M 628 4666 
L 1569 4666 
L 2759 1491 
L 3956 4666 
L 4897 4666 
L 4897 0 
L 4281 0 
L 4281 4097 
L 3078 897 
L 2444 897 
L 1241 4097 
L 1241 0 
L 628 0 
L 628 4666 
z
" transform="scale(0.015625)"/>
       <path id="DejaVuSans-61" d="M 2194 1759 
Q 1497 1759 1228 1600 
Q 959 1441 959 1056 
Q 959 750 1161 570 
Q 1363 391 1709 391 
Q 2188 391 2477 730 
Q 2766 1069 2766 1631 
L 2766 1759 
L 2194 1759 
z
M 3341 1997 
L 3341 0 
L 2766 0 
L 2766 531 
Q 2569 213 2275 61 
Q 1981 -91 1556 -91 
Q 1019 -91 701 211 
Q 384 513 384 1019 
Q 384 1609 779 1909 
Q 1175 2209 1959 2209 
L 2766 2209 
L 2766 2266 
Q 2766 2663 2505 2880 
Q 2244 3097 1772 3097 
Q 1472 3097 1187 3025 
Q 903 2953 641 2809 
L 641 3341 
Q 956 3463 1253 3523 
Q 1550 3584 1831 3584 
Q 2591 3584 2966 3190 
Q 3341 2797 3341 1997 
z
" transform="scale(0.015625)"/>
       <path id="DejaVuSans-78" d="M 3513 3500 
L 2247 1797 
L 3578 0 
L 2900 0 
L 1881 1375 
L 863 0 
L 184 0 
L 1544 1831 
L 300 3500 
L 978 3500 
L 1906 2253 
L 2834 3500 
L 3513 3500 
z
" transform="scale(0.015625)"/>
       <path id="DejaVuSans-69" d="M 603 3500 
L 1178 3500 
L 1178 0 
L 603 0 
L 603 3500 
z
M 603 4863 
L 1178 4863 
L 1178 4134 
L 603 4134 
L 603 4863 
z
" transform="scale(0.015625)"/>
       <path id="DejaVuSans-6d" d="M 3328 2828 
Q 3544 3216 3844 3400 
Q 4144 3584 4550 3584 
Q 5097 3584 5394 3201 
Q 5691 2819 5691 2113 
L 5691 0 
L 5113 0 
L 5113 2094 
Q 5113 2597 4934 2840 
Q 4756 3084 4391 3084 
Q 3944 3084 3684 2787 
Q 3425 2491 3425 1978 
L 3425 0 
L 2847 0 
L 2847 2094 
Q 2847 2600 2669 2842 
Q 2491 3084 2119 3084 
Q 1678 3084 1418 2786 
Q 1159 2488 1159 1978 
L 1159 0 
L 581 0 
L 581 3500 
L 1159 3500 
L 1159 2956 
Q 1356 3278 1631 3431 
Q 1906 3584 2284 3584 
Q 2666 3584 2933 3390 
Q 3200 3197 3328 2828 
z
" transform="scale(0.015625)"/>
       <path id="DejaVuSans-75" d="M 544 1381 
L 544 3500 
L 1119 3500 
L 1119 1403 
Q 1119 906 1312 657 
Q 1506 409 1894 409 
Q 2359 409 2629 706 
Q 2900 1003 2900 1516 
L 2900 3500 
L 3475 3500 
L 3475 0 
L 2900 0 
L 2900 538 
Q 2691 219 2414 64 
Q 2138 -91 1772 -91 
Q 1169 -91 856 284 
Q 544 659 544 1381 
z
M 1991 3584 
L 1991 3584 
z
" transform="scale(0.015625)"/>
       <path id="DejaVuSans-20" transform="scale(0.015625)"/>
       <path id="DejaVuSans-6c" d="M 603 4863 
L 1178 4863 
L 1178 0 
L 603 0 
L 603 4863 
z
" transform="scale(0.015625)"/>
       <path id="DejaVuSans-74" d="M 1172 4494 
L 1172 3500 
L 2356 3500 
L 2356 3053 
L 1172 3053 
L 1172 1153 
Q 1172 725 1289 603 
Q 1406 481 1766 481 
L 2356 481 
L 2356 0 
L 1766 0 
Q 1100 0 847 248 
Q 594 497 594 1153 
L 594 3053 
L 172 3053 
L 172 3500 
L 594 3500 
L 594 4494 
L 1172 4494 
z
" transform="scale(0.015625)"/>
       <path id="DejaVuSans-65" d="M 3597 1894 
L 3597 1613 
L 953 1613 
Q 991 1019 1311 708 
Q 1631 397 2203 397 
Q 2534 397 2845 478 
Q 3156 559 3463 722 
L 3463 178 
Q 3153 47 2828 -22 
Q 2503 -91 2169 -91 
Q 1331 -91 842 396 
Q 353 884 353 1716 
Q 353 2575 817 3079 
Q 1281 3584 2069 3584 
Q 2775 3584 3186 3129 
Q 3597 2675 3597 1894 
z
M 3022 2063 
Q 3016 2534 2758 2815 
Q 2500 3097 2075 3097 
Q 1594 3097 1305 2825 
Q 1016 2553 972 2059 
L 3022 2063 
z
" transform="scale(0.015625)"/>
       <path id="DejaVuSans-6e" d="M 3513 2113 
L 3513 0 
L 2938 0 
L 2938 2094 
Q 2938 2591 2744 2837 
Q 2550 3084 2163 3084 
Q 1697 3084 1428 2787 
Q 1159 2491 1159 1978 
L 1159 0 
L 581 0 
L 581 3500 
L 1159 3500 
L 1159 2956 
Q 1366 3272 1645 3428 
Q 1925 3584 2291 3584 
Q 2894 3584 3203 3211 
Q 3513 2838 3513 2113 
z
" transform="scale(0.015625)"/>
       <path id="DejaVuSans-63" d="M 3122 3366 
L 3122 2828 
Q 2878 2963 2633 3030 
Q 2388 3097 2138 3097 
Q 1578 3097 1268 2742 
Q 959 2388 959 1747 
Q 959 1106 1268 751 
Q 1578 397 2138 397 
Q 2388 397 2633 464 
Q 2878 531 3122 666 
L 3122 134 
Q 2881 22 2623 -34 
Q 2366 -91 2075 -91 
Q 1284 -91 818 406 
Q 353 903 353 1747 
Q 353 2603 823 3093 
Q 1294 3584 2113 3584 
Q 2378 3584 2631 3529 
Q 2884 3475 3122 3366 
z
" transform="scale(0.015625)"/>
       <path id="DejaVuSans-79" d="M 2059 -325 
Q 1816 -950 1584 -1140 
Q 1353 -1331 966 -1331 
L 506 -1331 
L 506 -850 
L 844 -850 
Q 1081 -850 1212 -737 
Q 1344 -625 1503 -206 
L 1606 56 
L 191 3500 
L 800 3500 
L 1894 763 
L 2988 3500 
L 3597 3500 
L 2059 -325 
z
" transform="scale(0.015625)"/>
       <path id="DejaVuSans-3a" d="M 750 794 
L 1409 794 
L 1409 0 
L 750 0 
L 750 794 
z
M 750 3309 
L 1409 3309 
L 1409 2516 
L 750 2516 
L 750 3309 
z
" transform="scale(0.015625)"/>
       <path id="DejaVuSans-35" d="M 691 4666 
L 3169 4666 
L 3169 4134 
L 1269 4134 
L 1269 2991 
Q 1406 3038 1543 3061 
Q 1681 3084 1819 3084 
Q 2600 3084 3056 2656 
Q 3513 2228 3513 1497 
Q 3513 744 3044 326 
Q 2575 -91 1722 -91 
Q 1428 -91 1123 -41 
Q 819 9 494 109 
L 494 744 
Q 775 591 1075 516 
Q 1375 441 1709 441 
Q 2250 441 2565 725 
Q 2881 1009 2881 1497 
Q 2881 1984 2565 2268 
Q 2250 2553 1709 2553 
Q 1456 2553 1204 2497 
Q 953 2441 691 2322 
L 691 4666 
z
" transform="scale(0.015625)"/>
       <path id="DejaVuSans-b5" d="M 544 -1331 
L 544 3500 
L 1119 3500 
L 1119 1325 
Q 1119 872 1334 640 
Q 1550 409 1972 409 
Q 2434 409 2667 671 
Q 2900 934 2900 1459 
L 2900 3500 
L 3475 3500 
L 3475 806 
Q 3475 619 3529 530 
Q 3584 441 3700 441 
Q 3728 441 3778 458 
Q 3828 475 3916 513 
L 3916 50 
Q 3788 -22 3673 -56 
Q 3559 -91 3450 -91 
Q 3234 -91 3106 31 
Q 2978 153 2931 403 
Q 2775 156 2548 32 
Q 2322 -91 2016 -91 
Q 1697 -91 1473 31 
Q 1250 153 1119 397 
L 1119 -1331 
L 544 -1331 
z
" transform="scale(0.015625)"/>
       <path id="DejaVuSans-73" d="M 2834 3397 
L 2834 2853 
Q 2591 2978 2328 3040 
Q 2066 3103 1784 3103 
Q 1356 3103 1142 2972 
Q 928 2841 928 2578 
Q 928 2378 1081 2264 
Q 1234 2150 1697 2047 
L 1894 2003 
Q 2506 1872 2764 1633 
Q 3022 1394 3022 966 
Q 3022 478 2636 193 
Q 2250 -91 1575 -91 
Q 1294 -91 989 -36 
Q 684 19 347 128 
L 347 722 
Q 666 556 975 473 
Q 1284 391 1588 391 
Q 1994 391 2212 530 
Q 2431 669 2431 922 
Q 2431 1156 2273 1281 
Q 2116 1406 1581 1522 
L 1381 1569 
Q 847 1681 609 1914 
Q 372 2147 372 2553 
Q 372 3047 722 3315 
Q 1072 3584 1716 3584 
Q 2034 3584 2315 3537 
Q 2597 3491 2834 3397 
z
" transform="scale(0.015625)"/>
       <path id="DejaVuSans-2c" d="M 750 794 
L 1409 794 
L 1409 256 
L 897 -744 
L 494 -744 
L 750 256 
L 750 794 
z
" transform="scale(0.015625)"/>
       <path id="DejaVuSans-77" d="M 269 3500 
L 844 3500 
L 1563 769 
L 2278 3500 
L 2956 3500 
L 3675 769 
L 4391 3500 
L 4966 3500 
L 4050 0 
L 3372 0 
L 2619 2869 
L 1863 0 
L 1184 0 
L 269 3500 
z
" transform="scale(0.015625)"/>
       <path id="DejaVuSans-68" d="M 3513 2113 
L 3513 0 
L 2938 0 
L 2938 2094 
Q 2938 2591 2744 2837 
Q 2550 3084 2163 3084 
Q 1697 3084 1428 2787 
Q 1159 2491 1159 1978 
L 1159 0 
L 581 0 
L 581 4863 
L 1159 4863 
L 1159 2956 
Q 1366 3272 1645 3428 
Q 1925 3584 2291 3584 
Q 2894 3584 3203 3211 
Q 3513 2838 3513 2113 
z
" transform="scale(0.015625)"/>
       <path id="DejaVuSans-22" d="M 1147 4666 
L 1147 2931 
L 616 2931 
L 616 4666 
L 1147 4666 
z
M 2328 4666 
L 2328 2931 
L 1797 2931 
L 1797 4666 
L 2328 4666 
z
" transform="scale(0.015625)"/>
       <path id="DejaVuSans-2d" d="M 313 2009 
L 1997 2009 
L 1997 1497 
L 313 1497 
L 313 2009 
z
" transform="scale(0.015625)"/>
       <path id="DejaVuSans-37" d="M 525 4666 
L 3525 4666 
L 3525 4397 
L 1831 0 
L 1172 0 
L 2766 4134 
L 525 4134 
L 525 4666 
z
" transform="scale(0.015625)"/>
       <path id="DejaVuSans-70" d="M 1159 525 
L 1159 -1331 
L 581 -1331 
L 581 3500 
L 1159 3500 
L 1159 2969 
Q 1341 3281 1617 3432 
Q 1894 3584 2278 3584 
Q 2916 3584 3314 3078 
Q 3713 2572 3713 1747 
Q 3713 922 3314 415 
Q 2916 -91 2278 -91 
Q 1894 -91 1617 61 
Q 1341 213 1159 525 
z
M 3116 1747 
Q 3116 2381 2855 2742 
Q 2594 3103 2138 3103 
Q 1681 3103 1420 2742 
Q 1159 2381 1159 1747 
Q 1159 1113 1420 752 
Q 1681 391 2138 391 
Q 2594 391 2855 752 
Q 3116 1113 3116 1747 
z
" transform="scale(0.015625)"/>
       <path id="DejaVuSans-39" d="M 703 97 
L 703 672 
Q 941 559 1184 500 
Q 1428 441 1663 441 
Q 2288 441 2617 861 
Q 2947 1281 2994 2138 
Q 2813 1869 2534 1725 
Q 2256 1581 1919 1581 
Q 1219 1581 811 2004 
Q 403 2428 403 3163 
Q 403 3881 828 4315 
Q 1253 4750 1959 4750 
Q 2769 4750 3195 4129 
Q 3622 3509 3622 2328 
Q 3622 1225 3098 567 
Q 2575 -91 1691 -91 
Q 1453 -91 1209 -44 
Q 966 3 703 97 
z
M 1959 2075 
Q 2384 2075 2632 2365 
Q 2881 2656 2881 3163 
Q 2881 3666 2632 3958 
Q 2384 4250 1959 4250 
Q 1534 4250 1286 3958 
Q 1038 3666 1038 3163 
Q 1038 2656 1286 2365 
Q 1534 2075 1959 2075 
z
" transform="scale(0.015625)"/>
       <path id="DejaVuSans-71" d="M 947 1747 
Q 947 1113 1208 752 
Q 1469 391 1925 391 
Q 2381 391 2643 752 
Q 2906 1113 2906 1747 
Q 2906 2381 2643 2742 
Q 2381 3103 1925 3103 
Q 1469 3103 1208 2742 
Q 947 2381 947 1747 
z
M 2906 525 
Q 2725 213 2448 61 
Q 2172 -91 1784 -91 
Q 1150 -91 751 415 
Q 353 922 353 1747 
Q 353 2572 751 3078 
Q 1150 3584 1784 3584 
Q 2172 3584 2448 3432 
Q 2725 3281 2906 2969 
L 2906 3500 
L 3481 3500 
L 3481 -1331 
L 2906 -1331 
L 2906 525 
z
" transform="scale(0.015625)"/>
       <path id="DejaVuSans-6f" d="M 1959 3097 
Q 1497 3097 1228 2736 
Q 959 2375 959 1747 
Q 959 1119 1226 758 
Q 1494 397 1959 397 
Q 2419 397 2687 759 
Q 2956 1122 2956 1747 
Q 2956 2369 2687 2733 
Q 2419 3097 1959 3097 
z
M 1959 3584 
Q 2709 3584 3137 3096 
Q 3566 2609 3566 1747 
Q 3566 888 3137 398 
Q 2709 -91 1959 -91 
Q 1206 -91 779 398 
Q 353 888 353 1747 
Q 353 2609 779 3096 
Q 1206 3584 1959 3584 
z
" transform="scale(0.015625)"/>
       <path id="DejaVuSans-33" d="M 2597 2516 
Q 3050 2419 3304 2112 
Q 3559 1806 3559 1356 
Q 3559 666 3084 287 
Q 2609 -91 1734 -91 
Q 1441 -91 1130 -33 
Q 819 25 488 141 
L 488 750 
Q 750 597 1062 519 
Q 1375 441 1716 441 
Q 2309 441 2620 675 
Q 2931 909 2931 1356 
Q 2931 1769 2642 2001 
Q 2353 2234 1838 2234 
L 1294 2234 
L 1294 2753 
L 1863 2753 
Q 2328 2753 2575 2939 
Q 2822 3125 2822 3475 
Q 2822 3834 2567 4026 
Q 2313 4219 1838 4219 
Q 1578 4219 1281 4162 
Q 984 4106 628 3988 
L 628 4550 
Q 988 4650 1302 4700 
Q 1616 4750 1894 4750 
Q 2613 4750 3031 4423 
Q 3450 4097 3450 3541 
Q 3450 3153 3228 2886 
Q 3006 2619 2597 2516 
z
" transform="scale(0.015625)"/>
      </defs>
      <use xlink:href="#DejaVuSans-4d"/>
      <use xlink:href="#DejaVuSans-61" x="86.279297"/>
      <use xlink:href="#DejaVuSans-78" x="147.558594"/>
      <use xlink:href="#DejaVuSans-69" x="206.738281"/>
      <use xlink:href="#DejaVuSans-6d" x="234.521484"/>
      <use xlink:href="#DejaVuSans-75" x="331.933594"/>
      <use xlink:href="#DejaVuSans-6d" x="395.3125"/>
      <use xlink:href="#DejaVuSans-20" x="492.724609"/>
      <use xlink:href="#DejaVuSans-6c" x="524.511719"/>
      <use xlink:href="#DejaVuSans-61" x="552.294922"/>
      <use xlink:href="#DejaVuSans-74" x="613.574219"/>
      <use xlink:href="#DejaVuSans-65" x="652.783203"/>
      <use xlink:href="#DejaVuSans-6e" x="714.306641"/>
      <use xlink:href="#DejaVuSans-63" x="777.685547"/>
      <use xlink:href="#DejaVuSans-79" x="832.666016"/>
      <use xlink:href="#DejaVuSans-3a" x="884.595703"/>
      <use xlink:href="#DejaVuSans-20" x="918.287109"/>
      <use xlink:href="#DejaVuSans-35" x="950.074219"/>
      <use xlink:href="#DejaVuSans-36" x="1013.697266"/>
      <use xlink:href="#DejaVuSans-36" x="1077.320312"/>
      <use xlink:href="#DejaVuSans-20" x="1140.943359"/>
      <use xlink:href="#DejaVuSans-b5" x="1172.730469"/>
      <use xlink:href="#DejaVuSans-73" x="1236.353516"/>
      <use xlink:href="#DejaVuSans-2c" x="1288.453125"/>
      <use xlink:href="#DejaVuSans-20" x="1320.240234"/>
      <use xlink:href="#DejaVuSans-77" x="1352.027344"/>
      <use xlink:href="#DejaVuSans-69" x="1433.814453"/>
      <use xlink:href="#DejaVuSans-74" x="1461.597656"/>
      <use xlink:href="#DejaVuSans-68" x="1500.806641"/>
      <use xlink:href="#DejaVuSans-20" x="1564.185547"/>
      <use xlink:href="#DejaVuSans-22" x="1595.972656"/>
      <use xlink:href="#DejaVuSans-63" x="1641.96875"/>
      <use xlink:href="#DejaVuSans-79" x="1696.949219"/>
      <use xlink:href="#DejaVuSans-63" x="1756.128906"/>
      <use xlink:href="#DejaVuSans-6c" x="1811.109375"/>
      <use xlink:href="#DejaVuSans-69" x="1838.892578"/>
      <use xlink:href="#DejaVuSans-63" x="1866.675781"/>
      <use xlink:href="#DejaVuSans-74" x="1921.65625"/>
      <use xlink:href="#DejaVuSans-65" x="1960.865234"/>
      <use xlink:href="#DejaVuSans-73" x="2022.388672"/>
      <use xlink:href="#DejaVuSans-74" x="2074.488281"/>
      <use xlink:href="#DejaVuSans-20" x="2113.697266"/>
      <use xlink:href="#DejaVuSans-2d" x="2145.484375"/>
      <use xlink:href="#DejaVuSans-6c" x="2181.568359"/>
      <use xlink:href="#DejaVuSans-37" x="2209.351562"/>
      <use xlink:href="#DejaVuSans-35" x="2272.974609"/>
      <use xlink:href="#DejaVuSans-30" x="2336.597656"/>
      <use xlink:href="#DejaVuSans-30" x="2400.220703"/>
      <use xlink:href="#DejaVuSans-30" x="2463.84375"/>
      <use xlink:href="#DejaVuSans-30" x="2527.466797"/>
      <use xlink:href="#DejaVuSans-30" x="2591.089844"/>
      <use xlink:href="#DejaVuSans-20" x="2654.712891"/>
      <use xlink:href="#DejaVuSans-2d" x="2686.5"/>
      <use xlink:href="#DejaVuSans-6d" x="2722.583984"/>
      <use xlink:href="#DejaVuSans-20" x="2819.996094"/>
      <use xlink:href="#DejaVuSans-2d" x="2851.783203"/>
      <use xlink:href="#DejaVuSans-6e" x="2887.867188"/>
      <use xlink:href="#DejaVuSans-20" x="2951.246094"/>
      <use xlink:href="#DejaVuSans-2d" x="2983.033203"/>
      <use xlink:href="#DejaVuSans-61" x="3019.117188"/>
      <use xlink:href="#DejaVuSans-30" x="3080.396484"/>
      <use xlink:href="#DejaVuSans-20" x="3144.019531"/>
      <use xlink:href="#DejaVuSans-2d" x="3175.806641"/>
      <use xlink:href="#DejaVuSans-74" x="3211.890625"/>
      <use xlink:href="#DejaVuSans-31" x="3251.099609"/>
      <use xlink:href="#DejaVuSans-20" x="3314.722656"/>
      <use xlink:href="#DejaVuSans-2d" x="3346.509766"/>
      <use xlink:href="#DejaVuSans-70" x="3382.59375"/>
      <use xlink:href="#DejaVuSans-39" x="3446.070312"/>
      <use xlink:href="#DejaVuSans-39" x="3509.693359"/>
      <use xlink:href="#DejaVuSans-20" x="3573.316406"/>
      <use xlink:href="#DejaVuSans-2d" x="3605.103516"/>
      <use xlink:href="#DejaVuSans-69" x="3641.1875"/>
      <use xlink:href="#DejaVuSans-38" x="3668.970703"/>
      <use xlink:href="#DejaVuSans-30" x="3732.59375"/>
      <use xlink:href="#DejaVuSans-30" x="3796.216797"/>
      <use xlink:href="#DejaVuSans-20" x="3859.839844"/>
      <use xlink:href="#DejaVuSans-2d" x="3891.626953"/>
      <use xlink:href="#DejaVuSans-68" x="3927.710938"/>
      <use xlink:href="#DejaVuSans-31" x="3991.089844"/>
      <use xlink:href="#DejaVuSans-30" x="4054.712891"/>
      <use xlink:href="#DejaVuSans-30" x="4118.335938"/>
      <use xlink:href="#DejaVuSans-30" x="4181.958984"/>
      <use xlink:href="#DejaVuSans-20" x="4245.582031"/>
      <use xlink:href="#DejaVuSans-2d" x="4277.369141"/>
      <use xlink:href="#DejaVuSans-71" x="4313.453125"/>
      <use xlink:href="#DejaVuSans-22" x="4376.929688"/>
      <use xlink:href="#DejaVuSans-20" x="4422.925781"/>
      <use xlink:href="#DejaVuSans-6f" x="4454.712891"/>
      <use xlink:href="#DejaVuSans-6e" x="4515.894531"/>
      <use xlink:href="#DejaVuSans-20" x="4579.273438"/>
      <use xlink:href="#DejaVuSans-32" x="4611.060547"/>
      <use xlink:href="#DejaVuSans-30" x="4674.683594"/>
      <use xlink:href="#DejaVuSans-32" x="4738.306641"/>
      <use xlink:href="#DejaVuSans-33" x="4801.929688"/>
      <use xlink:href="#DejaVuSans-2d" x="4865.552734"/>
      <use xlink:href="#DejaVuSans-30" x="4901.636719"/>
      <use xlink:href="#DejaVuSans-36" x="4965.259766"/>
      <use xlink:href="#DejaVuSans-2d" x="5028.882812"/>
      <use xlink:href="#DejaVuSans-31" x="5064.966797"/>
      <use xlink:href="#DejaVuSans-39" x="5128.589844"/>
     </g>
    </g>
   </g>
   <g id="matplotlib.axis_2">
    <g id="ytick_1">
     <g id="line2d_7">
      <defs>
       <path id="m8c405c524c" d="M 0 0 
L -3.5 0 
" style="stroke: #000000; stroke-width: 0.8"/>
      </defs>
      <g>
       <use xlink:href="#m8c405c524c" x="144" y="569.784484" style="stroke: #000000; stroke-width: 0.8"/>
      </g>
     </g>
     <g id="text_8">
      <!-- $\mathdefault{10^{0}}$ -->
      <g transform="translate(119.4 573.583702)scale(0.1 -0.1)">
       <use xlink:href="#DejaVuSans-31" transform="translate(0 0.765625)"/>
       <use xlink:href="#DejaVuSans-30" transform="translate(63.623047 0.765625)"/>
       <use xlink:href="#DejaVuSans-30" transform="translate(128.203125 39.046875)scale(0.7)"/>
      </g>
     </g>
    </g>
    <g id="ytick_2">
     <g id="line2d_8">
      <g>
       <use xlink:href="#m8c405c524c" x="144" y="498.217924" style="stroke: #000000; stroke-width: 0.8"/>
      </g>
     </g>
     <g id="text_9">
      <!-- $\mathdefault{10^{1}}$ -->
      <g transform="translate(119.4 502.017143)scale(0.1 -0.1)">
       <use xlink:href="#DejaVuSans-31" transform="translate(0 0.684375)"/>
       <use xlink:href="#DejaVuSans-30" transform="translate(63.623047 0.684375)"/>
       <use xlink:href="#DejaVuSans-31" transform="translate(128.203125 38.965625)scale(0.7)"/>
      </g>
     </g>
    </g>
    <g id="ytick_3">
     <g id="line2d_9">
      <g>
       <use xlink:href="#m8c405c524c" x="144" y="426.651364" style="stroke: #000000; stroke-width: 0.8"/>
      </g>
     </g>
     <g id="text_10">
      <!-- $\mathdefault{10^{2}}$ -->
      <g transform="translate(119.4 430.450583)scale(0.1 -0.1)">
       <use xlink:href="#DejaVuSans-31" transform="translate(0 0.765625)"/>
       <use xlink:href="#DejaVuSans-30" transform="translate(63.623047 0.765625)"/>
       <use xlink:href="#DejaVuSans-32" transform="translate(128.203125 39.046875)scale(0.7)"/>
      </g>
     </g>
    </g>
    <g id="ytick_4">
     <g id="line2d_10">
      <g>
       <use xlink:href="#m8c405c524c" x="144" y="355.084804" style="stroke: #000000; stroke-width: 0.8"/>
      </g>
     </g>
     <g id="text_11">
      <!-- $\mathdefault{10^{3}}$ -->
      <g transform="translate(119.4 358.884023)scale(0.1 -0.1)">
       <use xlink:href="#DejaVuSans-31" transform="translate(0 0.765625)"/>
       <use xlink:href="#DejaVuSans-30" transform="translate(63.623047 0.765625)"/>
       <use xlink:href="#DejaVuSans-33" transform="translate(128.203125 39.046875)scale(0.7)"/>
      </g>
     </g>
    </g>
    <g id="ytick_5">
     <g id="line2d_11">
      <g>
       <use xlink:href="#m8c405c524c" x="144" y="283.518244" style="stroke: #000000; stroke-width: 0.8"/>
      </g>
     </g>
     <g id="text_12">
      <!-- $\mathdefault{10^{4}}$ -->
      <g transform="translate(119.4 287.317463)scale(0.1 -0.1)">
       <use xlink:href="#DejaVuSans-31" transform="translate(0 0.684375)"/>
       <use xlink:href="#DejaVuSans-30" transform="translate(63.623047 0.684375)"/>
       <use xlink:href="#DejaVuSans-34" transform="translate(128.203125 38.965625)scale(0.7)"/>
      </g>
     </g>
    </g>
    <g id="ytick_6">
     <g id="line2d_12">
      <g>
       <use xlink:href="#m8c405c524c" x="144" y="211.951684" style="stroke: #000000; stroke-width: 0.8"/>
      </g>
     </g>
     <g id="text_13">
      <!-- $\mathdefault{10^{5}}$ -->
      <g transform="translate(119.4 215.750903)scale(0.1 -0.1)">
       <use xlink:href="#DejaVuSans-31" transform="translate(0 0.684375)"/>
       <use xlink:href="#DejaVuSans-30" transform="translate(63.623047 0.684375)"/>
       <use xlink:href="#DejaVuSans-35" transform="translate(128.203125 38.965625)scale(0.7)"/>
      </g>
     </g>
    </g>
    <g id="ytick_7">
     <g id="line2d_13">
      <g>
       <use xlink:href="#m8c405c524c" x="144" y="140.385124" style="stroke: #000000; stroke-width: 0.8"/>
      </g>
     </g>
     <g id="text_14">
      <!-- $\mathdefault{10^{6}}$ -->
      <g transform="translate(119.4 144.184343)scale(0.1 -0.1)">
       <use xlink:href="#DejaVuSans-31" transform="translate(0 0.765625)"/>
       <use xlink:href="#DejaVuSans-30" transform="translate(63.623047 0.765625)"/>
       <use xlink:href="#DejaVuSans-36" transform="translate(128.203125 39.046875)scale(0.7)"/>
      </g>
     </g>
    </g>
    <g id="ytick_8">
     <g id="line2d_14">
      <defs>
       <path id="mcde68d2e45" d="M 0 0 
L -2 0 
" style="stroke: #000000; stroke-width: 0.6"/>
      </defs>
      <g>
       <use xlink:href="#mcde68d2e45" x="144" y="576.72" style="stroke: #000000; stroke-width: 0.6"/>
      </g>
     </g>
    </g>
    <g id="ytick_9">
     <g id="line2d_15">
      <g>
       <use xlink:href="#mcde68d2e45" x="144" y="548.240803" style="stroke: #000000; stroke-width: 0.6"/>
      </g>
     </g>
    </g>
    <g id="ytick_10">
     <g id="line2d_16">
      <g>
       <use xlink:href="#mcde68d2e45" x="144" y="526.697121" style="stroke: #000000; stroke-width: 0.6"/>
      </g>
     </g>
    </g>
    <g id="ytick_11">
     <g id="line2d_17">
      <g>
       <use xlink:href="#mcde68d2e45" x="144" y="514.094876" style="stroke: #000000; stroke-width: 0.6"/>
      </g>
     </g>
    </g>
    <g id="ytick_12">
     <g id="line2d_18">
      <g>
       <use xlink:href="#mcde68d2e45" x="144" y="505.15344" style="stroke: #000000; stroke-width: 0.6"/>
      </g>
     </g>
    </g>
    <g id="ytick_13">
     <g id="line2d_19">
      <g>
       <use xlink:href="#mcde68d2e45" x="144" y="476.674243" style="stroke: #000000; stroke-width: 0.6"/>
      </g>
     </g>
    </g>
    <g id="ytick_14">
     <g id="line2d_20">
      <g>
       <use xlink:href="#mcde68d2e45" x="144" y="455.130561" style="stroke: #000000; stroke-width: 0.6"/>
      </g>
     </g>
    </g>
    <g id="ytick_15">
     <g id="line2d_21">
      <g>
       <use xlink:href="#mcde68d2e45" x="144" y="442.528316" style="stroke: #000000; stroke-width: 0.6"/>
      </g>
     </g>
    </g>
    <g id="ytick_16">
     <g id="line2d_22">
      <g>
       <use xlink:href="#mcde68d2e45" x="144" y="433.58688" style="stroke: #000000; stroke-width: 0.6"/>
      </g>
     </g>
    </g>
    <g id="ytick_17">
     <g id="line2d_23">
      <g>
       <use xlink:href="#mcde68d2e45" x="144" y="405.107683" style="stroke: #000000; stroke-width: 0.6"/>
      </g>
     </g>
    </g>
    <g id="ytick_18">
     <g id="line2d_24">
      <g>
       <use xlink:href="#mcde68d2e45" x="144" y="383.564002" style="stroke: #000000; stroke-width: 0.6"/>
      </g>
     </g>
    </g>
    <g id="ytick_19">
     <g id="line2d_25">
      <g>
       <use xlink:href="#mcde68d2e45" x="144" y="370.961756" style="stroke: #000000; stroke-width: 0.6"/>
      </g>
     </g>
    </g>
    <g id="ytick_20">
     <g id="line2d_26">
      <g>
       <use xlink:href="#mcde68d2e45" x="144" y="362.02032" style="stroke: #000000; stroke-width: 0.6"/>
      </g>
     </g>
    </g>
    <g id="ytick_21">
     <g id="line2d_27">
      <g>
       <use xlink:href="#mcde68d2e45" x="144" y="333.541123" style="stroke: #000000; stroke-width: 0.6"/>
      </g>
     </g>
    </g>
    <g id="ytick_22">
     <g id="line2d_28">
      <g>
       <use xlink:href="#mcde68d2e45" x="144" y="311.997442" style="stroke: #000000; stroke-width: 0.6"/>
      </g>
     </g>
    </g>
    <g id="ytick_23">
     <g id="line2d_29">
      <g>
       <use xlink:href="#mcde68d2e45" x="144" y="299.395196" style="stroke: #000000; stroke-width: 0.6"/>
      </g>
     </g>
    </g>
    <g id="ytick_24">
     <g id="line2d_30">
      <g>
       <use xlink:href="#mcde68d2e45" x="144" y="290.45376" style="stroke: #000000; stroke-width: 0.6"/>
      </g>
     </g>
    </g>
    <g id="ytick_25">
     <g id="line2d_31">
      <g>
       <use xlink:href="#mcde68d2e45" x="144" y="261.974563" style="stroke: #000000; stroke-width: 0.6"/>
      </g>
     </g>
    </g>
    <g id="ytick_26">
     <g id="line2d_32">
      <g>
       <use xlink:href="#mcde68d2e45" x="144" y="240.430882" style="stroke: #000000; stroke-width: 0.6"/>
      </g>
     </g>
    </g>
    <g id="ytick_27">
     <g id="line2d_33">
      <g>
       <use xlink:href="#mcde68d2e45" x="144" y="227.828636" style="stroke: #000000; stroke-width: 0.6"/>
      </g>
     </g>
    </g>
    <g id="ytick_28">
     <g id="line2d_34">
      <g>
       <use xlink:href="#mcde68d2e45" x="144" y="218.8872" style="stroke: #000000; stroke-width: 0.6"/>
      </g>
     </g>
    </g>
    <g id="ytick_29">
     <g id="line2d_35">
      <g>
       <use xlink:href="#mcde68d2e45" x="144" y="190.408003" style="stroke: #000000; stroke-width: 0.6"/>
      </g>
     </g>
    </g>
    <g id="ytick_30">
     <g id="line2d_36">
      <g>
       <use xlink:href="#mcde68d2e45" x="144" y="168.864322" style="stroke: #000000; stroke-width: 0.6"/>
      </g>
     </g>
    </g>
    <g id="ytick_31">
     <g id="line2d_37">
      <g>
       <use xlink:href="#mcde68d2e45" x="144" y="156.262076" style="stroke: #000000; stroke-width: 0.6"/>
      </g>
     </g>
    </g>
    <g id="ytick_32">
     <g id="line2d_38">
      <g>
       <use xlink:href="#mcde68d2e45" x="144" y="147.320641" style="stroke: #000000; stroke-width: 0.6"/>
      </g>
     </g>
    </g>
    <g id="ytick_33">
     <g id="line2d_39">
      <g>
       <use xlink:href="#mcde68d2e45" x="144" y="118.841443" style="stroke: #000000; stroke-width: 0.6"/>
      </g>
     </g>
    </g>
    <g id="ytick_34">
     <g id="line2d_40">
      <g>
       <use xlink:href="#mcde68d2e45" x="144" y="97.297762" style="stroke: #000000; stroke-width: 0.6"/>
      </g>
     </g>
    </g>
    <g id="ytick_35">
     <g id="line2d_41">
      <g>
       <use xlink:href="#mcde68d2e45" x="144" y="84.695516" style="stroke: #000000; stroke-width: 0.6"/>
      </g>
     </g>
    </g>
    <g id="text_15">
     <!-- Number of samples per latency class -->
     <g transform="translate(113.320312 419.959531)rotate(-90)scale(0.1 -0.1)">
      <defs>
       <path id="DejaVuSans-4e" d="M 628 4666 
L 1478 4666 
L 3547 763 
L 3547 4666 
L 4159 4666 
L 4159 0 
L 3309 0 
L 1241 3903 
L 1241 0 
L 628 0 
L 628 4666 
z
" transform="scale(0.015625)"/>
       <path id="DejaVuSans-62" d="M 3116 1747 
Q 3116 2381 2855 2742 
Q 2594 3103 2138 3103 
Q 1681 3103 1420 2742 
Q 1159 2381 1159 1747 
Q 1159 1113 1420 752 
Q 1681 391 2138 391 
Q 2594 391 2855 752 
Q 3116 1113 3116 1747 
z
M 1159 2969 
Q 1341 3281 1617 3432 
Q 1894 3584 2278 3584 
Q 2916 3584 3314 3078 
Q 3713 2572 3713 1747 
Q 3713 922 3314 415 
Q 2916 -91 2278 -91 
Q 1894 -91 1617 61 
Q 1341 213 1159 525 
L 1159 0 
L 581 0 
L 581 4863 
L 1159 4863 
L 1159 2969 
z
" transform="scale(0.015625)"/>
       <path id="DejaVuSans-72" d="M 2631 2963 
Q 2534 3019 2420 3045 
Q 2306 3072 2169 3072 
Q 1681 3072 1420 2755 
Q 1159 2438 1159 1844 
L 1159 0 
L 581 0 
L 581 3500 
L 1159 3500 
L 1159 2956 
Q 1341 3275 1631 3429 
Q 1922 3584 2338 3584 
Q 2397 3584 2469 3576 
Q 2541 3569 2628 3553 
L 2631 2963 
z
" transform="scale(0.015625)"/>
       <path id="DejaVuSans-66" d="M 2375 4863 
L 2375 4384 
L 1825 4384 
Q 1516 4384 1395 4259 
Q 1275 4134 1275 3809 
L 1275 3500 
L 2222 3500 
L 2222 3053 
L 1275 3053 
L 1275 0 
L 697 0 
L 697 3053 
L 147 3053 
L 147 3500 
L 697 3500 
L 697 3744 
Q 697 4328 969 4595 
Q 1241 4863 1831 4863 
L 2375 4863 
z
" transform="scale(0.015625)"/>
      </defs>
      <use xlink:href="#DejaVuSans-4e"/>
      <use xlink:href="#DejaVuSans-75" x="74.804688"/>
      <use xlink:href="#DejaVuSans-6d" x="138.183594"/>
      <use xlink:href="#DejaVuSans-62" x="235.595703"/>
      <use xlink:href="#DejaVuSans-65" x="299.072266"/>
      <use xlink:href="#DejaVuSans-72" x="360.595703"/>
      <use xlink:href="#DejaVuSans-20" x="401.708984"/>
      <use xlink:href="#DejaVuSans-6f" x="433.496094"/>
      <use xlink:href="#DejaVuSans-66" x="494.677734"/>
      <use xlink:href="#DejaVuSans-20" x="529.882812"/>
      <use xlink:href="#DejaVuSans-73" x="561.669922"/>
      <use xlink:href="#DejaVuSans-61" x="613.769531"/>
      <use xlink:href="#DejaVuSans-6d" x="675.048828"/>
      <use xlink:href="#DejaVuSans-70" x="772.460938"/>
      <use xlink:href="#DejaVuSans-6c" x="835.9375"/>
      <use xlink:href="#DejaVuSans-65" x="863.720703"/>
      <use xlink:href="#DejaVuSans-73" x="925.244141"/>
      <use xlink:href="#DejaVuSans-20" x="977.34375"/>
      <use xlink:href="#DejaVuSans-70" x="1009.130859"/>
      <use xlink:href="#DejaVuSans-65" x="1072.607422"/>
      <use xlink:href="#DejaVuSans-72" x="1134.130859"/>
      <use xlink:href="#DejaVuSans-20" x="1175.244141"/>
      <use xlink:href="#DejaVuSans-6c" x="1207.03125"/>
      <use xlink:href="#DejaVuSans-61" x="1234.814453"/>
      <use xlink:href="#DejaVuSans-74" x="1296.09375"/>
      <use xlink:href="#DejaVuSans-65" x="1335.302734"/>
      <use xlink:href="#DejaVuSans-6e" x="1396.826172"/>
      <use xlink:href="#DejaVuSans-63" x="1460.205078"/>
      <use xlink:href="#DejaVuSans-79" x="1515.185547"/>
      <use xlink:href="#DejaVuSans-20" x="1574.365234"/>
      <use xlink:href="#DejaVuSans-63" x="1606.152344"/>
      <use xlink:href="#DejaVuSans-6c" x="1661.132812"/>
      <use xlink:href="#DejaVuSans-61" x="1688.916016"/>
      <use xlink:href="#DejaVuSans-73" x="1750.195312"/>
      <use xlink:href="#DejaVuSans-73" x="1802.294922"/>
     </g>
    </g>
   </g>
   <g id="patch_4">
    <path d="M 144 576.72 
L 144 77.76 
" style="fill: none; stroke: #000000; stroke-width: 0.8; stroke-linejoin: miter; stroke-linecap: square"/>
   </g>
   <g id="patch_5">
    <path d="M 1036.8 576.72 
L 1036.8 77.76 
" style="fill: none; stroke: #000000; stroke-width: 0.8; stroke-linejoin: miter; stroke-linecap: square"/>
   </g>
   <g id="patch_6">
    <path d="M 144 576.72 
L 1036.8 576.72 
" style="fill: none; stroke: #000000; stroke-width: 0.8; stroke-linejoin: miter; stroke-linecap: square"/>
   </g>
   <g id="patch_7">
    <path d="M 144 77.76 
L 1036.8 77.76 
" style="fill: none; stroke: #000000; stroke-width: 0.8; stroke-linejoin: miter; stroke-linecap: square"/>
   </g>
   <g id="text_16">
    <!-- Latency histogram of rack3slot5 with Intel Pentium (x86), patched kernel 4.18.7-rt5 -->
    <g transform="translate(296.987344 71.76)scale(0.14 -0.14)">
     <defs>
      <path id="DejaVuSans-4c" d="M 628 4666 
L 1259 4666 
L 1259 531 
L 3531 531 
L 3531 0 
L 628 0 
L 628 4666 
z
" transform="scale(0.015625)"/>
      <path id="DejaVuSans-67" d="M 2906 1791 
Q 2906 2416 2648 2759 
Q 2391 3103 1925 3103 
Q 1463 3103 1205 2759 
Q 947 2416 947 1791 
Q 947 1169 1205 825 
Q 1463 481 1925 481 
Q 2391 481 2648 825 
Q 2906 1169 2906 1791 
z
M 3481 434 
Q 3481 -459 3084 -895 
Q 2688 -1331 1869 -1331 
Q 1566 -1331 1297 -1286 
Q 1028 -1241 775 -1147 
L 775 -588 
Q 1028 -725 1275 -790 
Q 1522 -856 1778 -856 
Q 2344 -856 2625 -561 
Q 2906 -266 2906 331 
L 2906 616 
Q 2728 306 2450 153 
Q 2172 0 1784 0 
Q 1141 0 747 490 
Q 353 981 353 1791 
Q 353 2603 747 3093 
Q 1141 3584 1784 3584 
Q 2172 3584 2450 3431 
Q 2728 3278 2906 2969 
L 2906 3500 
L 3481 3500 
L 3481 434 
z
" transform="scale(0.015625)"/>
      <path id="DejaVuSans-6b" d="M 581 4863 
L 1159 4863 
L 1159 1991 
L 2875 3500 
L 3609 3500 
L 1753 1863 
L 3688 0 
L 2938 0 
L 1159 1709 
L 1159 0 
L 581 0 
L 581 4863 
z
" transform="scale(0.015625)"/>
      <path id="DejaVuSans-49" d="M 628 4666 
L 1259 4666 
L 1259 0 
L 628 0 
L 628 4666 
z
" transform="scale(0.015625)"/>
      <path id="DejaVuSans-50" d="M 1259 4147 
L 1259 2394 
L 2053 2394 
Q 2494 2394 2734 2622 
Q 2975 2850 2975 3272 
Q 2975 3691 2734 3919 
Q 2494 4147 2053 4147 
L 1259 4147 
z
M 628 4666 
L 2053 4666 
Q 2838 4666 3239 4311 
Q 3641 3956 3641 3272 
Q 3641 2581 3239 2228 
Q 2838 1875 2053 1875 
L 1259 1875 
L 1259 0 
L 628 0 
L 628 4666 
z
" transform="scale(0.015625)"/>
      <path id="DejaVuSans-28" d="M 1984 4856 
Q 1566 4138 1362 3434 
Q 1159 2731 1159 2009 
Q 1159 1288 1364 580 
Q 1569 -128 1984 -844 
L 1484 -844 
Q 1016 -109 783 600 
Q 550 1309 550 2009 
Q 550 2706 781 3412 
Q 1013 4119 1484 4856 
L 1984 4856 
z
" transform="scale(0.015625)"/>
      <path id="DejaVuSans-29" d="M 513 4856 
L 1013 4856 
Q 1481 4119 1714 3412 
Q 1947 2706 1947 2009 
Q 1947 1309 1714 600 
Q 1481 -109 1013 -844 
L 513 -844 
Q 928 -128 1133 580 
Q 1338 1288 1338 2009 
Q 1338 2731 1133 3434 
Q 928 4138 513 4856 
z
" transform="scale(0.015625)"/>
      <path id="DejaVuSans-64" d="M 2906 2969 
L 2906 4863 
L 3481 4863 
L 3481 0 
L 2906 0 
L 2906 525 
Q 2725 213 2448 61 
Q 2172 -91 1784 -91 
Q 1150 -91 751 415 
Q 353 922 353 1747 
Q 353 2572 751 3078 
Q 1150 3584 1784 3584 
Q 2172 3584 2448 3432 
Q 2725 3281 2906 2969 
z
M 947 1747 
Q 947 1113 1208 752 
Q 1469 391 1925 391 
Q 2381 391 2643 752 
Q 2906 1113 2906 1747 
Q 2906 2381 2643 2742 
Q 2381 3103 1925 3103 
Q 1469 3103 1208 2742 
Q 947 2381 947 1747 
z
" transform="scale(0.015625)"/>
      <path id="DejaVuSans-2e" d="M 684 794 
L 1344 794 
L 1344 0 
L 684 0 
L 684 794 
z
" transform="scale(0.015625)"/>
     </defs>
     <use xlink:href="#DejaVuSans-4c"/>
     <use xlink:href="#DejaVuSans-61" x="55.712891"/>
     <use xlink:href="#DejaVuSans-74" x="116.992188"/>
     <use xlink:href="#DejaVuSans-65" x="156.201172"/>
     <use xlink:href="#DejaVuSans-6e" x="217.724609"/>
     <use xlink:href="#DejaVuSans-63" x="281.103516"/>
     <use xlink:href="#DejaVuSans-79" x="336.083984"/>
     <use xlink:href="#DejaVuSans-20" x="395.263672"/>
     <use xlink:href="#DejaVuSans-68" x="427.050781"/>
     <use xlink:href="#DejaVuSans-69" x="490.429688"/>
     <use xlink:href="#DejaVuSans-73" x="518.212891"/>
     <use xlink:href="#DejaVuSans-74" x="570.3125"/>
     <use xlink:href="#DejaVuSans-6f" x="609.521484"/>
     <use xlink:href="#DejaVuSans-67" x="670.703125"/>
     <use xlink:href="#DejaVuSans-72" x="734.179688"/>
     <use xlink:href="#DejaVuSans-61" x="775.292969"/>
     <use xlink:href="#DejaVuSans-6d" x="836.572266"/>
     <use xlink:href="#DejaVuSans-20" x="933.984375"/>
     <use xlink:href="#DejaVuSans-6f" x="965.771484"/>
     <use xlink:href="#DejaVuSans-66" x="1026.953125"/>
     <use xlink:href="#DejaVuSans-20" x="1062.158203"/>
     <use xlink:href="#DejaVuSans-72" x="1093.945312"/>
     <use xlink:href="#DejaVuSans-61" x="1135.058594"/>
     <use xlink:href="#DejaVuSans-63" x="1196.337891"/>
     <use xlink:href="#DejaVuSans-6b" x="1251.318359"/>
     <use xlink:href="#DejaVuSans-33" x="1309.228516"/>
     <use xlink:href="#DejaVuSans-73" x="1372.851562"/>
     <use xlink:href="#DejaVuSans-6c" x="1424.951172"/>
     <use xlink:href="#DejaVuSans-6f" x="1452.734375"/>
     <use xlink:href="#DejaVuSans-74" x="1513.916016"/>
     <use xlink:href="#DejaVuSans-35" x="1553.125"/>
     <use xlink:href="#DejaVuSans-20" x="1616.748047"/>
     <use xlink:href="#DejaVuSans-77" x="1648.535156"/>
     <use xlink:href="#DejaVuSans-69" x="1730.322266"/>
     <use xlink:href="#DejaVuSans-74" x="1758.105469"/>
     <use xlink:href="#DejaVuSans-68" x="1797.314453"/>
     <use xlink:href="#DejaVuSans-20" x="1860.693359"/>
     <use xlink:href="#DejaVuSans-49" x="1892.480469"/>
     <use xlink:href="#DejaVuSans-6e" x="1921.972656"/>
     <use xlink:href="#DejaVuSans-74" x="1985.351562"/>
     <use xlink:href="#DejaVuSans-65" x="2024.560547"/>
     <use xlink:href="#DejaVuSans-6c" x="2086.083984"/>
     <use xlink:href="#DejaVuSans-20" x="2113.867188"/>
     <use xlink:href="#DejaVuSans-50" x="2145.654297"/>
     <use xlink:href="#DejaVuSans-65" x="2202.332031"/>
     <use xlink:href="#DejaVuSans-6e" x="2263.855469"/>
     <use xlink:href="#DejaVuSans-74" x="2327.234375"/>
     <use xlink:href="#DejaVuSans-69" x="2366.443359"/>
     <use xlink:href="#DejaVuSans-75" x="2394.226562"/>
     <use xlink:href="#DejaVuSans-6d" x="2457.605469"/>
     <use xlink:href="#DejaVuSans-20" x="2555.017578"/>
     <use xlink:href="#DejaVuSans-28" x="2586.804688"/>
     <use xlink:href="#DejaVuSans-78" x="2625.818359"/>
     <use xlink:href="#DejaVuSans-38" x="2684.998047"/>
     <use xlink:href="#DejaVuSans-36" x="2748.621094"/>
     <use xlink:href="#DejaVuSans-29" x="2812.244141"/>
     <use xlink:href="#DejaVuSans-2c" x="2851.257812"/>
     <use xlink:href="#DejaVuSans-20" x="2883.044922"/>
     <use xlink:href="#DejaVuSans-70" x="2914.832031"/>
     <use xlink:href="#DejaVuSans-61" x="2978.308594"/>
     <use xlink:href="#DejaVuSans-74" x="3039.587891"/>
     <use xlink:href="#DejaVuSans-63" x="3078.796875"/>
     <use xlink:href="#DejaVuSans-68" x="3133.777344"/>
     <use xlink:href="#DejaVuSans-65" x="3197.15625"/>
     <use xlink:href="#DejaVuSans-64" x="3258.679688"/>
     <use xlink:href="#DejaVuSans-20" x="3322.15625"/>
     <use xlink:href="#DejaVuSans-6b" x="3353.943359"/>
     <use xlink:href="#DejaVuSans-65" x="3408.228516"/>
     <use xlink:href="#DejaVuSans-72" x="3469.751953"/>
     <use xlink:href="#DejaVuSans-6e" x="3509.115234"/>
     <use xlink:href="#DejaVuSans-65" x="3572.494141"/>
     <use xlink:href="#DejaVuSans-6c" x="3634.017578"/>
     <use xlink:href="#DejaVuSans-20" x="3661.800781"/>
     <use xlink:href="#DejaVuSans-34" x="3693.587891"/>
     <use xlink:href="#DejaVuSans-2e" x="3757.210938"/>
     <use xlink:href="#DejaVuSans-31" x="3788.998047"/>
     <use xlink:href="#DejaVuSans-38" x="3852.621094"/>
     <use xlink:href="#DejaVuSans-2e" x="3916.244141"/>
     <use xlink:href="#DejaVuSans-37" x="3948.03125"/>
     <use xlink:href="#DejaVuSans-2d" x="4011.654297"/>
     <use xlink:href="#DejaVuSans-72" x="4047.738281"/>
     <use xlink:href="#DejaVuSans-74" x="4088.851562"/>
     <use xlink:href="#DejaVuSans-35" x="4128.060547"/>
    </g>
   </g>
   <g id="legend_1">
    <g id="patch_8">
     <path d="M 900.951562 100.449062 
L 1029.8 100.449062 
Q 1031.8 100.449062 1031.8 98.449062 
L 1031.8 84.76 
Q 1031.8 82.76 1029.8 82.76 
L 900.951562 82.76 
Q 898.951562 82.76 898.951562 84.76 
L 898.951562 98.449062 
Q 898.951562 100.449062 900.951562 100.449062 
z
" style="fill: #ffffff; opacity: 0.8; stroke: #cccccc; stroke-linejoin: miter"/>
    </g>
    <g id="line2d_42">
     <path d="M 902.951562 90.858437 
L 922.951562 90.858437 
" style="fill: none; stroke: #1f77b4; stroke-linecap: square"/>
    </g>
    <g id="text_17">
     <!-- Core #0:   566 µs -->
     <g transform="translate(930.951562 94.358437)scale(0.1 -0.1)">
      <defs>
       <path id="DejaVuSans-Bold-43" d="M 4288 256 
Q 3956 84 3597 -3 
Q 3238 -91 2847 -91 
Q 1681 -91 1000 561 
Q 319 1213 319 2328 
Q 319 3447 1000 4098 
Q 1681 4750 2847 4750 
Q 3238 4750 3597 4662 
Q 3956 4575 4288 4403 
L 4288 3438 
Q 3953 3666 3628 3772 
Q 3303 3878 2944 3878 
Q 2300 3878 1931 3465 
Q 1563 3053 1563 2328 
Q 1563 1606 1931 1193 
Q 2300 781 2944 781 
Q 3303 781 3628 887 
Q 3953 994 4288 1222 
L 4288 256 
z
" transform="scale(0.015625)"/>
       <path id="DejaVuSans-Bold-6f" d="M 2203 2784 
Q 1831 2784 1636 2517 
Q 1441 2250 1441 1747 
Q 1441 1244 1636 976 
Q 1831 709 2203 709 
Q 2569 709 2762 976 
Q 2956 1244 2956 1747 
Q 2956 2250 2762 2517 
Q 2569 2784 2203 2784 
z
M 2203 3584 
Q 3106 3584 3614 3096 
Q 4122 2609 4122 1747 
Q 4122 884 3614 396 
Q 3106 -91 2203 -91 
Q 1297 -91 786 396 
Q 275 884 275 1747 
Q 275 2609 786 3096 
Q 1297 3584 2203 3584 
z
" transform="scale(0.015625)"/>
       <path id="DejaVuSans-Bold-72" d="M 3138 2547 
Q 2991 2616 2845 2648 
Q 2700 2681 2553 2681 
Q 2122 2681 1889 2404 
Q 1656 2128 1656 1613 
L 1656 0 
L 538 0 
L 538 3500 
L 1656 3500 
L 1656 2925 
Q 1872 3269 2151 3426 
Q 2431 3584 2822 3584 
Q 2878 3584 2943 3579 
Q 3009 3575 3134 3559 
L 3138 2547 
z
" transform="scale(0.015625)"/>
       <path id="DejaVuSans-Bold-65" d="M 4031 1759 
L 4031 1441 
L 1416 1441 
Q 1456 1047 1700 850 
Q 1944 653 2381 653 
Q 2734 653 3104 758 
Q 3475 863 3866 1075 
L 3866 213 
Q 3469 63 3072 -14 
Q 2675 -91 2278 -91 
Q 1328 -91 801 392 
Q 275 875 275 1747 
Q 275 2603 792 3093 
Q 1309 3584 2216 3584 
Q 3041 3584 3536 3087 
Q 4031 2591 4031 1759 
z
M 2881 2131 
Q 2881 2450 2695 2645 
Q 2509 2841 2209 2841 
Q 1884 2841 1681 2658 
Q 1478 2475 1428 2131 
L 2881 2131 
z
" transform="scale(0.015625)"/>
       <path id="DejaVuSans-Bold-20" transform="scale(0.015625)"/>
       <path id="DejaVuSans-Bold-23" d="M 2847 4594 
L 2547 3391 
L 3372 3391 
L 3675 4594 
L 4366 4594 
L 4063 3391 
L 4928 3391 
L 4928 2725 
L 3897 2725 
L 3681 1869 
L 4569 1869 
L 4569 1197 
L 3519 1197 
L 3219 0 
L 2528 0 
L 2828 1197 
L 2003 1197 
L 1703 0 
L 1006 0 
L 1306 1197 
L 434 1197 
L 434 1869 
L 1459 1869 
L 1678 2725 
L 794 2725 
L 794 3391 
L 1850 3391 
L 2150 4594 
L 2847 4594 
z
M 3200 2725 
L 2375 2725 
L 2156 1869 
L 2981 1869 
L 3200 2725 
z
" transform="scale(0.015625)"/>
       <path id="DejaVuSans-Bold-30" d="M 2944 2338 
Q 2944 3213 2780 3570 
Q 2616 3928 2228 3928 
Q 1841 3928 1675 3570 
Q 1509 3213 1509 2338 
Q 1509 1453 1675 1090 
Q 1841 728 2228 728 
Q 2613 728 2778 1090 
Q 2944 1453 2944 2338 
z
M 4147 2328 
Q 4147 1169 3647 539 
Q 3147 -91 2228 -91 
Q 1306 -91 806 539 
Q 306 1169 306 2328 
Q 306 3491 806 4120 
Q 1306 4750 2228 4750 
Q 3147 4750 3647 4120 
Q 4147 3491 4147 2328 
z
" transform="scale(0.015625)"/>
       <path id="DejaVuSans-Bold-3a" d="M 716 3500 
L 1844 3500 
L 1844 2291 
L 716 2291 
L 716 3500 
z
M 716 1209 
L 1844 1209 
L 1844 0 
L 716 0 
L 716 1209 
z
" transform="scale(0.015625)"/>
       <path id="DejaVuSans-Bold-35" d="M 678 4666 
L 3669 4666 
L 3669 3781 
L 1638 3781 
L 1638 3059 
Q 1775 3097 1914 3117 
Q 2053 3138 2203 3138 
Q 3056 3138 3531 2711 
Q 4006 2284 4006 1522 
Q 4006 766 3489 337 
Q 2972 -91 2053 -91 
Q 1656 -91 1267 -14 
Q 878 63 494 219 
L 494 1166 
Q 875 947 1217 837 
Q 1559 728 1863 728 
Q 2300 728 2551 942 
Q 2803 1156 2803 1522 
Q 2803 1891 2551 2103 
Q 2300 2316 1863 2316 
Q 1603 2316 1309 2248 
Q 1016 2181 678 2041 
L 678 4666 
z
" transform="scale(0.015625)"/>
       <path id="DejaVuSans-Bold-36" d="M 2316 2303 
Q 2000 2303 1842 2098 
Q 1684 1894 1684 1484 
Q 1684 1075 1842 870 
Q 2000 666 2316 666 
Q 2634 666 2792 870 
Q 2950 1075 2950 1484 
Q 2950 1894 2792 2098 
Q 2634 2303 2316 2303 
z
M 3803 4544 
L 3803 3681 
Q 3506 3822 3243 3889 
Q 2981 3956 2731 3956 
Q 2194 3956 1894 3657 
Q 1594 3359 1544 2772 
Q 1750 2925 1990 3001 
Q 2231 3078 2516 3078 
Q 3231 3078 3670 2659 
Q 4109 2241 4109 1563 
Q 4109 813 3618 361 
Q 3128 -91 2303 -91 
Q 1394 -91 895 523 
Q 397 1138 397 2266 
Q 397 3422 980 4083 
Q 1563 4744 2578 4744 
Q 2900 4744 3203 4694 
Q 3506 4644 3803 4544 
z
" transform="scale(0.015625)"/>
       <path id="DejaVuSans-Bold-b5" d="M 544 -1338 
L 544 3500 
L 1672 3500 
L 1672 1466 
Q 1672 1103 1828 926 
Q 1984 750 2303 750 
Q 2625 750 2781 926 
Q 2938 1103 2938 1466 
L 2938 3500 
L 4063 3500 
L 4063 1159 
Q 4063 938 4114 850 
Q 4166 763 4288 763 
Q 4344 763 4395 778 
Q 4447 794 4506 831 
L 4506 50 
Q 4341 -22 4195 -56 
Q 4050 -91 3909 -91 
Q 3631 -91 3454 26 
Q 3278 144 3169 403 
Q 3022 156 2811 32 
Q 2600 -91 2322 -91 
Q 2091 -91 1928 -17 
Q 1766 56 1672 206 
L 1672 -1338 
L 544 -1338 
z
" transform="scale(0.015625)"/>
       <path id="DejaVuSans-Bold-73" d="M 3272 3391 
L 3272 2541 
Q 2913 2691 2578 2766 
Q 2244 2841 1947 2841 
Q 1628 2841 1473 2761 
Q 1319 2681 1319 2516 
Q 1319 2381 1436 2309 
Q 1553 2238 1856 2203 
L 2053 2175 
Q 2913 2066 3209 1816 
Q 3506 1566 3506 1031 
Q 3506 472 3093 190 
Q 2681 -91 1863 -91 
Q 1516 -91 1145 -36 
Q 775 19 384 128 
L 384 978 
Q 719 816 1070 734 
Q 1422 653 1784 653 
Q 2113 653 2278 743 
Q 2444 834 2444 1013 
Q 2444 1163 2330 1236 
Q 2216 1309 1875 1350 
L 1678 1375 
Q 931 1469 631 1722 
Q 331 1975 331 2491 
Q 331 3047 712 3315 
Q 1094 3584 1881 3584 
Q 2191 3584 2531 3537 
Q 2872 3491 3272 3391 
z
" transform="scale(0.015625)"/>
      </defs>
      <use xlink:href="#DejaVuSans-Bold-43"/>
      <use xlink:href="#DejaVuSans-Bold-6f" x="73.388672"/>
      <use xlink:href="#DejaVuSans-Bold-72" x="142.089844"/>
      <use xlink:href="#DejaVuSans-Bold-65" x="191.40625"/>
      <use xlink:href="#DejaVuSans-Bold-20" x="259.228516"/>
      <use xlink:href="#DejaVuSans-Bold-23" x="294.042969"/>
      <use xlink:href="#DejaVuSans-Bold-30" x="377.832031"/>
      <use xlink:href="#DejaVuSans-Bold-3a" x="447.412109"/>
      <use xlink:href="#DejaVuSans-Bold-20" x="487.402344"/>
      <use xlink:href="#DejaVuSans-Bold-20" x="522.216797"/>
      <use xlink:href="#DejaVuSans-Bold-20" x="557.03125"/>
      <use xlink:href="#DejaVuSans-Bold-35" x="591.845703"/>
      <use xlink:href="#DejaVuSans-Bold-36" x="661.425781"/>
      <use xlink:href="#DejaVuSans-Bold-36" x="731.005859"/>
      <use xlink:href="#DejaVuSans-Bold-20" x="800.585938"/>
      <use xlink:href="#DejaVuSans-Bold-b5" x="835.400391"/>
      <use xlink:href="#DejaVuSans-Bold-73" x="908.984375"/>
     </g>
    </g>
   </g>
  </g>
 </g>
 <defs>
  <clipPath id="pe69480d873">
   <rect x="144" y="77.76" width="892.8" height="498.96"/>
  </clipPath>
 </defs>
</svg>
